<svg xmlns="http://www.w3.org/2000/svg" width="64" height="64" viewBox="0 0 64 64" role="img" aria-label="Guia Casa Inteligente">
  <defs>
    <linearGradient id="gciFavBg" x1="0" y1="0" x2="1" y2="1">
      <stop offset="0" stop-color="#091A2E"/>
      <stop offset="1" stop-color="#0E3A5C"/>
    </linearGradient>
    <linearGradient id="gciFavMark" x1="0" y1="0" x2="1" y2="1">
      <stop offset="0" stop-color="#38BDF8"/>
      <stop offset="1" stop-color="#22D3EE"/>
    </linearGradient>
  </defs>
  <rect x="0" y="0" width="64" height="64" rx="14" fill="url(#gciFavBg)"/>
  <g fill="none" stroke="url(#gciFavMark)" stroke-width="3.4" stroke-linecap="round" stroke-linejoin="round">
    <path d="M15 31 32 16 49 31"/>
    <path d="M20 28.5v18a2 2 0 0 0 2 2h20a2 2 0 0 0 2-2V28.5"/>
  </g>
  <g fill="none" stroke="url(#gciFavMark)" stroke-width="2.6" stroke-linecap="round">
    <path d="M27 41a7 7 0 0 1 10 0"/>
    <path d="M23.5 37a12 12 0 0 1 17 0"/>
  </g>
  <circle cx="32" cy="44.5" r="2.5" fill="#22D3EE"/>
</svg>
