<svg xmlns="http://www.w3.org/2000/svg" viewBox="0 0 1000 920" width="1000" height="920">
  <defs>
    <radialGradient id="plateBg" cx="50%" cy="42%" r="75%"><stop offset="0%" stop-color="#FBF1DF"/><stop offset="70%" stop-color="#F3E2C4"/><stop offset="100%" stop-color="#E7Cfa1"/></radialGradient>
    <radialGradient id="crust" cx="50%" cy="46%" r="55%"><stop offset="60%" stop-color="#F0C079"/><stop offset="88%" stop-color="#D89B4C"/><stop offset="100%" stop-color="#B97C34"/></radialGradient>
    <radialGradient id="cheese" cx="50%" cy="46%" r="55%"><stop offset="0%" stop-color="#F8DC83"/><stop offset="100%" stop-color="#F4CF6E"/></radialGradient>
    <radialGradient id="pepShine" cx="38%" cy="34%" r="60%"><stop offset="0%" stop-color="#E76B5A"/><stop offset="100%" stop-color="#C0392B" stop-opacity="0"/></radialGradient>
  </defs>
  <ellipse cx="500" cy="503.2" rx="381.6" ry="367.2" fill="#000" opacity=".14"/>
  <circle cx="500" cy="460" r="360" fill="url(#crust)"/>
  <circle cx="849.2" cy="460" r="12.305769468471409" fill="#E8B774" opacity=".7"/><circle cx="845.950824122688" cy="507.5254383339385" r="9.673888079635798" fill="#D49A4E" opacity=".7"/><circle cx="836.2637612323426" cy="554.16646367937" r="15.371679203398527" fill="#E8B774" opacity=".7"/><circle cx="820.3190803499563" cy="599.0551213143847" r="8.247561792656779" fill="#E8B774" opacity=".7"/><circle cx="798.4135001037909" cy="641.3560667741909" r="14.08000555895269" fill="#D49A4E" opacity=".7"/><circle cx="770.9546670168381" cy="680.2821109890551" r="10.096706711500882" fill="#E8B774" opacity=".7"/><circle cx="738.4535695088302" cy="715.1088692862274" r="14.158485466428102" fill="#D49A4E" opacity=".7"/><circle cx="701.515028782569" cy="745.1882416488456" r="17.386295301653448" fill="#E8B774" opacity=".7"/><circle cx="660.8264435520916" cy="769.9604733742448" r="18.43335369396955" fill="#D49A4E" opacity=".7"/><circle cx="617.144998064894" cy="788.96457169181" r="11.37736694868654" fill="#D49A4E" opacity=".7"/><circle cx="571.283571467386" cy="801.8468844948775" r="13.605826116912068" fill="#D49A4E" opacity=".7"/><circle cx="524.0956107297835" cy="808.3676815428761" r="10.375105199217796" fill="#D49A4E" opacity=".7"/><circle cx="476.459248634035" cy="808.4056156624429" r="15.958558072149755" fill="#D49A4E" opacity=".7"/><circle cx="429.26096237718735" cy="801.9599809278832" r="10.661510041728615" fill="#E8B774" opacity=".7"/><circle cx="383.37907689140667" cy="789.1507257979231" r="7.288035422377288" fill="#D49A4E" opacity=".7"/><circle cx="339.66741987157286" cy="770.216220964284" r="7.305657658539712" fill="#D49A4E" opacity=".7"/><circle cx="298.9394326782022" cy="745.5088234507592" r="16.665888390317562" fill="#D49A4E" opacity=".7"/><circle cx="261.9530327999555" cy="715.4883195115991" r="13.678081706911327" fill="#E8B774" opacity=".7"/><circle cx="229.39650957402068" cy="680.7133683519803" r="13.725159071199597" fill="#D49A4E" opacity=".7"/><circle cx="201.8757156345036" cy="641.8311058965452" r="16.385609718784693" fill="#D49A4E" opacity=".7"/><circle cx="179.90279244642562" cy="599.5651020721295" r="17.913797388598326" fill="#E8B774" opacity=".7"/><circle cx="163.8866397347395" cy="554.701895710673" r="14.471228095516564" fill="#E8B774" opacity=".7"/><circle cx="154.12530616518478" cy="508.07635764773386" r="15.151865158975125" fill="#D49A4E" opacity=".7"/><circle cx="150.80044288074322" cy="460.5561543984372" r="8.52999765034765" fill="#E8B774" opacity=".7"/><circle cx="153.97392310924505" cy="413.02560153026616" r="16.02057091780007" fill="#D49A4E" opacity=".7"/><circle cx="163.58669074871108" cy="366.3692072093981" r="12.98741499502212" fill="#E8B774" opacity=".7"/><circle cx="179.4598593573981" cy="321.45521216292195" r="13.638124269247056" fill="#D49A4E" opacity=".7"/><circle cx="201.2980410971627" cy="279.11943236597335" r="8.949412550590932" fill="#D49A4E" opacity=".7"/><circle cx="228.69484368098762" cy="240.14970512933976" r="18.37043781280518" fill="#E8B774" opacity=".7"/><circle cx="261.1404330305748" cy="205.27122803425075" r="16.406489229574802" fill="#E8B774" opacity=".7"/><circle cx="298.0310209085825" cy="175.13306354585382" r="12.654933151602746" fill="#E8B774" opacity=".7"/><circle cx="338.68010096774265" cy="150.29606044445887" r="9.031497928127646" fill="#E8B774" opacity=".7"/><circle cx="382.331224122355" cy="131.22241684771672" r="9.251371263340115" fill="#E8B774" opacity=".7"/><circle cx="428.1720755020219" cy="118.26707904810701" r="11.364053748361766" fill="#D49A4E" opacity=".7"/><circle cx="475.3495910259968" cy="111.67113622696382" r="19.000045986659828" fill="#E8B774" opacity=".7"/><circle cx="522.9858322899731" cy="111.55733396448534" r="14.688217265345157" fill="#E8B774" opacity=".7"/><circle cx="570.194324345493" cy="117.92779003596371" r="16.1643422132358" fill="#E8B774" opacity=".7"/><circle cx="616.0965523380823" cy="130.66395500156545" r="18.806240705586973" fill="#E8B774" opacity=".7"/><circle cx="659.8383100139711" cy="149.5288183230565" r="7.545923130400478" fill="#D49A4E" opacity=".7"/><circle cx="700.6055958618658" cy="174.17131895328316" r="11.45928617734462" fill="#D49A4E" opacity=".7"/><circle cx="737.6397610744333" cy="204.13287832062863" r="9.313851078785955" fill="#E8B774" opacity=".7"/><circle cx="770.2516274372113" cy="238.85593413446787" r="9.910654377937316" fill="#D49A4E" opacity=".7"/><circle cx="797.8343124215623" cy="277.6943162038683" r="8.84767840784043" fill="#D49A4E" opacity=".7"/><circle cx="819.8745228162464" cy="319.9252711832765" r="17.90581726357341" fill="#D49A4E" opacity=".7"/><circle cx="835.9621067315417" cy="364.7629124736367" r="8.568815425783395" fill="#E8B774" opacity=".7"/><circle cx="845.7976862202446" cy="411.37284498631163" r="15.904604834318162" fill="#E8B774" opacity=".7"/>
  <circle cx="500" cy="460" r="309.6" fill="#C23A26"/>
  <circle cx="500" cy="460" r="297.216" fill="url(#cheese)"/>
  <circle cx="369.4516600468507" cy="600.3425602456724" r="21.317011412233114" fill="#F7DE8E" opacity=".5"/><circle cx="670.1737013906953" cy="470.33642732302377" r="26.95361567940563" fill="#F7DE8E" opacity=".5"/><circle cx="542.5114917185241" cy="543.3135601144295" r="15.959307990968227" fill="#F7DE8E" opacity=".5"/><circle cx="582.4439284958049" cy="412.21944356548835" r="23.603612450882792" fill="#F7DE8E" opacity=".5"/><circle cx="254.27409967748068" cy="428.79137622404545" r="25.062078945804387" fill="#F7DE8E" opacity=".5"/><circle cx="596.7867711101692" cy="570.0277724503883" r="25.753999315202236" fill="#F7DE8E" opacity=".5"/><circle cx="515.8890995516779" cy="568.4337238339883" r="11.231183851137757" fill="#F7DE8E" opacity=".5"/><circle cx="354.6648409195242" cy="418.57979473603314" r="13.265346630010754" fill="#F7DE8E" opacity=".5"/><circle cx="298.41777137931865" cy="377.23244937286626" r="21.75476541230455" fill="#F7DE8E" opacity=".5"/><circle cx="555.6051909456794" cy="469.2855219249557" r="15.843586886767298" fill="#F7DE8E" opacity=".5"/><circle cx="496.95008814089437" cy="461.11650421766706" r="20.81093538366258" fill="#F7DE8E" opacity=".5"/><circle cx="460.9249769631988" cy="331.74369217243355" r="24.838345888070762" fill="#F7DE8E" opacity=".5"/><circle cx="377.88978275944606" cy="550.1005748409976" r="19.67450241325423" fill="#F7DE8E" opacity=".5"/><circle cx="503.51255340241283" cy="450.8661085312657" r="9.487575839739293" fill="#F7DE8E" opacity=".5"/><circle cx="577.4858028739962" cy="478.23418780252945" r="23.178042226005346" fill="#F7DE8E" opacity=".5"/><circle cx="487.2761477759532" cy="444.4299643667381" r="15.421657454688102" fill="#F7DE8E" opacity=".5"/><circle cx="578.8582330156157" cy="621.9195284297341" r="25.543801811523736" fill="#F7DE8E" opacity=".5"/><circle cx="402.7884410809487" cy="336.43106462112684" r="26.920207081362605" fill="#F7DE8E" opacity=".5"/><circle cx="573.6096995085234" cy="733.7969677384035" r="15.054339482914656" fill="#F7DE8E" opacity=".5"/><circle cx="437.9249938107877" cy="586.2618197304623" r="11.265137620735914" fill="#F7DE8E" opacity=".5"/><circle cx="562.2759773916023" cy="545.9307309933115" r="9.59773017000407" fill="#F7DE8E" opacity=".5"/><circle cx="472.6231089851161" cy="534.7319814200603" r="22.754475452005863" fill="#F7DE8E" opacity=".5"/><circle cx="593.3846900463652" cy="348.80041621874636" r="9.257971652783453" fill="#F7DE8E" opacity=".5"/><circle cx="480.70144712701665" cy="583.4131645333304" r="9.70151489507407" fill="#F7DE8E" opacity=".5"/><circle cx="601.6881081399583" cy="542.7383139420892" r="12.576202736701816" fill="#F7DE8E" opacity=".5"/><circle cx="472.51372032127983" cy="451.5222785606362" r="12.074638347141445" fill="#F7DE8E" opacity=".5"/>
  <g><ellipse cx="612.8593654862912" cy="510.9204605716592" rx="42.48062334721908" ry="39.08217347944156" fill="#7E241C" opacity=".25"/><circle cx="612.8593654862912" cy="503.27394836915977" r="42.48062334721908" fill="#C0392B"/><circle cx="612.8593654862912" cy="503.27394836915977" r="42.48062334721908" fill="url(#pepShine)" opacity=".5"/><circle cx="613.8858926319933" cy="501.2354072457136" r="6.796899735555053" fill="#8E2B22"/><circle cx="599.4545900798337" cy="504.2703346105672" r="6.796899735555053" fill="#8E2B22"/><circle cx="612.5705047595579" cy="497.48989097828354" r="6.796899735555053" fill="#8E2B22"/><circle cx="604.4958597203952" cy="513.615161743254" r="6.796899735555053" fill="#8E2B22"/><circle cx="610.5736338951361" cy="506.70400941496285" r="6.796899735555053" fill="#8E2B22"/></g><g><ellipse cx="334.47295331860516" cy="542.7173479053401" rx="45.912746461573995" ry="42.239726744648074" fill="#7E241C" opacity=".25"/><circle cx="334.47295331860516" cy="534.4530535422568" r="45.912746461573995" fill="#C0392B"/><circle cx="334.47295331860516" cy="534.4530535422568" r="45.912746461573995" fill="url(#pepShine)" opacity=".5"/><circle cx="332.330354147122" cy="536.0123888432905" r="7.346039433851839" fill="#8E2B22"/><circle cx="339.8946242354945" cy="538.9541093392826" r="7.346039433851839" fill="#8E2B22"/><circle cx="341.8941743902374" cy="549.6472498388858" r="7.346039433851839" fill="#8E2B22"/><circle cx="328.48814765789814" cy="553.7370699190807" r="7.346039433851839" fill="#8E2B22"/><circle cx="335.9421186789458" cy="535.4350860409628" r="7.346039433851839" fill="#8E2B22"/></g><g><ellipse cx="603.0118511325393" cy="248.7839495571103" rx="53.41358411684632" ry="49.14049738749862" fill="#7E241C" opacity=".25"/><circle cx="603.0118511325393" cy="239.16950441607796" r="53.41358411684632" fill="#C0392B"/><circle cx="603.0118511325393" cy="239.16950441607796" r="53.41358411684632" fill="url(#pepShine)" opacity=".5"/><circle cx="602.7495607198467" cy="232.926764240124" r="8.546173458695412" fill="#8E2B22"/><circle cx="595.2617066841038" cy="244.4331497263663" r="8.546173458695412" fill="#8E2B22"/><circle cx="610.9458373898254" cy="232.4319820585767" r="8.546173458695412" fill="#8E2B22"/><circle cx="600.8262776588397" cy="238.59617401827387" r="8.546173458695412" fill="#8E2B22"/><circle cx="605.2808890097026" cy="243.05979769847477" r="8.546173458695412" fill="#8E2B22"/></g><g><ellipse cx="544.8900495072852" cy="567.4590830995618" rx="39.355930977500975" ry="36.207456499300896" fill="#7E241C" opacity=".25"/><circle cx="544.8900495072852" cy="560.3750155236116" r="39.355930977500975" fill="#C0392B"/><circle cx="544.8900495072852" cy="560.3750155236116" r="39.355930977500975" fill="url(#pepShine)" opacity=".5"/><circle cx="539.3853697697136" cy="564.8027540104532" r="6.296948956400156" fill="#8E2B22"/><circle cx="539.4412175611482" cy="560.9111896299102" r="6.296948956400156" fill="#8E2B22"/><circle cx="558.5966513156562" cy="556.2065522659204" r="6.296948956400156" fill="#8E2B22"/><circle cx="545.623084685571" cy="560.0908517343246" r="6.296948956400156" fill="#8E2B22"/><circle cx="545.1822311515164" cy="550.5873215008969" r="6.296948956400156" fill="#8E2B22"/></g><g><ellipse cx="338.00097815652515" cy="420.06047571367" rx="45.69860692787915" ry="42.04271837364882" fill="#7E241C" opacity=".25"/><circle cx="338.00097815652515" cy="411.8347264666517" r="45.69860692787915" fill="#C0392B"/><circle cx="338.00097815652515" cy="411.8347264666517" r="45.69860692787915" fill="url(#pepShine)" opacity=".5"/><circle cx="333.6453380333855" cy="397.6285981129928" r="7.311777108460664" fill="#8E2B22"/><circle cx="334.3231225683839" cy="409.9052239600936" r="7.311777108460664" fill="#8E2B22"/><circle cx="341.7923357537923" cy="391.6241699913344" r="7.311777108460664" fill="#8E2B22"/><circle cx="349.4863161603799" cy="394.1385708450245" r="7.311777108460664" fill="#8E2B22"/><circle cx="316.0696258536771" cy="416.4649959472911" r="7.311777108460664" fill="#8E2B22"/></g><g><ellipse cx="725.3478272349118" cy="350.97280946153694" rx="50.089292275719345" ry="46.0821488936618" fill="#7E241C" opacity=".25"/><circle cx="725.3478272349118" cy="341.95673685190746" r="50.089292275719345" fill="#C0392B"/><circle cx="725.3478272349118" cy="341.95673685190746" r="50.089292275719345" fill="url(#pepShine)" opacity=".5"/><circle cx="721.6752453739986" cy="336.78261049025053" r="8.014286764115095" fill="#8E2B22"/><circle cx="728.9339453220426" cy="331.6451639785211" r="8.014286764115095" fill="#8E2B22"/><circle cx="704.9209602470684" cy="336.04136085123554" r="8.014286764115095" fill="#8E2B22"/><circle cx="706.8331298990804" cy="350.0020730373701" r="8.014286764115095" fill="#8E2B22"/><circle cx="726.5438962676452" cy="326.24491350483277" r="8.014286764115095" fill="#8E2B22"/></g><g><ellipse cx="464.6580671533588" cy="563.622151509456" rx="39.54235764686018" ry="36.37896903511137" fill="#7E241C" opacity=".25"/><circle cx="464.6580671533588" cy="556.5045271330212" r="39.54235764686018" fill="#C0392B"/><circle cx="464.6580671533588" cy="556.5045271330212" r="39.54235764686018" fill="url(#pepShine)" opacity=".5"/><circle cx="464.11516337932267" cy="567.2560815641315" r="6.326777223497629" fill="#8E2B22"/><circle cx="464.64007231656944" cy="556.4620660188606" r="6.326777223497629" fill="#8E2B22"/><circle cx="458.472134473284" cy="564.7303468625862" r="6.326777223497629" fill="#8E2B22"/><circle cx="452.0895717553933" cy="571.3869103646786" r="6.326777223497629" fill="#8E2B22"/><circle cx="464.5658464632109" cy="553.1238662808338" r="6.326777223497629" fill="#8E2B22"/></g><g><ellipse cx="427.17910589178797" cy="300.88457938265344" rx="42.09171863878146" ry="38.72438114767894" fill="#7E241C" opacity=".25"/><circle cx="427.17910589178797" cy="293.3080700276728" r="42.09171863878146" fill="#C0392B"/><circle cx="427.17910589178797" cy="293.3080700276728" r="42.09171863878146" fill="url(#pepShine)" opacity=".5"/><circle cx="422.13094840995063" cy="287.6222762035487" r="6.734674982205034" fill="#8E2B22"/><circle cx="426.0362531609522" cy="302.4856823279292" r="6.734674982205034" fill="#8E2B22"/><circle cx="429.0034081313411" cy="272.4306092364231" r="6.734674982205034" fill="#8E2B22"/><circle cx="431.56829074103814" cy="295.25497818115247" r="6.734674982205034" fill="#8E2B22"/><circle cx="428.43646396370053" cy="293.86436872574865" r="6.734674982205034" fill="#8E2B22"/></g><g><ellipse cx="671.12103086882" cy="648.218158469736" rx="53.25758401164785" ry="48.996977290716025" fill="#7E241C" opacity=".25"/><circle cx="671.12103086882" cy="638.6317933476394" r="53.25758401164785" fill="#C0392B"/><circle cx="671.12103086882" cy="638.6317933476394" r="53.25758401164785" fill="url(#pepShine)" opacity=".5"/><circle cx="658.5020326109635" cy="618.4124026501738" r="8.521213441863656" fill="#8E2B22"/><circle cx="686.2550094220293" cy="623.11287641786" r="8.521213441863656" fill="#8E2B22"/><circle cx="657.5076440397777" cy="651.8618067841101" r="8.521213441863656" fill="#8E2B22"/><circle cx="669.3173145589699" cy="629.7000822707377" r="8.521213441863656" fill="#8E2B22"/><circle cx="674.3242327695358" cy="644.9584510096404" r="8.521213441863656" fill="#8E2B22"/></g><g transform="translate(398.8274993172085 485.48501178086104) rotate(10.208034384995699)"><path d="M0 -39.51131593482569 C 31.609052747860552 -23.706789560895412, 31.609052747860552 23.706789560895412, 0 39.51131593482569 C -31.609052747860552 23.706789560895412, -31.609052747860552 -23.706789560895412, 0 -39.51131593482569 Z" fill="#3C7A2E"/><path d="M0 -39.51131593482569 L0 39.51131593482569" stroke="#2C5E22" stroke-width="4.741357912179082"/></g><g transform="translate(582.8776607151372 290.36362511120166) rotate(31.923407278954983)"><path d="M0 -52.56591247580945 C 42.05272998064756 -31.539547485485667, 42.05272998064756 31.539547485485667, 0 52.56591247580945 C -42.05272998064756 31.539547485485667, -42.05272998064756 -31.539547485485667, 0 -52.56591247580945 Z" fill="#3C7A2E"/><path d="M0 -52.56591247580945 L0 52.56591247580945" stroke="#2C5E22" stroke-width="6.307909497097134"/></g><g transform="translate(546.7657820297441 697.6834388827955) rotate(262.7074505388737)"><path d="M0 -38.87983565451577 C 31.10386852361262 -23.327901392709464, 31.10386852361262 23.327901392709464, 0 38.87983565451577 C -31.10386852361262 23.327901392709464, -31.10386852361262 -23.327901392709464, 0 -38.87983565451577 Z" fill="#3C7A2E"/><path d="M0 -38.87983565451577 L0 38.87983565451577" stroke="#2C5E22" stroke-width="4.665580278541893"/></g><g transform="translate(423.2260657051743 374.53603789397255) rotate(16.997307389974594)"><path d="M0 -40.03122249338776 C 32.024977994710206 -24.018733496032656, 32.024977994710206 24.018733496032656, 0 40.03122249338776 C -32.024977994710206 24.018733496032656, -32.024977994710206 -24.018733496032656, 0 -40.03122249338776 Z" fill="#3C7A2E"/><path d="M0 -40.03122249338776 L0 40.03122249338776" stroke="#2C5E22" stroke-width="4.803746699206531"/></g><g transform="translate(673.7050400185578 433.2350172615948) rotate(34.33203944005072)"><path d="M0 -40.88109407806769 C 32.70487526245415 -24.528656446840614, 32.70487526245415 24.528656446840614, 0 40.88109407806769 C -32.70487526245415 24.528656446840614, -32.70487526245415 -24.528656446840614, 0 -40.88109407806769 Z" fill="#3C7A2E"/><path d="M0 -40.88109407806769 L0 40.88109407806769" stroke="#2C5E22" stroke-width="4.905731289368123"/></g><g transform="translate(340.4746191805703 641.8209036551532) rotate(83.26557707972825)"><path d="M0 -51.56280091730878 C 41.25024073384702 -30.937680550385267, 41.25024073384702 30.937680550385267, 0 51.56280091730878 C -41.25024073384702 30.937680550385267, -41.25024073384702 -30.937680550385267, 0 -51.56280091730878 Z" fill="#3C7A2E"/><path d="M0 -51.56280091730878 L0 51.56280091730878" stroke="#2C5E22" stroke-width="6.187536110077053"/></g><g><circle cx="495.4460617888336" cy="348.3136195261529" r="49.32678992394358" fill="#3A2E1F"/><circle cx="495.4460617888336" cy="348.3136195261529" r="22.19705546577461" fill="#6B4F2A"/></g><g><circle cx="621.2051782300148" cy="590.3979387266728" r="44.95398879144341" fill="#3A2E1F"/><circle cx="621.2051782300148" cy="590.3979387266728" r="20.229294956149534" fill="#6B4F2A"/></g><g><circle cx="257.2661303550238" cy="426.87749394680446" r="38.51867912337184" fill="#3A2E1F"/><circle cx="257.2661303550238" cy="426.87749394680446" r="17.333405605517328" fill="#6B4F2A"/></g><g><circle cx="590.2224856080463" cy="378.2843366195311" r="51.19627183768898" fill="#3A2E1F"/><circle cx="590.2224856080463" cy="378.2843366195311" r="23.038322326960042" fill="#6B4F2A"/></g><g><circle cx="459.8441797459027" cy="642.0382985742538" r="48.1744596096687" fill="#3A2E1F"/><circle cx="459.8441797459027" cy="642.0382985742538" r="21.678506824350915" fill="#6B4F2A"/></g><g><circle cx="412.97510223924905" cy="239.77211182730952" r="42.33801040286198" fill="#E2503B"/><circle cx="412.97510223924905" cy="239.77211182730952" r="29.636607282003386" fill="#EB6B57"/><g fill="#F7C9A0"><ellipse cx="429.91030640039384" cy="239.77211182730952" rx="5.080561248343438" ry="2.540280624171719" transform="rotate(0 429.91030640039384 239.77211182730952)"/><ellipse cx="418.2186277913177" cy="255.87511091954258" rx="5.080561248343438" ry="2.540280624171719" transform="rotate(71.59200000000001 418.2186277913177 255.87511091954258)"/><ellipse cx="399.28692834164" cy="249.74382358249332" rx="5.080561248343438" ry="2.540280624171719" transform="rotate(143.18400000000003 399.28692834164 249.74382358249332)"/><ellipse cx="399.2552348715975" cy="229.84405162434408" rx="5.080561248343438" ry="2.540280624171719" transform="rotate(214.77599999999998 399.2552348715975 229.84405162434408)"/><ellipse cx="418.167308278575" cy="223.6524922156424" rx="5.080561248343438" ry="2.540280624171719" transform="rotate(286.36800000000005 418.167308278575 223.6524922156424)"/></g></g><g><circle cx="606.0192621561075" cy="522.5358925343859" r="53.55788089334965" fill="#E2503B"/><circle cx="606.0192621561075" cy="522.5358925343859" r="37.49051662534475" fill="#EB6B57"/><g fill="#F7C9A0"><ellipse cx="627.4424145134474" cy="522.5358925343859" rx="6.426945707201957" ry="3.2134728536009787" transform="rotate(0 627.4424145134474 522.5358925343859)"/><ellipse cx="612.6523588535363" cy="542.9062996272339" rx="6.426945707201957" ry="3.2134728536009787" transform="rotate(71.59200000000001 612.6523588535363 542.9062996272339)"/><ellipse cx="588.703625916242" cy="535.1501780287947" rx="6.426945707201957" ry="3.2134728536009787" transform="rotate(143.18400000000003 588.703625916242 535.1501780287947)"/><ellipse cx="588.6635334537601" cy="509.9768265605043" rx="6.426945707201957" ry="3.2134728536009787" transform="rotate(214.77599999999998 588.6635334537601 509.9768265605043)"/><ellipse cx="612.5874393090223" cy="502.1444603675732" rx="6.426945707201957" ry="3.2134728536009787" transform="rotate(286.36800000000005 612.5874393090223 502.1444603675732)"/></g></g><g><circle cx="357.54295922106957" cy="559.318928349306" r="48.57481435406953" fill="#E2503B"/><circle cx="357.54295922106957" cy="559.318928349306" r="34.00237004784867" fill="#EB6B57"/><g fill="#F7C9A0"><ellipse cx="376.9728849626974" cy="559.318928349306" rx="5.828977722488344" ry="2.914488861244172" transform="rotate(0 376.9728849626974 559.318928349306)"/><ellipse cx="363.55890748668145" cy="577.794057057671" rx="5.828977722488344" ry="2.914488861244172" transform="rotate(71.59200000000001 363.55890748668145 577.794057057671)"/><ellipse cx="341.8383831298503" cy="570.7595709938552" rx="5.828977722488344" ry="2.914488861244172" transform="rotate(143.18400000000003 341.8383831298503 570.7595709938552)"/><ellipse cx="341.8020209009949" cy="547.9283675585119" rx="5.828977722488344" ry="2.914488861244172" transform="rotate(214.77599999999998 341.8020209009949 547.9283675585119)"/><ellipse cx="363.5000281066516" cy="540.8247307560715" rx="5.828977722488344" ry="2.914488861244172" transform="rotate(286.36800000000005 363.5000281066516 540.8247307560715)"/></g></g>
  </svg>