<svg xmlns="http://www.w3.org/2000/svg" viewBox="0 0 820 754.4" width="820" height="754.4">
  <defs>
    <radialGradient id="plateBg" cx="50%" cy="42%" r="75%"><stop offset="0%" stop-color="#FBF1DF"/><stop offset="70%" stop-color="#F3E2C4"/><stop offset="100%" stop-color="#E7Cfa1"/></radialGradient>
    <radialGradient id="crust" cx="50%" cy="46%" r="55%"><stop offset="60%" stop-color="#F0C079"/><stop offset="88%" stop-color="#D89B4C"/><stop offset="100%" stop-color="#B97C34"/></radialGradient>
    <radialGradient id="cheese" cx="50%" cy="46%" r="55%"><stop offset="0%" stop-color="#F8DC83"/><stop offset="100%" stop-color="#F4CF6E"/></radialGradient>
    <radialGradient id="pepShine" cx="38%" cy="34%" r="60%"><stop offset="0%" stop-color="#E76B5A"/><stop offset="100%" stop-color="#C0392B" stop-opacity="0"/></radialGradient>
  </defs>
  <rect x="0" y="0" width="820" height="754.4" rx="40" fill="url(#plateBg)"/><ellipse cx="410" cy="406.71999999999997" rx="330.624" ry="318.81600000000003" fill="#000" opacity=".10"/>
  <circle cx="410" cy="377.2" r="295.2" fill="url(#crust)"/>
  <circle cx="696.344" cy="377.2" r="11.323567657280714" fill="#E8B774" opacity=".7"/><circle cx="693.6796757806042" cy="416.17085943382955" r="12.00561769643426" fill="#D49A4E" opacity=".7"/><circle cx="685.7362842105209" cy="454.4165002170834" r="10.297838973194361" fill="#E8B774" opacity=".7"/><circle cx="672.6616458869642" cy="491.22519947779546" r="8.521916853614151" fill="#E8B774" opacity=".7"/><circle cx="654.6990700851085" cy="525.9119747548366" r="13.677994771800936" fill="#E8B774" opacity=".7"/><circle cx="632.1828269538072" cy="557.8313310110252" r="9.076720251381397" fill="#E8B774" opacity=".7"/><circle cx="605.5319269972408" cy="586.3892728147065" r="8.13646478581801" fill="#E8B774" opacity=".7"/><circle cx="575.2423236017065" cy="611.0543581520534" r="14.322796337954701" fill="#E8B774" opacity=".7"/><circle cx="541.8776837127151" cy="631.3675881668808" r="11.51233632119" fill="#D49A4E" opacity=".7"/><circle cx="506.05889841321306" cy="646.9509487872842" r="6.697104020487517" fill="#D49A4E" opacity=".7"/><circle cx="468.4525286032565" cy="657.5144452857994" r="14.1511882583946" fill="#D49A4E" opacity=".7"/><circle cx="429.7584007984225" cy="662.8614988651584" r="13.089003943294287" fill="#E8B774" opacity=".7"/><circle cx="390.6965838799087" cy="662.8926048432031" r="11.376533873263748" fill="#E8B774" opacity=".7"/><circle cx="351.9939891492936" cy="657.6071843608643" r="14.095126989461482" fill="#E8B774" opacity=".7"/><circle cx="314.37084305095345" cy="647.103595154297" r="10.051081691566855" fill="#E8B774" opacity=".7"/><circle cx="278.52728429468976" cy="631.5773011907129" r="14.53572929333523" fill="#E8B774" opacity=".7"/><circle cx="245.1303347961258" cy="611.3172352296226" r="9.41768183741346" fill="#E8B774" opacity=".7"/><circle cx="214.80148689596354" cy="586.7004219995113" r="14.244047453194858" fill="#E8B774" opacity=".7"/><circle cx="188.10513785069696" cy="558.1849620486238" r="11.525258037239313" fill="#D49A4E" opacity=".7"/><circle cx="165.53808682029296" cy="526.3015068351671" r="9.922109598197043" fill="#D49A4E" opacity=".7"/><circle cx="147.520289806069" cy="491.6433836991462" r="11.000765877977015" fill="#E8B774" opacity=".7"/><circle cx="134.3870445824864" cy="454.8555544827519" r="7.425440065260976" fill="#E8B774" opacity=".7"/><circle cx="126.38275105545148" cy="416.62261327114174" r="14.64118003358692" fill="#E8B774" opacity=".7"/><circle cx="123.65636316220946" cy="377.6560466067185" r="11.897150303084404" fill="#E8B774" opacity=".7"/><circle cx="126.25861694958093" cy="338.68099325481825" r="9.710916104592382" fill="#D49A4E" opacity=".7"/><circle cx="134.14108641394307" cy="300.42274991170643" r="6.748628146570176" fill="#D49A4E" opacity=".7"/><circle cx="147.15708467306644" cy="263.59327397359596" r="6.6066415288634595" fill="#E8B774" opacity=".7"/><circle cx="165.06439369967342" cy="228.87793454009812" r="10.794090435873718" fill="#D49A4E" opacity=".7"/><circle cx="187.52977181840984" cy="196.9227582060586" r="10.056893659081311" fill="#E8B774" opacity=".7"/><circle cx="214.13515508507135" cy="168.32240698808562" r="13.247053503893316" fill="#E8B774" opacity=".7"/><circle cx="244.38543714503766" cy="143.6091121076001" r="13.284863887555899" fill="#E8B774" opacity=".7"/><circle cx="277.717682793549" cy="123.24276956445627" r="14.085728077512234" fill="#E8B774" opacity=".7"/><circle cx="313.5116037803311" cy="107.60238181512773" r="6.48354296361655" fill="#E8B774" opacity=".7"/><circle cx="351.101101911658" cy="96.97900481944771" r="13.1066187290065" fill="#E8B774" opacity=".7"/><circle cx="389.7866646413174" cy="91.57033170611032" r="14.552988099731506" fill="#D49A4E" opacity=".7"/><circle cx="428.848382477778" cy="91.47701385087794" r="6.384196948572993" fill="#D49A4E" opacity=".7"/><circle cx="467.5593459633042" cy="96.7007878294902" r="13.682863226193936" fill="#E8B774" opacity=".7"/><circle cx="505.19917291722754" cy="107.14444310128368" r="12.733313075579703" fill="#E8B774" opacity=".7"/><circle cx="541.0674142114563" cy="122.61363102490631" r="9.472888907656074" fill="#E8B774" opacity=".7"/><circle cx="574.4965886067299" cy="142.8204815416922" r="14.089649075880647" fill="#E8B774" opacity=".7"/><circle cx="604.8646040810353" cy="167.38896022291547" r="7.981864928673953" fill="#D49A4E" opacity=".7"/><circle cx="631.6063344985132" cy="195.86186599026365" r="6.512030777815729" fill="#E8B774" opacity=".7"/><circle cx="654.2241361856811" cy="227.709339287172" r="10.540092476584018" fill="#E8B774" opacity=".7"/><circle cx="672.2971087093221" cy="262.33872237028675" r="9.64386590506509" fill="#E8B774" opacity=".7"/><circle cx="685.4889275198641" cy="299.1055882283821" r="14.440558787506074" fill="#D49A4E" opacity=".7"/><circle cx="693.5541027006005" cy="337.3257328887756" r="9.9787191872634" fill="#D49A4E" opacity=".7"/>
  <circle cx="410" cy="377.2" r="253.87199999999999" fill="#C23A26"/>
  <circle cx="410" cy="377.2" r="243.71711999999997" fill="url(#cheese)"/>
  <circle cx="542.1380681367046" cy="417.29748201077865" r="18.70654867510311" fill="#F7DE8E" opacity=".5"/><circle cx="622.9337059341395" cy="311.961431543994" r="11.18693737358786" fill="#F7DE8E" opacity=".5"/><circle cx="407.1878557796658" cy="576.1481567770168" r="19.738584187394004" fill="#F7DE8E" opacity=".5"/><circle cx="466.11432133274536" cy="593.2754121834241" r="17.341252393070604" fill="#F7DE8E" opacity=".5"/><circle cx="272.3959524962231" cy="239.97975070825822" r="8.32838772847317" fill="#F7DE8E" opacity=".5"/><circle cx="472.59730956905304" cy="503.4288996397006" r="7.715625917091964" fill="#F7DE8E" opacity=".5"/><circle cx="492.3278355943433" cy="582.8291479104003" r="22.139583785450082" fill="#F7DE8E" opacity=".5"/><circle cx="430.3534942941977" cy="404.73716382005944" r="12.353451661588622" fill="#F7DE8E" opacity=".5"/><circle cx="443.1786997743107" cy="300.14491174681615" r="9.44921382232569" fill="#F7DE8E" opacity=".5"/><circle cx="246.09294590961625" cy="429.89633036407383" r="20.268582423012703" fill="#F7DE8E" opacity=".5"/><circle cx="256.0771389599571" cy="542.0136192025464" r="12.028648721482604" fill="#F7DE8E" opacity=".5"/><circle cx="351.8767014322479" cy="241.97876568671023" r="13.109566186331211" fill="#F7DE8E" opacity=".5"/><circle cx="325.3266184560642" cy="410.21829528859666" r="11.205625889031214" fill="#F7DE8E" opacity=".5"/><circle cx="465.32738958222336" cy="593.2986901792226" r="17.909684559227895" fill="#F7DE8E" opacity=".5"/><circle cx="410.3136400072531" cy="390.7356148965215" r="13.485328440237788" fill="#F7DE8E" opacity=".5"/><circle cx="217.66945608774037" cy="474.47914800639" r="12.056903466805814" fill="#F7DE8E" opacity=".5"/><circle cx="529.0085241337473" cy="438.482214564218" r="11.175850742161272" fill="#F7DE8E" opacity=".5"/><circle cx="254.58160156131723" cy="254.8214636504103" r="12.978069303855298" fill="#F7DE8E" opacity=".5"/><circle cx="635.1104262550484" cy="420.8029018879032" r="14.833377491421995" fill="#F7DE8E" opacity=".5"/><circle cx="453.1977342446126" cy="368.72793364601483" r="8.654125964837148" fill="#F7DE8E" opacity=".5"/><circle cx="436.887003360722" cy="344.24096754898807" r="21.928669315818695" fill="#F7DE8E" opacity=".5"/><circle cx="541.5740745177648" cy="381.37085493929806" r="20.84507840112783" fill="#F7DE8E" opacity=".5"/><circle cx="493.27944963882635" cy="423.08573501082344" r="15.840021823290733" fill="#F7DE8E" opacity=".5"/><circle cx="463.0882035718873" cy="499.0888987982546" r="12.669929434368385" fill="#F7DE8E" opacity=".5"/><circle cx="404.4110365982619" cy="190.7243728608187" r="11.807645294051616" fill="#F7DE8E" opacity=".5"/><circle cx="438.39325471830637" cy="370.1666704031187" r="9.767652978636322" fill="#F7DE8E" opacity=".5"/>
  <circle cx="502.37046896744494" cy="393.5849537311115" r="41.47021426090971" fill="#FBE9A8" opacity=".9"/><circle cx="292.87307618002177" cy="482.3336234551487" r="32.90996442538686" fill="#FBE9A8" opacity=".9"/><circle cx="454.4244923884901" cy="170.6122510479256" r="43.21924230904319" fill="#FBE9A8" opacity=".9"/><circle cx="438.84286440887934" cy="453.3676364891614" r="36.71771272882819" fill="#FBE9A8" opacity=".9"/><circle cx="275.6395762545304" cy="317.4368399030067" r="43.3025842681434" fill="#FBE9A8" opacity=".9"/><circle cx="588.0697090557057" cy="279.78542740915753" r="41.328379258252674" fill="#FBE9A8" opacity=".9"/><circle cx="368.82073770645866" cy="450.70506059209913" r="39.60825623547658" fill="#FBE9A8" opacity=".9"/><circle cx="378.4429535749488" cy="229.06445964991002" r="39.96306455614977" fill="#FBE9A8" opacity=".9"/><circle cx="597.3166757614955" cy="469.1626029894072" r="38.08214686565101" fill="#FBE9A8" opacity=".9"/><g><circle cx="324.9565645811567" cy="381.5471914800179" r="44.2668972162623" fill="#E2503B"/><circle cx="324.9565645811567" cy="381.5471914800179" r="30.986828051383608" fill="#EB6B57"/><g fill="#F7C9A0"><ellipse cx="342.66332346766166" cy="381.5471914800179" rx="5.312027665951476" ry="2.656013832975738" transform="rotate(0 342.66332346766166 381.5471914800179)"/><ellipse cx="330.43898107771884" cy="398.3838306821581" rx="5.312027665951476" ry="2.656013832975738" transform="rotate(71.59200000000001 330.43898107771884 398.3838306821581)"/><ellipse cx="310.6447681306834" cy="391.9732066644035" rx="5.312027665951476" ry="2.656013832975738" transform="rotate(143.18400000000003 310.6447681306834 391.9732066644035)"/><ellipse cx="310.61163073080445" cy="371.16681657860715" rx="5.312027665951476" ry="2.656013832975738" transform="rotate(214.77599999999998 310.61163073080445 371.16681657860715)"/><ellipse cx="330.38532348790403" cy="364.6931745405096" rx="5.312027665951476" ry="2.656013832975738" transform="rotate(286.36800000000005 330.38532348790403 364.6931745405096)"/></g></g><g><circle cx="518.5020400083113" cy="280.54410069756034" r="38.01048975725658" fill="#E2503B"/><circle cx="518.5020400083113" cy="280.54410069756034" r="26.607342830079602" fill="#EB6B57"/><g fill="#F7C9A0"><ellipse cx="533.7062359112139" cy="280.54410069756034" rx="4.561258770870789" ry="2.2806293854353945" transform="rotate(0 533.7062359112139 280.54410069756034)"/><ellipse cx="523.2096059140381" cy="295.001154211229" rx="4.561258770870789" ry="2.2806293854353945" transform="rotate(71.59200000000001 523.2096059140381 295.001154211229)"/><ellipse cx="506.2129837021736" cy="289.4965678523964" rx="4.561258770870789" ry="2.2806293854353945" transform="rotate(143.18400000000003 506.2129837021736 289.4965678523964)"/><ellipse cx="506.18452973593946" cy="271.6308233124536" rx="4.561258770870789" ry="2.2806293854353945" transform="rotate(214.77599999999998 506.18452973593946 271.6308233124536)"/><ellipse cx="523.1635319536679" cy="266.07212550765564" rx="4.561258770870789" ry="2.2806293854353945" transform="rotate(286.36800000000005 523.1635319536679 266.07212550765564)"/></g></g><g><circle cx="403.4921615869499" cy="576.5175869190442" r="32.83388731456362" fill="#E2503B"/><circle cx="403.4921615869499" cy="576.5175869190442" r="22.98372112019453" fill="#EB6B57"/><g fill="#F7C9A0"><ellipse cx="416.62571651277534" cy="576.5175869190442" rx="3.940066477747634" ry="1.970033238873817" transform="rotate(0 416.62571651277534 576.5175869190442)"/><ellipse cx="407.55860980852293" cy="589.0057518703467" rx="3.940066477747634" ry="1.970033238873817" transform="rotate(71.59200000000001 407.55860980852293 589.0057518703467)"/><ellipse cx="392.8767369361528" cy="584.250828443329" rx="3.940066477747634" ry="1.970033238873817" transform="rotate(143.18400000000003 392.8767369361528 584.250828443329)"/><ellipse cx="392.85215808102754" cy="568.8181979573386" rx="3.940066477747634" ry="1.970033238873817" transform="rotate(214.77599999999998 392.85215808102754 568.8181979573386)"/><ellipse cx="407.5188106048665" cy="564.0165324564724" rx="3.940066477747634" ry="1.970033238873817" transform="rotate(286.36800000000005 407.5188106048665 564.0165324564724)"/></g></g>
  </svg>