<svg xmlns="http://www.w3.org/2000/svg" viewBox="0 0 820 754.4" width="820" height="754.4">
  <defs>
    <radialGradient id="plateBg" cx="50%" cy="42%" r="75%"><stop offset="0%" stop-color="#FBF1DF"/><stop offset="70%" stop-color="#F3E2C4"/><stop offset="100%" stop-color="#E7Cfa1"/></radialGradient>
    <radialGradient id="crust" cx="50%" cy="46%" r="55%"><stop offset="60%" stop-color="#F0C079"/><stop offset="88%" stop-color="#D89B4C"/><stop offset="100%" stop-color="#B97C34"/></radialGradient>
    <radialGradient id="cheese" cx="50%" cy="46%" r="55%"><stop offset="0%" stop-color="#F8DC83"/><stop offset="100%" stop-color="#F4CF6E"/></radialGradient>
    <radialGradient id="pepShine" cx="38%" cy="34%" r="60%"><stop offset="0%" stop-color="#E76B5A"/><stop offset="100%" stop-color="#C0392B" stop-opacity="0"/></radialGradient>
  </defs>
  <rect x="0" y="0" width="820" height="754.4" rx="40" fill="url(#plateBg)"/><ellipse cx="410" cy="406.71999999999997" rx="330.624" ry="318.81600000000003" fill="#000" opacity=".10"/>
  <circle cx="410" cy="377.2" r="295.2" fill="url(#crust)"/>
  <circle cx="696.344" cy="377.2" r="8.466983594052493" fill="#E8B774" opacity=".7"/><circle cx="693.6796757806042" cy="416.17085943382955" r="11.226175904028118" fill="#E8B774" opacity=".7"/><circle cx="685.7362842105209" cy="454.4165002170834" r="5.9152048898823555" fill="#E8B774" opacity=".7"/><circle cx="672.6616458869642" cy="491.22519947779546" r="6.015692328415811" fill="#D49A4E" opacity=".7"/><circle cx="654.6990700851085" cy="525.9119747548366" r="9.806332472540438" fill="#E8B774" opacity=".7"/><circle cx="632.1828269538072" cy="557.8313310110252" r="9.507328791875391" fill="#D49A4E" opacity=".7"/><circle cx="605.5319269972408" cy="586.3892728147065" r="9.23835965001583" fill="#E8B774" opacity=".7"/><circle cx="575.2423236017065" cy="611.0543581520534" r="8.394008649900556" fill="#D49A4E" opacity=".7"/><circle cx="541.8776837127151" cy="631.3675881668808" r="10.412358179870994" fill="#E8B774" opacity=".7"/><circle cx="506.05889841321306" cy="646.9509487872842" r="10.74302811286971" fill="#D49A4E" opacity=".7"/><circle cx="468.4525286032565" cy="657.5144452857994" r="11.383053072966636" fill="#E8B774" opacity=".7"/><circle cx="429.7584007984225" cy="662.8614988651584" r="9.651775483299046" fill="#E8B774" opacity=".7"/><circle cx="390.6965838799087" cy="662.8926048432031" r="15.462267584480346" fill="#E8B774" opacity=".7"/><circle cx="351.9939891492936" cy="657.6071843608643" r="8.471304553091526" fill="#E8B774" opacity=".7"/><circle cx="314.37084305095345" cy="647.103595154297" r="7.966448759358376" fill="#D49A4E" opacity=".7"/><circle cx="278.52728429468976" cy="631.5773011907129" r="12.67579359689355" fill="#D49A4E" opacity=".7"/><circle cx="245.1303347961258" cy="611.3172352296226" r="8.832509739227593" fill="#D49A4E" opacity=".7"/><circle cx="214.80148689596354" cy="586.7004219995113" r="12.700804093569518" fill="#D49A4E" opacity=".7"/><circle cx="188.10513785069696" cy="558.1849620486238" r="14.788851870853454" fill="#D49A4E" opacity=".7"/><circle cx="165.53808682029296" cy="526.3015068351671" r="13.938671697411687" fill="#D49A4E" opacity=".7"/><circle cx="147.520289806069" cy="491.6433836991462" r="11.862108703438194" fill="#E8B774" opacity=".7"/><circle cx="134.3870445824864" cy="454.8555544827519" r="13.370829004436732" fill="#D49A4E" opacity=".7"/><circle cx="126.38275105545148" cy="416.62261327114174" r="11.734215675663204" fill="#E8B774" opacity=".7"/><circle cx="123.65636316220946" cy="377.6560466067185" r="10.379166974812748" fill="#D49A4E" opacity=".7"/><circle cx="126.25861694958093" cy="338.68099325481825" r="6.10931265931204" fill="#E8B774" opacity=".7"/><circle cx="134.14108641394307" cy="300.42274991170643" r="15.646339025046677" fill="#E8B774" opacity=".7"/><circle cx="147.15708467306644" cy="263.59327397359596" r="8.821733901813626" fill="#E8B774" opacity=".7"/><circle cx="165.06439369967342" cy="228.87793454009812" r="13.98179109818861" fill="#D49A4E" opacity=".7"/><circle cx="187.52977181840984" cy="196.9227582060586" r="12.7877382642366" fill="#D49A4E" opacity=".7"/><circle cx="214.13515508507135" cy="168.32240698808562" r="13.222897551856935" fill="#E8B774" opacity=".7"/><circle cx="244.38543714503766" cy="143.6091121076001" r="13.459088872611524" fill="#D49A4E" opacity=".7"/><circle cx="277.717682793549" cy="123.24276956445627" r="13.195603463608773" fill="#D49A4E" opacity=".7"/><circle cx="313.5116037803311" cy="107.60238181512773" r="8.612982075601815" fill="#E8B774" opacity=".7"/><circle cx="351.101101911658" cy="96.97900481944771" r="9.587624392077327" fill="#D49A4E" opacity=".7"/><circle cx="389.7866646413174" cy="91.57033170611032" r="14.253733404368162" fill="#D49A4E" opacity=".7"/><circle cx="428.848382477778" cy="91.47701385087794" r="13.567081612363458" fill="#D49A4E" opacity=".7"/><circle cx="467.5593459633042" cy="96.7007878294902" r="11.471370767332614" fill="#E8B774" opacity=".7"/><circle cx="505.19917291722754" cy="107.14444310128368" r="12.969249239411205" fill="#D49A4E" opacity=".7"/><circle cx="541.0674142114563" cy="122.61363102490631" r="15.727040256276727" fill="#E8B774" opacity=".7"/><circle cx="574.4965886067299" cy="142.8204815416922" r="7.709481070037931" fill="#E8B774" opacity=".7"/><circle cx="604.8646040810353" cy="167.38896022291547" r="13.71966284744069" fill="#E8B774" opacity=".7"/><circle cx="631.6063344985132" cy="195.86186599026365" r="7.258597654268145" fill="#D49A4E" opacity=".7"/><circle cx="654.2241361856811" cy="227.709339287172" r="9.934912976749242" fill="#E8B774" opacity=".7"/><circle cx="672.2971087093221" cy="262.33872237028675" r="10.773020310714841" fill="#E8B774" opacity=".7"/><circle cx="685.4889275198641" cy="299.1055882283821" r="9.79756259683147" fill="#D49A4E" opacity=".7"/><circle cx="693.5541027006005" cy="337.3257328887756" r="6.680572131011635" fill="#D49A4E" opacity=".7"/>
  <circle cx="410" cy="377.2" r="253.87199999999999" fill="#C23A26"/>
  <circle cx="410" cy="377.2" r="243.71711999999997" fill="url(#cheese)"/>
  <circle cx="461.2875408581601" cy="310.0566890786043" r="18.049091140218078" fill="#F7DE8E" opacity=".5"/><circle cx="560.7593003648527" cy="290.6347983080502" r="19.166460835011673" fill="#F7DE8E" opacity=".5"/><circle cx="470.78353164398027" cy="329.9266199930772" r="7.92297997268848" fill="#F7DE8E" opacity=".5"/><circle cx="484.26316731284214" cy="257.88828395001303" r="19.588109663100912" fill="#F7DE8E" opacity=".5"/><circle cx="483.1261276541943" cy="597.0279800851985" r="12.663860309841109" fill="#F7DE8E" opacity=".5"/><circle cx="533.9064531338172" cy="396.2312215925929" r="12.061931719891726" fill="#F7DE8E" opacity=".5"/><circle cx="334.13459524785685" cy="394.34063543910486" r="9.713952253181485" fill="#F7DE8E" opacity=".5"/><circle cx="245.94239935813502" cy="397.00726200656703" r="9.632561917724086" fill="#F7DE8E" opacity=".5"/><circle cx="305.5127924435735" cy="325.0123789153415" r="19.783014472872015" fill="#F7DE8E" opacity=".5"/><circle cx="344.0169170015683" cy="250.9721651302707" r="10.628291196310892" fill="#F7DE8E" opacity=".5"/><circle cx="612.7971484485747" cy="489.65978056564177" r="13.838902523405848" fill="#F7DE8E" opacity=".5"/><circle cx="258.2009795355169" cy="337.73922599025394" r="20.179178253784773" fill="#F7DE8E" opacity=".5"/><circle cx="383.09778148062503" cy="321.0251529942967" r="18.96043404514901" fill="#F7DE8E" opacity=".5"/><circle cx="310.7188494455673" cy="572.1803268613808" r="18.451877689054232" fill="#F7DE8E" opacity=".5"/><circle cx="622.4958969656816" cy="316.6712060813784" r="14.845865477817132" fill="#F7DE8E" opacity=".5"/><circle cx="427.898726567523" cy="458.3002475325614" r="20.570855744071302" fill="#F7DE8E" opacity=".5"/><circle cx="394.34570008189917" cy="344.9929855113393" r="16.931770581649616" fill="#F7DE8E" opacity=".5"/><circle cx="460.2906240269124" cy="330.4370413596835" r="8.050643583526833" fill="#F7DE8E" opacity=".5"/><circle cx="401.98818188680644" cy="353.0088542126757" r="21.830458060735833" fill="#F7DE8E" opacity=".5"/><circle cx="321.4454188367229" cy="397.2752360928048" r="19.425416673095896" fill="#F7DE8E" opacity=".5"/><circle cx="604.0736350091094" cy="374.8128958556732" r="21.90082428990863" fill="#F7DE8E" opacity=".5"/><circle cx="392.0333235437747" cy="401.82862804158503" r="11.29759923881851" fill="#F7DE8E" opacity=".5"/><circle cx="417.2371865819762" cy="392.6571841142895" r="17.259178834520277" fill="#F7DE8E" opacity=".5"/><circle cx="371.97669634417264" cy="376.03441378988737" r="18.336674719741566" fill="#F7DE8E" opacity=".5"/><circle cx="329.19553770206073" cy="434.2675872069923" r="14.716897478559984" fill="#F7DE8E" opacity=".5"/><circle cx="563.9297349703011" cy="482.42587959108795" r="15.989740664195267" fill="#F7DE8E" opacity=".5"/>
  <path d="M462.9988732314357 390.7817583273466 q 15.8731373433955 -22.2223922807537 31.746274686791 0 q 15.8731373433955 22.2223922807537 31.746274686791 0" stroke="#B65A4B" stroke-width="15.8731373433955" fill="none" stroke-linecap="round"/><path d="M462.9988732314357 390.7817583273466 q 15.8731373433955 -22.2223922807537 31.746274686791 0 q 15.8731373433955 22.2223922807537 31.746274686791 0" stroke="#E8A48F" stroke-width="5.71432944362238" fill="none" stroke-linecap="round"/><path d="M265.4650812449643 467.778182982381 q 19.813433445878328 -27.73880682422966 39.626866891756656 0 q 19.813433445878328 27.73880682422966 39.626866891756656 0" stroke="#B65A4B" stroke-width="19.813433445878328" fill="none" stroke-linecap="round"/><path d="M265.4650812449643 467.778182982381 q 19.813433445878328 -27.73880682422966 39.626866891756656 0 q 19.813433445878328 27.73880682422966 39.626866891756656 0" stroke="#E8A48F" stroke-width="7.132836040516198" fill="none" stroke-linecap="round"/><path d="M441.55243861939914 180.9621976727767 q 22.065877746641636 -30.892228845298288 44.13175549328327 0 q 22.065877746641636 30.892228845298288 44.13175549328327 0" stroke="#B65A4B" stroke-width="22.065877746641636" fill="none" stroke-linecap="round"/><path d="M441.55243861939914 180.9621976727767 q 22.065877746641636 -30.892228845298288 44.13175549328327 0 q 22.065877746641636 30.892228845298288 44.13175549328327 0" stroke="#E8A48F" stroke-width="7.943715988790989" fill="none" stroke-linecap="round"/><path d="M408.00480637682233 456.88607644731064 q 22.132256248793563 -30.985158748310987 44.26451249758713 0 q 22.132256248793563 30.985158748310987 44.26451249758713 0" stroke="#B65A4B" stroke-width="22.132256248793563" fill="none" stroke-linecap="round"/><path d="M408.00480637682233 456.88607644731064 q 22.132256248793563 -30.985158748310987 44.26451249758713 0 q 22.132256248793563 30.985158748310987 44.26451249758713 0" stroke="#E8A48F" stroke-width="7.967612249565683" fill="none" stroke-linecap="round"/><path d="M253.63466780869751 292.8665374991445 q 17.208836196153424 -24.09237067461479 34.41767239230685 0 q 17.208836196153424 24.09237067461479 34.41767239230685 0" stroke="#B65A4B" stroke-width="17.208836196153424" fill="none" stroke-linecap="round"/><path d="M253.63466780869751 292.8665374991445 q 17.208836196153424 -24.09237067461479 34.41767239230685 0 q 17.208836196153424 24.09237067461479 34.41767239230685 0" stroke="#E8A48F" stroke-width="6.195181030615233" fill="none" stroke-linecap="round"/><path d="M572.5240256417619 325.5284575756638 q 16.464361154101788 -23.050105615742503 32.928722308203575 0 q 16.464361154101788 23.050105615742503 32.928722308203575 0" stroke="#B65A4B" stroke-width="16.464361154101788" fill="none" stroke-linecap="round"/><path d="M572.5240256417619 325.5284575756638 q 16.464361154101788 -23.050105615742503 32.928722308203575 0 q 16.464361154101788 23.050105615742503 32.928722308203575 0" stroke="#E8A48F" stroke-width="5.927170015476643" fill="none" stroke-linecap="round"/><path d="M343.15629697278 466.11395714122546 q 20.516555142905563 -28.723177200067788 41.03311028581113 0 q 20.516555142905563 28.723177200067788 41.03311028581113 0" stroke="#B65A4B" stroke-width="20.516555142905563" fill="none" stroke-linecap="round"/><path d="M343.15629697278 466.11395714122546 q 20.516555142905563 -28.723177200067788 41.03311028581113 0 q 20.516555142905563 28.723177200067788 41.03311028581113 0" stroke="#E8A48F" stroke-width="7.385959851446002" fill="none" stroke-linecap="round"/><circle cx="375.5729687232712" cy="229.33799756957956" r="34.88558547131717" fill="#FBE9A8" opacity=".9"/><circle cx="575.2403336758852" cy="490.031670231753" r="37.20779231093824" fill="#FBE9A8" opacity=".9"/><circle cx="314.87945530836475" cy="390.47504353208603" r="44.64639211529866" fill="#FBE9A8" opacity=".9"/><circle cx="514.582401393762" cy="264.19825225313485" r="38.88887843454256" fill="#FBE9A8" opacity=".9"/><circle cx="383.95109161542246" cy="578.980161970829" r="35.25488584424369" fill="#FBE9A8" opacity=".9"/>
  </svg>