<svg xmlns="http://www.w3.org/2000/svg" viewBox="0 0 820 754.4" width="820" height="754.4">
  <defs>
    <radialGradient id="plateBg" cx="50%" cy="42%" r="75%"><stop offset="0%" stop-color="#FBF1DF"/><stop offset="70%" stop-color="#F3E2C4"/><stop offset="100%" stop-color="#E7Cfa1"/></radialGradient>
    <radialGradient id="crust" cx="50%" cy="46%" r="55%"><stop offset="60%" stop-color="#F0C079"/><stop offset="88%" stop-color="#D89B4C"/><stop offset="100%" stop-color="#B97C34"/></radialGradient>
    <radialGradient id="cheese" cx="50%" cy="46%" r="55%"><stop offset="0%" stop-color="#F8DC83"/><stop offset="100%" stop-color="#F4CF6E"/></radialGradient>
    <radialGradient id="pepShine" cx="38%" cy="34%" r="60%"><stop offset="0%" stop-color="#E76B5A"/><stop offset="100%" stop-color="#C0392B" stop-opacity="0"/></radialGradient>
  </defs>
  <rect x="0" y="0" width="820" height="754.4" rx="40" fill="url(#plateBg)"/><ellipse cx="410" cy="406.71999999999997" rx="330.624" ry="318.81600000000003" fill="#000" opacity=".10"/>
  <circle cx="410" cy="377.2" r="295.2" fill="url(#crust)"/>
  <circle cx="696.344" cy="377.2" r="10.091917340397835" fill="#D49A4E" opacity=".7"/><circle cx="693.6796757806042" cy="416.17085943382955" r="12.752706220574678" fill="#D49A4E" opacity=".7"/><circle cx="685.7362842105209" cy="454.4165002170834" r="7.043104302227497" fill="#E8B774" opacity=".7"/><circle cx="672.6616458869642" cy="491.22519947779546" r="14.594181214772165" fill="#E8B774" opacity=".7"/><circle cx="654.6990700851085" cy="525.9119747548366" r="6.454707468297332" fill="#D49A4E" opacity=".7"/><circle cx="632.1828269538072" cy="557.8313310110252" r="14.850815649736674" fill="#E8B774" opacity=".7"/><circle cx="605.5319269972408" cy="586.3892728147065" r="10.78379037238285" fill="#E8B774" opacity=".7"/><circle cx="575.2423236017065" cy="611.0543581520534" r="10.057570596668869" fill="#D49A4E" opacity=".7"/><circle cx="541.8776837127151" cy="631.3675881668808" r="7.186093555983156" fill="#D49A4E" opacity=".7"/><circle cx="506.05889841321306" cy="646.9509487872842" r="10.003184853080661" fill="#E8B774" opacity=".7"/><circle cx="468.4525286032565" cy="657.5144452857994" r="15.513235064741224" fill="#D49A4E" opacity=".7"/><circle cx="429.7584007984225" cy="662.8614988651584" r="8.74035707097128" fill="#D49A4E" opacity=".7"/><circle cx="390.6965838799087" cy="662.8926048432031" r="7.2432928347364065" fill="#D49A4E" opacity=".7"/><circle cx="351.9939891492936" cy="657.6071843608643" r="8.049183701533824" fill="#D49A4E" opacity=".7"/><circle cx="314.37084305095345" cy="647.103595154297" r="13.92975326062739" fill="#E8B774" opacity=".7"/><circle cx="278.52728429468976" cy="631.5773011907129" r="10.588195828344674" fill="#E8B774" opacity=".7"/><circle cx="245.1303347961258" cy="611.3172352296226" r="8.893184674490243" fill="#D49A4E" opacity=".7"/><circle cx="214.80148689596354" cy="586.7004219995113" r="11.788190468396992" fill="#D49A4E" opacity=".7"/><circle cx="188.10513785069696" cy="558.1849620486238" r="12.887854334447534" fill="#D49A4E" opacity=".7"/><circle cx="165.53808682029296" cy="526.3015068351671" r="12.055961169317365" fill="#E8B774" opacity=".7"/><circle cx="147.520289806069" cy="491.6433836991462" r="9.837196331486105" fill="#D49A4E" opacity=".7"/><circle cx="134.3870445824864" cy="454.8555544827519" r="8.912319551311432" fill="#E8B774" opacity=".7"/><circle cx="126.38275105545148" cy="416.62261327114174" r="5.971530312705784" fill="#E8B774" opacity=".7"/><circle cx="123.65636316220946" cy="377.6560466067185" r="7.146579856496304" fill="#E8B774" opacity=".7"/><circle cx="126.25861694958093" cy="338.68099325481825" r="10.71500783854723" fill="#E8B774" opacity=".7"/><circle cx="134.14108641394307" cy="300.42274991170643" r="9.029603493712843" fill="#D49A4E" opacity=".7"/><circle cx="147.15708467306644" cy="263.59327397359596" r="8.592503486718982" fill="#E8B774" opacity=".7"/><circle cx="165.06439369967342" cy="228.87793454009812" r="14.242754978254439" fill="#D49A4E" opacity=".7"/><circle cx="187.52977181840984" cy="196.9227582060586" r="9.733284510221331" fill="#E8B774" opacity=".7"/><circle cx="214.13515508507135" cy="168.32240698808562" r="8.832813010565935" fill="#E8B774" opacity=".7"/><circle cx="244.38543714503766" cy="143.6091121076001" r="9.589412344001234" fill="#D49A4E" opacity=".7"/><circle cx="277.717682793549" cy="123.24276956445627" r="9.231825246881693" fill="#D49A4E" opacity=".7"/><circle cx="313.5116037803311" cy="107.60238181512773" r="12.11633861586079" fill="#E8B774" opacity=".7"/><circle cx="351.101101911658" cy="96.97900481944771" r="13.857342854976654" fill="#E8B774" opacity=".7"/><circle cx="389.7866646413174" cy="91.57033170611032" r="11.032120602015407" fill="#E8B774" opacity=".7"/><circle cx="428.848382477778" cy="91.47701385087794" r="9.418807065445929" fill="#D49A4E" opacity=".7"/><circle cx="467.5593459633042" cy="96.7007878294902" r="11.897156051337719" fill="#E8B774" opacity=".7"/><circle cx="505.19917291722754" cy="107.14444310128368" r="9.353758742675184" fill="#D49A4E" opacity=".7"/><circle cx="541.0674142114563" cy="122.61363102490631" r="6.639770520363003" fill="#D49A4E" opacity=".7"/><circle cx="574.4965886067299" cy="142.8204815416922" r="6.251583578433841" fill="#D49A4E" opacity=".7"/><circle cx="604.8646040810353" cy="167.38896022291547" r="8.95070320238918" fill="#D49A4E" opacity=".7"/><circle cx="631.6063344985132" cy="195.86186599026365" r="8.306789137680083" fill="#D49A4E" opacity=".7"/><circle cx="654.2241361856811" cy="227.709339287172" r="12.000322201117873" fill="#D49A4E" opacity=".7"/><circle cx="672.2971087093221" cy="262.33872237028675" r="10.349326451584698" fill="#E8B774" opacity=".7"/><circle cx="685.4889275198641" cy="299.1055882283821" r="12.566080993037671" fill="#E8B774" opacity=".7"/><circle cx="693.5541027006005" cy="337.3257328887756" r="11.744704508218915" fill="#D49A4E" opacity=".7"/>
  <circle cx="410" cy="377.2" r="253.87199999999999" fill="#C23A26"/>
  <circle cx="410" cy="377.2" r="243.71711999999997" fill="url(#cheese)"/>
  <circle cx="453.1057882304359" cy="262.08076284008916" r="22.014967651544136" fill="#F7DE8E" opacity=".5"/><circle cx="409.42169482149126" cy="379.42156630012033" r="19.080603079190475" fill="#F7DE8E" opacity=".5"/><circle cx="414.9218617365685" cy="383.8330478215333" r="13.39421461354941" fill="#F7DE8E" opacity=".5"/><circle cx="600.6486032204534" cy="391.44074877546456" r="14.372272755671291" fill="#F7DE8E" opacity=".5"/><circle cx="543.4494520255837" cy="454.7937897123868" r="12.675765490019693" fill="#F7DE8E" opacity=".5"/><circle cx="451.921029705117" cy="404.8729240159654" r="8.788858157414941" fill="#F7DE8E" opacity=".5"/><circle cx="400.469282249759" cy="566.6035320086963" r="19.25404184684157" fill="#F7DE8E" opacity=".5"/><circle cx="474.59253072100705" cy="476.5504476658242" r="21.449311118507755" fill="#F7DE8E" opacity=".5"/><circle cx="219.53766474390494" cy="362.35017959197677" r="16.264282747954127" fill="#F7DE8E" opacity=".5"/><circle cx="356.42809060234345" cy="368.67024523541704" r="7.525744844740256" fill="#F7DE8E" opacity=".5"/><circle cx="414.133189741274" cy="421.9097521088161" r="14.269977915314955" fill="#F7DE8E" opacity=".5"/><circle cx="380.5917105508958" cy="200.65289848289248" r="18.673326404504476" fill="#F7DE8E" opacity=".5"/><circle cx="450.2119163970127" cy="397.86987118648835" r="18.907590059163045" fill="#F7DE8E" opacity=".5"/><circle cx="340.0723735258466" cy="483.7570543086956" r="14.401561059392987" fill="#F7DE8E" opacity=".5"/><circle cx="624.5368921835498" cy="400.43253633643064" r="10.739804422762244" fill="#F7DE8E" opacity=".5"/><circle cx="273.37140285422987" cy="503.64996017764304" r="9.181974162412805" fill="#F7DE8E" opacity=".5"/><circle cx="444.1212783383137" cy="168.3695623867037" r="19.365039156675337" fill="#F7DE8E" opacity=".5"/><circle cx="360.8092672318502" cy="420.9438494767988" r="16.795715346895157" fill="#F7DE8E" opacity=".5"/><circle cx="564.6001964009419" cy="310.9971331886443" r="7.616686196336522" fill="#F7DE8E" opacity=".5"/><circle cx="394.2457922724148" cy="369.89590536643175" r="13.215300988582893" fill="#F7DE8E" opacity=".5"/><circle cx="515.1346870513801" cy="332.4384527845006" r="16.769434257131067" fill="#F7DE8E" opacity=".5"/><circle cx="289.7416950480456" cy="502.38610552503" r="13.58280371384695" fill="#F7DE8E" opacity=".5"/><circle cx="636.7008657221943" cy="332.93791669535716" r="20.207174465171992" fill="#F7DE8E" opacity=".5"/><circle cx="352.62658190947855" cy="338.8300481008538" r="13.70138331231661" fill="#F7DE8E" opacity=".5"/><circle cx="276.5987740475655" cy="388.1007129619249" r="20.590714476965363" fill="#F7DE8E" opacity=".5"/><circle cx="376.30782508148945" cy="234.49546691200905" r="15.703532465966417" fill="#F7DE8E" opacity=".5"/>
  <g><ellipse cx="490.6208898702204" cy="412.6618560292682" rx="33.67288410424254" ry="30.97905337590314" fill="#7E241C" opacity=".25"/><circle cx="490.6208898702204" cy="406.60073689050455" r="33.67288410424254" fill="#C0392B"/><circle cx="490.6208898702204" cy="406.60073689050455" r="33.67288410424254" fill="url(#pepShine)" opacity=".5"/><circle cx="489.81281792241407" cy="401.69693245737625" r="5.387661456678806" fill="#8E2B22"/><circle cx="501.0208259655167" cy="411.8142994946415" r="5.387661456678806" fill="#8E2B22"/><circle cx="493.41056740819204" cy="398.8808109737846" r="5.387661456678806" fill="#8E2B22"/><circle cx="482.13639126804435" cy="408.07200791478385" r="5.387661456678806" fill="#8E2B22"/><circle cx="492.989872746949" cy="399.3359390723329" r="5.387661456678806" fill="#8E2B22"/></g><g><ellipse cx="276.5186918996932" cy="442.61398173187763" rx="34.49272690398618" ry="31.733308751667288" fill="#7E241C" opacity=".25"/><circle cx="276.5186918996932" cy="436.40529088916014" r="34.49272690398618" fill="#C0392B"/><circle cx="276.5186918996932" cy="436.40529088916014" r="34.49272690398618" fill="url(#pepShine)" opacity=".5"/><circle cx="281.5163612816135" cy="434.77437808380455" r="5.518836304637789" fill="#8E2B22"/><circle cx="279.3982494059748" cy="435.0951785111071" r="5.518836304637789" fill="#8E2B22"/><circle cx="279.4177050794864" cy="438.7178587850366" r="5.518836304637789" fill="#8E2B22"/><circle cx="271.88854822855427" cy="437.1408904179493" r="5.518836304637789" fill="#8E2B22"/><circle cx="272.65806786655463" cy="433.35691380634495" r="5.518836304637789" fill="#8E2B22"/></g><g><ellipse cx="504.97563422666354" cy="206.26118924000374" rx="40.552371796332295" ry="37.30818205262571" fill="#7E241C" opacity=".25"/><circle cx="504.97563422666354" cy="198.96176231666394" r="40.552371796332295" fill="#C0392B"/><circle cx="504.97563422666354" cy="198.96176231666394" r="40.552371796332295" fill="url(#pepShine)" opacity=".5"/><circle cx="501.7693215620576" cy="196.24934115430725" r="6.488379487413168" fill="#8E2B22"/><circle cx="514.2463557808571" cy="201.8799709608336" r="6.488379487413168" fill="#8E2B22"/><circle cx="508.08604149748345" cy="197.2391374138838" r="6.488379487413168" fill="#8E2B22"/><circle cx="508.66895859146223" cy="200.96796759786923" r="6.488379487413168" fill="#8E2B22"/><circle cx="503.36733799405636" cy="212.76533224505692" r="6.488379487413168" fill="#8E2B22"/></g><g><ellipse cx="426.48955772196643" cy="462.9559552794897" rx="32.21198739560321" ry="29.635028403954955" fill="#7E241C" opacity=".25"/><circle cx="426.48955772196643" cy="457.1577975482811" r="32.21198739560321" fill="#C0392B"/><circle cx="426.48955772196643" cy="457.1577975482811" r="32.21198739560321" fill="url(#pepShine)" opacity=".5"/><circle cx="436.43065671669865" cy="468.4613525906588" r="5.153917983296513" fill="#8E2B22"/><circle cx="422.14692170859996" cy="454.59340431329565" r="5.153917983296513" fill="#8E2B22"/><circle cx="424.95122007666646" cy="441.55965681182477" r="5.153917983296513" fill="#8E2B22"/><circle cx="420.40771552097584" cy="469.00224065550117" r="5.153917983296513" fill="#8E2B22"/><circle cx="417.2153714383206" cy="464.8182768410303" r="5.153917983296513" fill="#8E2B22"/></g><g><ellipse cx="291.7820176893898" cy="289.94361426408614" rx="33.16548965938389" ry="30.512250486633178" fill="#7E241C" opacity=".25"/><circle cx="291.7820176893898" cy="283.973826125397" r="33.16548965938389" fill="#C0392B"/><circle cx="291.7820176893898" cy="283.973826125397" r="33.16548965938389" fill="url(#pepShine)" opacity=".5"/><circle cx="294.93570971730344" cy="291.04299550922843" r="5.306478345501422" fill="#8E2B22"/><circle cx="301.3256087314684" cy="279.12503742553804" r="5.306478345501422" fill="#8E2B22"/><circle cx="287.6063949425607" cy="275.4248965439795" r="5.306478345501422" fill="#8E2B22"/><circle cx="298.7782220724796" cy="273.9224168137738" r="5.306478345501422" fill="#8E2B22"/><circle cx="276.3561389144709" cy="283.55841877507214" r="5.306478345501422" fill="#8E2B22"/></g><g><ellipse cx="596.5957806933311" cy="293.04151732926124" rx="34.16027093667537" ry="31.42744926174134" fill="#7E241C" opacity=".25"/><circle cx="596.5957806933311" cy="286.8926685606597" r="34.16027093667537" fill="#C0392B"/><circle cx="596.5957806933311" cy="286.8926685606597" r="34.16027093667537" fill="url(#pepShine)" opacity=".5"/><circle cx="597.2657484552241" cy="287.311537768556" r="5.465643349868059" fill="#8E2B22"/><circle cx="594.9541992489114" cy="286.53461712341544" r="5.465643349868059" fill="#8E2B22"/><circle cx="588.7253481468441" cy="277.99952785401916" r="5.465643349868059" fill="#8E2B22"/><circle cx="595.3646069861474" cy="277.1320698091777" r="5.465643349868059" fill="#8E2B22"/><circle cx="596.6466827708414" cy="299.52909161131356" r="5.465643349868059" fill="#8E2B22"/></g><g><ellipse cx="353.9808742581115" cy="449.9350966661815" rx="37.318709599999714" ry="34.33321283199974" fill="#7E241C" opacity=".25"/><circle cx="353.9808742581115" cy="443.21772893818155" r="37.318709599999714" fill="#C0392B"/><circle cx="353.9808742581115" cy="443.21772893818155" r="37.318709599999714" fill="url(#pepShine)" opacity=".5"/><circle cx="354.08113995297447" cy="436.1357387241373" r="5.970993535999955" fill="#8E2B22"/><circle cx="352.6219111555311" cy="443.12124855078696" r="5.970993535999955" fill="#8E2B22"/><circle cx="355.74698900919753" cy="453.2293887423946" r="5.970993535999955" fill="#8E2B22"/><circle cx="345.093217959673" cy="446.6258413145177" r="5.970993535999955" fill="#8E2B22"/><circle cx="359.9244844578459" cy="451.9404492596933" r="5.970993535999955" fill="#8E2B22"/></g><g><ellipse cx="351.1896787627927" cy="248.76021173021448" rx="41.29805617958307" ry="37.99421168521643" fill="#7E241C" opacity=".25"/><circle cx="351.1896787627927" cy="241.32656161788952" r="41.29805617958307" fill="#C0392B"/><circle cx="351.1896787627927" cy="241.32656161788952" r="41.29805617958307" fill="url(#pepShine)" opacity=".5"/><circle cx="356.2832846780666" cy="225.89014699952736" r="6.607688988733291" fill="#8E2B22"/><circle cx="354.78723819754566" cy="228.22710165974536" r="6.607688988733291" fill="#8E2B22"/><circle cx="356.68032295002" cy="235.83802610499788" r="6.607688988733291" fill="#8E2B22"/><circle cx="361.70940837165426" cy="258.0789402315752" r="6.607688988733291" fill="#8E2B22"/><circle cx="370.053763824497" cy="238.8839831029438" r="6.607688988733291" fill="#8E2B22"/></g><g><ellipse cx="579.0811884285724" cy="501.15842794451015" rx="37.897853078339246" ry="34.86602483207211" fill="#7E241C" opacity=".25"/><circle cx="579.0811884285724" cy="494.3368143904091" r="37.897853078339246" fill="#C0392B"/><circle cx="579.0811884285724" cy="494.3368143904091" r="37.897853078339246" fill="url(#pepShine)" opacity=".5"/><circle cx="579.048116089332" cy="501.6258290095638" r="6.063656492534279" fill="#8E2B22"/><circle cx="581.8556573719374" cy="509.6184664181283" r="6.063656492534279" fill="#8E2B22"/><circle cx="585.7457159650645" cy="508.26823176065164" r="6.063656492534279" fill="#8E2B22"/><circle cx="571.7853449877189" cy="489.18399919749334" r="6.063656492534279" fill="#8E2B22"/><circle cx="581.1792388759708" cy="495.7730083651227" r="6.063656492534279" fill="#8E2B22"/></g><g><ellipse cx="309.7978378440438" cy="379.1820295086386" rx="40.491711652111256" ry="37.25237471994236" fill="#7E241C" opacity=".25"/><circle cx="309.7978378440438" cy="371.8935214112586" r="40.491711652111256" fill="#C0392B"/><circle cx="309.7978378440438" cy="371.8935214112586" r="40.491711652111256" fill="url(#pepShine)" opacity=".5"/><circle cx="305.07621248841633" cy="374.1879962227765" r="6.478673864337801" fill="#8E2B22"/><circle cx="318.2023217044549" cy="381.0834754221104" r="6.478673864337801" fill="#8E2B22"/><circle cx="311.9763485595612" cy="371.19443358958017" r="6.478673864337801" fill="#8E2B22"/><circle cx="307.6066430007376" cy="375.1694347361802" r="6.478673864337801" fill="#8E2B22"/><circle cx="304.70084721142223" cy="371.73251101530406" r="6.478673864337801" fill="#8E2B22"/></g><g><ellipse cx="494.6541082319054" cy="253.50683672451177" rx="39.218159163175144" ry="36.08070643012113" fill="#7E241C" opacity=".25"/><circle cx="494.6541082319054" cy="246.44756807514025" r="39.218159163175144" fill="#C0392B"/><circle cx="494.6541082319054" cy="246.44756807514025" r="39.218159163175144" fill="url(#pepShine)" opacity=".5"/><circle cx="483.31334193380525" cy="257.998360870394" r="6.274905466108024" fill="#8E2B22"/><circle cx="492.44913862259546" cy="241.93863659417397" r="6.274905466108024" fill="#8E2B22"/><circle cx="499.7423135034896" cy="264.16153339177697" r="6.274905466108024" fill="#8E2B22"/><circle cx="490.5668474644106" cy="237.0139080189367" r="6.274905466108024" fill="#8E2B22"/><circle cx="497.39194688867843" cy="252.39886729861223" r="6.274905466108024" fill="#8E2B22"/></g><g><ellipse cx="470.69049666730314" cy="584.2962190420383" rx="45.29734036501497" ry="41.67355313581377" fill="#7E241C" opacity=".25"/><circle cx="470.69049666730314" cy="576.1426977763356" r="45.29734036501497" fill="#C0392B"/><circle cx="470.69049666730314" cy="576.1426977763356" r="45.29734036501497" fill="url(#pepShine)" opacity=".5"/><circle cx="475.9995899390482" cy="574.8921310929318" r="7.247574458402395" fill="#8E2B22"/><circle cx="469.66602707566676" cy="593.9666903404141" r="7.247574458402395" fill="#8E2B22"/><circle cx="468.3185467314707" cy="581.685605937201" r="7.247574458402395" fill="#8E2B22"/><circle cx="462.39553556130295" cy="565.8192826649598" r="7.247574458402395" fill="#8E2B22"/><circle cx="469.4436420567716" cy="574.6528257754196" r="7.247574458402395" fill="#8E2B22"/></g>
  </svg>