<svg xmlns="http://www.w3.org/2000/svg" viewBox="0 0 820 754.4" width="820" height="754.4">
  <defs>
    <radialGradient id="plateBg" cx="50%" cy="42%" r="75%"><stop offset="0%" stop-color="#FBF1DF"/><stop offset="70%" stop-color="#F3E2C4"/><stop offset="100%" stop-color="#E7Cfa1"/></radialGradient>
    <radialGradient id="crust" cx="50%" cy="46%" r="55%"><stop offset="60%" stop-color="#F0C079"/><stop offset="88%" stop-color="#D89B4C"/><stop offset="100%" stop-color="#B97C34"/></radialGradient>
    <radialGradient id="cheese" cx="50%" cy="46%" r="55%"><stop offset="0%" stop-color="#F8DC83"/><stop offset="100%" stop-color="#F6E6C2"/></radialGradient>
    <radialGradient id="pepShine" cx="38%" cy="34%" r="60%"><stop offset="0%" stop-color="#E76B5A"/><stop offset="100%" stop-color="#C0392B" stop-opacity="0"/></radialGradient>
  </defs>
  <rect x="0" y="0" width="820" height="754.4" rx="40" fill="url(#plateBg)"/><ellipse cx="410" cy="406.71999999999997" rx="330.624" ry="318.81600000000003" fill="#000" opacity=".10"/>
  <circle cx="410" cy="377.2" r="295.2" fill="url(#crust)"/>
  <circle cx="696.344" cy="377.2" r="6.290119513548911" fill="#E8B774" opacity=".7"/><circle cx="693.6796757806042" cy="416.17085943382955" r="13.584210582464934" fill="#D49A4E" opacity=".7"/><circle cx="685.7362842105209" cy="454.4165002170834" r="8.612826098386197" fill="#D49A4E" opacity=".7"/><circle cx="672.6616458869642" cy="491.22519947779546" r="8.724613072514533" fill="#E8B774" opacity=".7"/><circle cx="654.6990700851085" cy="525.9119747548366" r="6.798045843668282" fill="#D49A4E" opacity=".7"/><circle cx="632.1828269538072" cy="557.8313310110252" r="7.948704694077372" fill="#E8B774" opacity=".7"/><circle cx="605.5319269972408" cy="586.3892728147065" r="6.649696743484586" fill="#E8B774" opacity=".7"/><circle cx="575.2423236017065" cy="611.0543581520534" r="15.342058237060906" fill="#D49A4E" opacity=".7"/><circle cx="541.8776837127151" cy="631.3675881668808" r="10.727756305128336" fill="#E8B774" opacity=".7"/><circle cx="506.05889841321306" cy="646.9509487872842" r="7.8548389019966125" fill="#D49A4E" opacity=".7"/><circle cx="468.4525286032565" cy="657.5144452857994" r="8.173181278478355" fill="#D49A4E" opacity=".7"/><circle cx="429.7584007984225" cy="662.8614988651584" r="10.539700651444495" fill="#D49A4E" opacity=".7"/><circle cx="390.6965838799087" cy="662.8926048432031" r="12.380595321781934" fill="#D49A4E" opacity=".7"/><circle cx="351.9939891492936" cy="657.6071843608643" r="10.846816279102118" fill="#E8B774" opacity=".7"/><circle cx="314.37084305095345" cy="647.103595154297" r="8.076679991293698" fill="#E8B774" opacity=".7"/><circle cx="278.52728429468976" cy="631.5773011907129" r="14.012056192584337" fill="#E8B774" opacity=".7"/><circle cx="245.1303347961258" cy="611.3172352296226" r="13.010218841560185" fill="#D49A4E" opacity=".7"/><circle cx="214.80148689596354" cy="586.7004219995113" r="7.058201941788196" fill="#E8B774" opacity=".7"/><circle cx="188.10513785069696" cy="558.1849620486238" r="6.724477143209428" fill="#D49A4E" opacity=".7"/><circle cx="165.53808682029296" cy="526.3015068351671" r="5.91132786828652" fill="#D49A4E" opacity=".7"/><circle cx="147.520289806069" cy="491.6433836991462" r="13.284139552652837" fill="#E8B774" opacity=".7"/><circle cx="134.3870445824864" cy="454.8555544827519" r="14.0670468040891" fill="#E8B774" opacity=".7"/><circle cx="126.38275105545148" cy="416.62261327114174" r="5.973730686340481" fill="#D49A4E" opacity=".7"/><circle cx="123.65636316220946" cy="377.6560466067185" r="14.186452947087586" fill="#D49A4E" opacity=".7"/><circle cx="126.25861694958093" cy="338.68099325481825" r="14.270560903899373" fill="#E8B774" opacity=".7"/><circle cx="134.14108641394307" cy="300.42274991170643" r="14.420514050848782" fill="#D49A4E" opacity=".7"/><circle cx="147.15708467306644" cy="263.59327397359596" r="9.257796089049428" fill="#D49A4E" opacity=".7"/><circle cx="165.06439369967342" cy="228.87793454009812" r="10.175690106913448" fill="#D49A4E" opacity=".7"/><circle cx="187.52977181840984" cy="196.9227582060586" r="14.17088642051071" fill="#E8B774" opacity=".7"/><circle cx="214.13515508507135" cy="168.32240698808562" r="9.203884105548262" fill="#E8B774" opacity=".7"/><circle cx="244.38543714503766" cy="143.6091121076001" r="12.949625900812448" fill="#D49A4E" opacity=".7"/><circle cx="277.717682793549" cy="123.24276956445627" r="12.713225580990315" fill="#E8B774" opacity=".7"/><circle cx="313.5116037803311" cy="107.60238181512773" r="11.768421109501274" fill="#E8B774" opacity=".7"/><circle cx="351.101101911658" cy="96.97900481944771" r="12.481565870191902" fill="#E8B774" opacity=".7"/><circle cx="389.7866646413174" cy="91.57033170611032" r="14.777953528515996" fill="#D49A4E" opacity=".7"/><circle cx="428.848382477778" cy="91.47701385087794" r="7.188423243552446" fill="#D49A4E" opacity=".7"/><circle cx="467.5593459633042" cy="96.7007878294902" r="15.148664646293968" fill="#D49A4E" opacity=".7"/><circle cx="505.19917291722754" cy="107.14444310128368" r="15.333106685388834" fill="#E8B774" opacity=".7"/><circle cx="541.0674142114563" cy="122.61363102490631" r="10.689360742863268" fill="#E8B774" opacity=".7"/><circle cx="574.4965886067299" cy="142.8204815416922" r="14.258864521175624" fill="#D49A4E" opacity=".7"/><circle cx="604.8646040810353" cy="167.38896022291547" r="8.969570142790674" fill="#D49A4E" opacity=".7"/><circle cx="631.6063344985132" cy="195.86186599026365" r="6.846246042843908" fill="#E8B774" opacity=".7"/><circle cx="654.2241361856811" cy="227.709339287172" r="7.150335234604776" fill="#E8B774" opacity=".7"/><circle cx="672.2971087093221" cy="262.33872237028675" r="7.835314672082662" fill="#D49A4E" opacity=".7"/><circle cx="685.4889275198641" cy="299.1055882283821" r="6.14441982891038" fill="#D49A4E" opacity=".7"/><circle cx="693.5541027006005" cy="337.3257328887756" r="15.304427474286408" fill="#D49A4E" opacity=".7"/>
  <circle cx="410" cy="377.2" r="253.87199999999999" fill="#7A4A2B"/>
  <circle cx="410" cy="377.2" r="243.71711999999997" fill="url(#cheese)"/>
  <circle cx="422.5038922395605" cy="356.7180805772068" r="11.194041970688849" fill="#F7DE8E" opacity=".5"/><circle cx="443.00969608336527" cy="306.59837577602394" r="9.795224408078937" fill="#F7DE8E" opacity=".5"/><circle cx="448.9644035473058" cy="298.7296662463408" r="8.939498726958409" fill="#F7DE8E" opacity=".5"/><circle cx="358.93668171745486" cy="164.7056189426481" r="19.929771132767197" fill="#F7DE8E" opacity=".5"/><circle cx="406.0134345873449" cy="252.32259288107633" r="8.861166002908721" fill="#F7DE8E" opacity=".5"/><circle cx="413.7007227737974" cy="354.9715742060644" r="17.97484105981886" fill="#F7DE8E" opacity=".5"/><circle cx="402.0270131218248" cy="513.4530757139021" r="17.393992267856373" fill="#F7DE8E" opacity=".5"/><circle cx="384.20465275934697" cy="377.8175527144682" r="21.38356738538481" fill="#F7DE8E" opacity=".5"/><circle cx="315.8321687861922" cy="286.2465806382486" r="20.66334588336758" fill="#F7DE8E" opacity=".5"/><circle cx="410.1136581906111" cy="365.22021031184784" r="17.80478696979582" fill="#F7DE8E" opacity=".5"/><circle cx="405.30113399946333" cy="282.54115917997433" r="8.220114111285655" fill="#F7DE8E" opacity=".5"/><circle cx="339.2435075522203" cy="232.11868049220155" r="13.476618760814889" fill="#F7DE8E" opacity=".5"/><circle cx="394.61494343730254" cy="296.1837832427612" r="17.281542435809968" fill="#F7DE8E" opacity=".5"/><circle cx="400.63230603198997" cy="389.91670845372664" r="16.845436807908115" fill="#F7DE8E" opacity=".5"/><circle cx="403.9549954373525" cy="292.5468080433782" r="15.127128426684065" fill="#F7DE8E" opacity=".5"/><circle cx="351.0079393571308" cy="555.9689450884326" r="17.84898689785972" fill="#F7DE8E" opacity=".5"/><circle cx="510.7353408001711" cy="549.260032086353" r="10.893596326131371" fill="#F7DE8E" opacity=".5"/><circle cx="310.0226672245505" cy="256.74485592606703" r="12.77636661521159" fill="#F7DE8E" opacity=".5"/><circle cx="427.5481134360152" cy="454.98716640484844" r="8.715633336072786" fill="#F7DE8E" opacity=".5"/><circle cx="312.46819184411373" cy="423.56304164992343" r="17.624830930363384" fill="#F7DE8E" opacity=".5"/><circle cx="405.73318833980306" cy="332.4090741626286" r="15.688474374571813" fill="#F7DE8E" opacity=".5"/><circle cx="586.5610111555812" cy="423.3558996901051" r="12.951334688588975" fill="#F7DE8E" opacity=".5"/><circle cx="478.0570404224269" cy="529.2438598708466" r="16.309886072315273" fill="#F7DE8E" opacity=".5"/><circle cx="367.98865312334897" cy="247.28353347891576" r="10.731866671442985" fill="#F7DE8E" opacity=".5"/><circle cx="388.6139213593807" cy="256.7207686253566" r="15.764137676451353" fill="#F7DE8E" opacity=".5"/><circle cx="450.975555120914" cy="453.7121941369064" r="15.512217621384186" fill="#F7DE8E" opacity=".5"/>
  <path d="M459.1400918616562 413.8792903147108 q 16.694716040264815 2.8333801654666733 20.868395050331017 0 q 16.694716040264815 10.807463918781034 20.868395050331017 0 q 16.694716040264815 -6.466255457681682 20.868395050331017 0 q 16.694716040264815 -15.748126067124947 20.868395050331017 0" stroke="#5A3A22" stroke-width="9.182093822145648" fill="none" stroke-linecap="round"/><path d="M223.22850839368962 438.2305836847752 q 16.820641270704566 -14.835487239515404 21.025801588380705 0 q 16.820641270704566 10.521231520088712 21.025801588380705 0 q 16.820641270704566 -14.34080998224847 21.025801588380705 0 q 16.820641270704566 8.306544319217641 21.025801588380705 0" stroke="#5A3A22" stroke-width="9.25135269888751" fill="none" stroke-linecap="round"/><path d="M434.50455495521203 190.2698155933307 q 16.010520039081573 -3.649419921727844 20.013150048851966 0 q 16.010520039081573 5.023250946814193 20.013150048851966 0 q 16.010520039081573 -13.465542889687738 20.013150048851966 0 q 16.010520039081573 4.838347835896298 20.013150048851966 0" stroke="#5A3A22" stroke-width="8.805786021494866" fill="none" stroke-linecap="round"/><path d="M387.79108572606344 472.26051420784836 q 16.653763756189495 -0.32974748881704924 20.817204695236867 0 q 16.653763756189495 -7.283096900255196 20.817204695236867 0 q 16.653763756189495 -9.802029934753955 20.817204695236867 0 q 16.653763756189495 10.355855870114318 20.817204695236867 0" stroke="#5A3A22" stroke-width="9.159570065904221" fill="none" stroke-linecap="round"/><path d="M237.79279467291386 341.66061171679206 q 15.08297545124218 -8.70216726361508 18.853719314052725 0 q 15.08297545124218 -8.379467268265397 18.853719314052725 0 q 15.08297545124218 2.2048952786870744 18.853719314052725 0 q 15.08297545124218 5.41360905714412 18.853719314052725 0" stroke="#5A3A22" stroke-width="8.2956364981832" fill="none" stroke-linecap="round"/><g transform="translate(602.9821993931454 350.6163987578585)"><path d="M0 -29.93985238254256 C 42.77121768934652 -42.77121768934652, 42.77121768934652 17.10848707573861, 0 42.77121768934652 C -42.77121768934652 17.10848707573861, -42.77121768934652 -42.77121768934652, 0 -29.93985238254256 Z" fill="#E1382F"/><path d="M-21.38560884467326 -29.93985238254256 L0 -17.10848707573861 L21.38560884467326 -29.93985238254256" fill="#3C7A2E"/></g><g transform="translate(382.1902174145452 468.53458499902956)"><path d="M0 -23.540979276778174 C 33.62997039539739 -33.62997039539739, 33.62997039539739 13.451988158158958, 0 33.62997039539739 C -33.62997039539739 13.451988158158958, -33.62997039539739 -33.62997039539739, 0 -23.540979276778174 Z" fill="#E1382F"/><path d="M-16.814985197698697 -23.540979276778174 L0 -13.451988158158958 L16.814985197698697 -23.540979276778174" fill="#3C7A2E"/></g><g transform="translate(383.37490676731926 239.22359609853643)"><path d="M0 -22.028005464325656 C 31.46857923475094 -31.46857923475094, 31.46857923475094 12.587431693900378, 0 31.46857923475094 C -31.46857923475094 12.587431693900378, -31.46857923475094 -31.46857923475094, 0 -22.028005464325656 Z" fill="#E1382F"/><path d="M-15.73428961737547 -22.028005464325656 L0 -12.587431693900378 L15.73428961737547 -22.028005464325656" fill="#3C7A2E"/></g><g transform="translate(596.3870389602572 460.2652144122433)"><path d="M0 -27.833748913396143 C 39.76249844770878 -39.76249844770878, 39.76249844770878 15.904999379083513, 0 39.76249844770878 C -39.76249844770878 15.904999379083513, -39.76249844770878 -39.76249844770878, 0 -27.833748913396143 Z" fill="#E1382F"/><path d="M-19.88124922385439 -27.833748913396143 L0 -15.904999379083513 L19.88124922385439 -27.833748913396143" fill="#3C7A2E"/></g><g transform="translate(322.16766420095894 386.74972911852956)"><path d="M0 -30.331367234948093 C 43.33052462135442 -43.33052462135442, 43.33052462135442 17.33220984854177, 0 43.33052462135442 C -43.33052462135442 17.33220984854177, -43.33052462135442 -43.33052462135442, 0 -30.331367234948093 Z" fill="#E1382F"/><path d="M-21.66526231067721 -30.331367234948093 L0 -17.33220984854177 L21.66526231067721 -30.331367234948093" fill="#3C7A2E"/></g><g transform="translate(527.3234835445645 279.42081310712433)"><path d="M0 -32.050048911270686 C 45.78578415895812 -45.78578415895812, 45.78578415895812 18.31431366358325, 0 45.78578415895812 C -45.78578415895812 18.31431366358325, -45.78578415895812 -45.78578415895812, 0 -32.050048911270686 Z" fill="#E1382F"/><path d="M-22.89289207947906 -32.050048911270686 L0 -18.31431366358325 L22.89289207947906 -32.050048911270686" fill="#3C7A2E"/></g><g transform="translate(397.79844314173715 577.4448297125324)"><path d="M0 -28.87388315364439 C 41.248404505206274 -41.248404505206274, 41.248404505206274 16.49936180208251, 0 41.248404505206274 C -41.248404505206274 16.49936180208251, -41.248404505206274 -41.248404505206274, 0 -28.87388315364439 Z" fill="#E1382F"/><path d="M-20.624202252603137 -28.87388315364439 L0 -16.49936180208251 L20.624202252603137 -28.87388315364439" fill="#3C7A2E"/></g>
  </svg>