<svg xmlns="http://www.w3.org/2000/svg" viewBox="0 0 820 754.4" width="820" height="754.4">
  <defs>
    <radialGradient id="plateBg" cx="50%" cy="42%" r="75%"><stop offset="0%" stop-color="#FBF1DF"/><stop offset="70%" stop-color="#F3E2C4"/><stop offset="100%" stop-color="#E7Cfa1"/></radialGradient>
    <radialGradient id="crust" cx="50%" cy="46%" r="55%"><stop offset="60%" stop-color="#F0C079"/><stop offset="88%" stop-color="#D89B4C"/><stop offset="100%" stop-color="#B97C34"/></radialGradient>
    <radialGradient id="cheese" cx="50%" cy="46%" r="55%"><stop offset="0%" stop-color="#F8DC83"/><stop offset="100%" stop-color="#F4CF6E"/></radialGradient>
    <radialGradient id="pepShine" cx="38%" cy="34%" r="60%"><stop offset="0%" stop-color="#E76B5A"/><stop offset="100%" stop-color="#C0392B" stop-opacity="0"/></radialGradient>
  </defs>
  <rect x="0" y="0" width="820" height="754.4" rx="40" fill="url(#plateBg)"/><ellipse cx="410" cy="406.71999999999997" rx="330.624" ry="318.81600000000003" fill="#000" opacity=".10"/>
  <circle cx="410" cy="377.2" r="295.2" fill="url(#crust)"/>
  <circle cx="696.344" cy="377.2" r="15.646724176347256" fill="#E8B774" opacity=".7"/><circle cx="693.6796757806042" cy="416.17085943382955" r="6.8895282229743895" fill="#D49A4E" opacity=".7"/><circle cx="685.7362842105209" cy="454.4165002170834" r="15.725226381082088" fill="#E8B774" opacity=".7"/><circle cx="672.6616458869642" cy="491.22519947779546" r="9.959976838935168" fill="#D49A4E" opacity=".7"/><circle cx="654.6990700851085" cy="525.9119747548366" r="7.669291117988527" fill="#E8B774" opacity=".7"/><circle cx="632.1828269538072" cy="557.8313310110252" r="12.926826483864337" fill="#D49A4E" opacity=".7"/><circle cx="605.5319269972408" cy="586.3892728147065" r="10.918351080749185" fill="#E8B774" opacity=".7"/><circle cx="575.2423236017065" cy="611.0543581520534" r="6.811311889026314" fill="#D49A4E" opacity=".7"/><circle cx="541.8776837127151" cy="631.3675881668808" r="13.152282686099412" fill="#D49A4E" opacity=".7"/><circle cx="506.05889841321306" cy="646.9509487872842" r="14.714460769236089" fill="#E8B774" opacity=".7"/><circle cx="468.4525286032565" cy="657.5144452857994" r="12.518420641679317" fill="#D49A4E" opacity=".7"/><circle cx="429.7584007984225" cy="662.8614988651584" r="11.749308242831379" fill="#D49A4E" opacity=".7"/><circle cx="390.6965838799087" cy="662.8926048432031" r="10.128920526333154" fill="#D49A4E" opacity=".7"/><circle cx="351.9939891492936" cy="657.6071843608643" r="13.251834371309728" fill="#E8B774" opacity=".7"/><circle cx="314.37084305095345" cy="647.103595154297" r="12.151170746773483" fill="#E8B774" opacity=".7"/><circle cx="278.52728429468976" cy="631.5773011907129" r="8.266278559561819" fill="#D49A4E" opacity=".7"/><circle cx="245.1303347961258" cy="611.3172352296226" r="12.339732773691416" fill="#E8B774" opacity=".7"/><circle cx="214.80148689596354" cy="586.7004219995113" r="10.780461263112725" fill="#D49A4E" opacity=".7"/><circle cx="188.10513785069696" cy="558.1849620486238" r="8.409155107229948" fill="#D49A4E" opacity=".7"/><circle cx="165.53808682029296" cy="526.3015068351671" r="10.711136402539909" fill="#E8B774" opacity=".7"/><circle cx="147.520289806069" cy="491.6433836991462" r="6.771083983384073" fill="#D49A4E" opacity=".7"/><circle cx="134.3870445824864" cy="454.8555544827519" r="13.427635447695852" fill="#E8B774" opacity=".7"/><circle cx="126.38275105545148" cy="416.62261327114174" r="13.128463665559888" fill="#D49A4E" opacity=".7"/><circle cx="123.65636316220946" cy="377.6560466067185" r="14.105852476391942" fill="#D49A4E" opacity=".7"/><circle cx="126.25861694958093" cy="338.68099325481825" r="15.505469483803958" fill="#D49A4E" opacity=".7"/><circle cx="134.14108641394307" cy="300.42274991170643" r="8.010733053177594" fill="#E8B774" opacity=".7"/><circle cx="147.15708467306644" cy="263.59327397359596" r="15.419106475073844" fill="#E8B774" opacity=".7"/><circle cx="165.06439369967342" cy="228.87793454009812" r="11.478145123958589" fill="#E8B774" opacity=".7"/><circle cx="187.52977181840984" cy="196.9227582060586" r="7.950341413557529" fill="#E8B774" opacity=".7"/><circle cx="214.13515508507135" cy="168.32240698808562" r="12.651292513679714" fill="#D49A4E" opacity=".7"/><circle cx="244.38543714503766" cy="143.6091121076001" r="7.2389369921162725" fill="#D49A4E" opacity=".7"/><circle cx="277.717682793549" cy="123.24276956445627" r="14.796208622451871" fill="#E8B774" opacity=".7"/><circle cx="313.5116037803311" cy="107.60238181512773" r="12.05241773428023" fill="#D49A4E" opacity=".7"/><circle cx="351.101101911658" cy="96.97900481944771" r="13.286763464190066" fill="#D49A4E" opacity=".7"/><circle cx="389.7866646413174" cy="91.57033170611032" r="14.403325898252428" fill="#E8B774" opacity=".7"/><circle cx="428.848382477778" cy="91.47701385087794" r="13.858091587308795" fill="#D49A4E" opacity=".7"/><circle cx="467.5593459633042" cy="96.7007878294902" r="6.387879111483693" fill="#D49A4E" opacity=".7"/><circle cx="505.19917291722754" cy="107.14444310128368" r="7.011963860426098" fill="#D49A4E" opacity=".7"/><circle cx="541.0674142114563" cy="122.61363102490631" r="9.693576783701777" fill="#D49A4E" opacity=".7"/><circle cx="574.4965886067299" cy="142.8204815416922" r="9.663301771335304" fill="#D49A4E" opacity=".7"/><circle cx="604.8646040810353" cy="167.38896022291547" r="6.219759710781276" fill="#D49A4E" opacity=".7"/><circle cx="631.6063344985132" cy="195.86186599026365" r="6.775774503104389" fill="#D49A4E" opacity=".7"/><circle cx="654.2241361856811" cy="227.709339287172" r="8.26201570393145" fill="#D49A4E" opacity=".7"/><circle cx="672.2971087093221" cy="262.33872237028675" r="6.081837932948023" fill="#E8B774" opacity=".7"/><circle cx="685.4889275198641" cy="299.1055882283821" r="11.229824319720269" fill="#E8B774" opacity=".7"/><circle cx="693.5541027006005" cy="337.3257328887756" r="12.897576981425287" fill="#D49A4E" opacity=".7"/>
  <circle cx="410" cy="377.2" r="253.87199999999999" fill="#C23A26"/>
  <circle cx="410" cy="377.2" r="243.71711999999997" fill="url(#cheese)"/>
  <circle cx="468.16049261877356" cy="344.88854481054574" r="20.267252387395125" fill="#F7DE8E" opacity=".5"/><circle cx="351.11138956319337" cy="293.0452622733821" r="14.496897250777108" fill="#F7DE8E" opacity=".5"/><circle cx="389.7887159371949" cy="397.77265670348623" r="17.801918002590536" fill="#F7DE8E" opacity=".5"/><circle cx="408.7137782737157" cy="505.863082995955" r="18.125931271528824" fill="#F7DE8E" opacity=".5"/><circle cx="347.29056625948067" cy="462.2345666196584" r="19.192567016584796" fill="#F7DE8E" opacity=".5"/><circle cx="216.00727831427653" cy="309.76123567621335" r="19.975438745236023" fill="#F7DE8E" opacity=".5"/><circle cx="548.9197293900688" cy="548.6607749579643" r="9.48893774201162" fill="#F7DE8E" opacity=".5"/><circle cx="417.9109081398623" cy="417.1616354488263" r="16.91193299403414" fill="#F7DE8E" opacity=".5"/><circle cx="428.18673107859513" cy="432.4761424887795" r="11.415324503425508" fill="#F7DE8E" opacity=".5"/><circle cx="471.8153220391728" cy="193.0810411376041" r="10.943082371084017" fill="#F7DE8E" opacity=".5"/><circle cx="315.60942661579315" cy="170.60982794435864" r="20.12129313784651" fill="#F7DE8E" opacity=".5"/><circle cx="541.1758975514496" cy="549.1921187320334" r="22.024562786500898" fill="#F7DE8E" opacity=".5"/><circle cx="461.97159306293065" cy="368.46272665530876" r="17.7882928552106" fill="#F7DE8E" opacity=".5"/><circle cx="405.4065055173532" cy="534.1662285939965" r="12.782106862440704" fill="#F7DE8E" opacity=".5"/><circle cx="427.86149641440215" cy="346.78384817928134" r="14.920337087055666" fill="#F7DE8E" opacity=".5"/><circle cx="410.0160050040303" cy="377.1914876523803" r="15.435343722235409" fill="#F7DE8E" opacity=".5"/><circle cx="428.4180360660228" cy="409.764570034809" r="15.991850281180811" fill="#F7DE8E" opacity=".5"/><circle cx="448.2630420775016" cy="556.2257261255531" r="10.95023531056009" fill="#F7DE8E" opacity=".5"/><circle cx="404.97746547864165" cy="376.47623378968706" r="12.371255281660703" fill="#F7DE8E" opacity=".5"/><circle cx="381.1602047237128" cy="434.4985677978816" r="9.372366646025329" fill="#F7DE8E" opacity=".5"/><circle cx="451.6683971844766" cy="170.23994962598604" r="15.756665444299577" fill="#F7DE8E" opacity=".5"/><circle cx="453.11774481233033" cy="326.774539110077" r="10.302404674943535" fill="#F7DE8E" opacity=".5"/><circle cx="422.4892031025472" cy="390.47158797563014" r="19.73238875479437" fill="#F7DE8E" opacity=".5"/><circle cx="453.4666295368436" cy="319.283780901524" r="9.594535294119268" fill="#F7DE8E" opacity=".5"/><circle cx="488.6385075465531" cy="219.77290613117793" r="19.257004873249677" fill="#F7DE8E" opacity=".5"/><circle cx="537.7442374054792" cy="287.38328335682206" r="14.158708290858192" fill="#F7DE8E" opacity=".5"/>
  <g><ellipse cx="499.1911968770767" cy="384.35229634850543" rx="35.11174272447824" ry="32.30280330651998" fill="#7E241C" opacity=".25"/><circle cx="499.1911968770767" cy="378.0321826580994" r="35.11174272447824" fill="#C0392B"/><circle cx="499.1911968770767" cy="378.0321826580994" r="35.11174272447824" fill="url(#pepShine)" opacity=".5"/><circle cx="484.2603888469415" cy="371.60933265652346" r="5.617878835916518" fill="#8E2B22"/><circle cx="514.3976351633407" cy="376.0769179713676" r="5.617878835916518" fill="#8E2B22"/><circle cx="497.9863063169246" cy="390.7011378208157" r="5.617878835916518" fill="#8E2B22"/><circle cx="503.125264370643" cy="369.46808898536426" r="5.617878835916518" fill="#8E2B22"/><circle cx="498.65591788536483" cy="375.2880552072251" r="5.617878835916518" fill="#8E2B22"/></g><g><ellipse cx="275.367448759092" cy="428.9695434403504" rx="33.84919108648784" ry="31.141255799568818" fill="#7E241C" opacity=".25"/><circle cx="275.367448759092" cy="422.87668904478255" r="33.84919108648784" fill="#C0392B"/><circle cx="275.367448759092" cy="422.87668904478255" r="33.84919108648784" fill="url(#pepShine)" opacity=".5"/><circle cx="266.8865450393153" cy="427.43733430035127" r="5.415870573838055" fill="#8E2B22"/><circle cx="275.50338115965377" cy="422.74983094186814" r="5.415870573838055" fill="#8E2B22"/><circle cx="272.98495774128105" cy="436.6512958949844" r="5.415870573838055" fill="#8E2B22"/><circle cx="272.3964083622556" cy="424.2891485193341" r="5.415870573838055" fill="#8E2B22"/><circle cx="281.70532013361293" cy="438.46866743257124" r="5.415870573838055" fill="#8E2B22"/></g><g><ellipse cx="510.6810789321146" cy="197.4979307269003" rx="39.5336630950123" ry="36.37097004741132" fill="#7E241C" opacity=".25"/><circle cx="510.6810789321146" cy="190.3818713697981" r="39.5336630950123" fill="#C0392B"/><circle cx="510.6810789321146" cy="190.3818713697981" r="39.5336630950123" fill="url(#pepShine)" opacity=".5"/><circle cx="518.4685501062503" cy="206.06429419570767" r="6.325386095201968" fill="#8E2B22"/><circle cx="503.0472224317703" cy="188.59523712278724" r="6.325386095201968" fill="#8E2B22"/><circle cx="505.5631151507026" cy="189.1408872603946" r="6.325386095201968" fill="#8E2B22"/><circle cx="497.56191695422956" cy="178.58869498697698" r="6.325386095201968" fill="#8E2B22"/><circle cx="512.3636873038586" cy="190.24907474325835" r="6.325386095201968" fill="#8E2B22"/></g><g><ellipse cx="443.6582331718574" cy="460.9141444297959" rx="33.758249160982665" ry="31.057589228104053" fill="#7E241C" opacity=".25"/><circle cx="443.6582331718574" cy="454.83765958081904" r="33.758249160982665" fill="#C0392B"/><circle cx="443.6582331718574" cy="454.83765958081904" r="33.758249160982665" fill="url(#pepShine)" opacity=".5"/><circle cx="443.9790555019498" cy="462.31360068202923" r="5.401319865757227" fill="#8E2B22"/><circle cx="453.75905737956106" cy="442.5389155899182" r="5.401319865757227" fill="#8E2B22"/><circle cx="448.28149907668205" cy="459.4672227696882" r="5.401319865757227" fill="#8E2B22"/><circle cx="442.9364481474967" cy="454.50302343594126" r="5.401319865757227" fill="#8E2B22"/><circle cx="451.44663337055346" cy="461.40021145517306" r="5.401319865757227" fill="#8E2B22"/></g><g><ellipse cx="286.1601227730553" cy="287.70191001726135" rx="31.87436968468129" ry="29.32442010990679" fill="#7E241C" opacity=".25"/><circle cx="286.1601227730553" cy="281.96452347401873" r="31.87436968468129" fill="#C0392B"/><circle cx="286.1601227730553" cy="281.96452347401873" r="31.87436968468129" fill="url(#pepShine)" opacity=".5"/><circle cx="280.842043345685" cy="296.6283832423529" r="5.099899149549007" fill="#8E2B22"/><circle cx="284.98845127365263" cy="297.3728792155649" r="5.099899149549007" fill="#8E2B22"/><circle cx="285.6417564837387" cy="289.2619756723666" r="5.099899149549007" fill="#8E2B22"/><circle cx="299.6352950581619" cy="273.83621203179604" r="5.099899149549007" fill="#8E2B22"/><circle cx="292.9599783129179" cy="273.1321822130821" r="5.099899149549007" fill="#8E2B22"/></g><g><ellipse cx="596.2964669700197" cy="333.8191328552231" rx="45.85760443962179" ry="42.18899608445205" fill="#7E241C" opacity=".25"/><circle cx="596.2964669700197" cy="325.5647640560912" r="45.85760443962179" fill="#C0392B"/><circle cx="596.2964669700197" cy="325.5647640560912" r="45.85760443962179" fill="url(#pepShine)" opacity=".5"/><circle cx="581.9175528506427" cy="330.3762584115973" r="7.3372167103394865" fill="#8E2B22"/><circle cx="608.6682004837228" cy="313.8928629692734" r="7.3372167103394865" fill="#8E2B22"/><circle cx="591.0161689290371" cy="316.3693518844953" r="7.3372167103394865" fill="#8E2B22"/><circle cx="598.970626069438" cy="313.97457165648825" r="7.3372167103394865" fill="#8E2B22"/><circle cx="604.3553412643274" cy="318.935713933353" r="7.3372167103394865" fill="#8E2B22"/></g><g><path d="M335.58487165111217 453.6463823698987 a35.8492069691699 35.8492069691699 0 0 1 71.6984139383398 0 Z" fill="#E7D4B0"/><rect x="361.3963006689145" y="453.6463823698987" width="20.075555902735147" height="25.094444878418926" rx="7.1698413938339804" fill="#D9C39A"/></g><g><path d="M343.8299086869041 241.91069369244354 a43.980116074802346 43.980116074802346 0 0 1 87.96023214960469 0 Z" fill="#E7D4B0"/><rect x="375.49559226076184" y="241.91069369244354" width="24.628865001889316" height="30.78608125236164" rx="8.796023214960469" fill="#D9C39A"/></g><g><path d="M550.9658186267463 481.90422577510566 a31.801087809232992 31.801087809232992 0 0 1 63.602175618465985 0 Z" fill="#E7D4B0"/><rect x="573.8626018493941" y="481.90422577510566" width="17.808609173170478" height="22.260761466463094" rx="6.360217561846599" fill="#D9C39A"/></g><g><path d="M285.63972901733047 388.81224347877935 a40.01836304744706 40.01836304744706 0 0 1 80.03672609489412 0 Z" fill="#E7D4B0"/><rect x="314.45295041149234" y="388.81224347877935" width="22.410283306570356" height="28.01285413321294" rx="8.003672609489412" fill="#D9C39A"/></g><g transform="translate(531.9707772254607 285.05956835198674) rotate(101.99600094929338)"><path d="M0 -32.409248379813505 C 25.927398703850805 -19.445549027888102, 25.927398703850805 19.445549027888102, 0 32.409248379813505 C -25.927398703850805 19.445549027888102, -25.927398703850805 -19.445549027888102, 0 -32.409248379813505 Z" fill="#3C7A2E"/><path d="M0 -32.409248379813505 L0 32.409248379813505" stroke="#2C5E22" stroke-width="3.8891098055776205"/></g><g transform="translate(439.96099132501945 572.5238239485634) rotate(270.87627911008894)"><path d="M0 -32.84221121379174 C 26.273768971033395 -19.705326728275043, 26.273768971033395 19.705326728275043, 0 32.84221121379174 C -26.273768971033395 19.705326728275043, -26.273768971033395 -19.705326728275043, 0 -32.84221121379174 Z" fill="#3C7A2E"/><path d="M0 -32.84221121379174 L0 32.84221121379174" stroke="#2C5E22" stroke-width="3.941065345655009"/></g><g transform="translate(344.0431752041146 319.1503099228192) rotate(274.95886819437146)"><path d="M0 -44.820034431600945 C 35.85602754528076 -26.892020658960565, 35.85602754528076 26.892020658960565, 0 44.820034431600945 C -35.85602754528076 26.892020658960565, -35.85602754528076 -26.892020658960565, 0 -44.820034431600945 Z" fill="#3C7A2E"/><path d="M0 -44.820034431600945 L0 44.820034431600945" stroke="#2C5E22" stroke-width="5.378404131792113"/></g>
  </svg>