<svg xmlns="http://www.w3.org/2000/svg" viewBox="0 0 820 754.4" width="820" height="754.4">
  <defs>
    <radialGradient id="plateBg" cx="50%" cy="42%" r="75%"><stop offset="0%" stop-color="#FBF1DF"/><stop offset="70%" stop-color="#F3E2C4"/><stop offset="100%" stop-color="#E7Cfa1"/></radialGradient>
    <radialGradient id="crust" cx="50%" cy="46%" r="55%"><stop offset="60%" stop-color="#F0C079"/><stop offset="88%" stop-color="#D89B4C"/><stop offset="100%" stop-color="#B97C34"/></radialGradient>
    <radialGradient id="cheese" cx="50%" cy="46%" r="55%"><stop offset="0%" stop-color="#F8DC83"/><stop offset="100%" stop-color="#F4CF6E"/></radialGradient>
    <radialGradient id="pepShine" cx="38%" cy="34%" r="60%"><stop offset="0%" stop-color="#E76B5A"/><stop offset="100%" stop-color="#C0392B" stop-opacity="0"/></radialGradient>
  </defs>
  <rect x="0" y="0" width="820" height="754.4" rx="40" fill="url(#plateBg)"/><ellipse cx="410" cy="406.71999999999997" rx="330.624" ry="318.81600000000003" fill="#000" opacity=".10"/>
  <circle cx="410" cy="377.2" r="295.2" fill="url(#crust)"/>
  <circle cx="696.344" cy="377.2" r="10.2952264527753" fill="#E8B774" opacity=".7"/><circle cx="693.6796757806042" cy="416.17085943382955" r="12.864053621716797" fill="#E8B774" opacity=".7"/><circle cx="685.7362842105209" cy="454.4165002170834" r="6.516520360685885" fill="#D49A4E" opacity=".7"/><circle cx="672.6616458869642" cy="491.22519947779546" r="10.855334411557765" fill="#D49A4E" opacity=".7"/><circle cx="654.6990700851085" cy="525.9119747548366" r="10.918421993438155" fill="#D49A4E" opacity=".7"/><circle cx="632.1828269538072" cy="557.8313310110252" r="11.736251125518233" fill="#D49A4E" opacity=".7"/><circle cx="605.5319269972408" cy="586.3892728147065" r="9.264226696003227" fill="#D49A4E" opacity=".7"/><circle cx="575.2423236017065" cy="611.0543581520534" r="12.243521726332606" fill="#D49A4E" opacity=".7"/><circle cx="541.8776837127151" cy="631.3675881668808" r="8.82590314270556" fill="#D49A4E" opacity=".7"/><circle cx="506.05889841321306" cy="646.9509487872842" r="7.520811205521226" fill="#D49A4E" opacity=".7"/><circle cx="468.4525286032565" cy="657.5144452857994" r="9.187389308229088" fill="#E8B774" opacity=".7"/><circle cx="429.7584007984225" cy="662.8614988651584" r="6.745184051614254" fill="#E8B774" opacity=".7"/><circle cx="390.6965838799087" cy="662.8926048432031" r="10.023898943938315" fill="#E8B774" opacity=".7"/><circle cx="351.9939891492936" cy="657.6071843608643" r="8.230862954590469" fill="#D49A4E" opacity=".7"/><circle cx="314.37084305095345" cy="647.103595154297" r="7.762950767945498" fill="#D49A4E" opacity=".7"/><circle cx="278.52728429468976" cy="631.5773011907129" r="13.072231875803322" fill="#E8B774" opacity=".7"/><circle cx="245.1303347961258" cy="611.3172352296226" r="9.970696685291827" fill="#D49A4E" opacity=".7"/><circle cx="214.80148689596354" cy="586.7004219995113" r="9.216536982502788" fill="#E8B774" opacity=".7"/><circle cx="188.10513785069696" cy="558.1849620486238" r="12.476467091605068" fill="#D49A4E" opacity=".7"/><circle cx="165.53808682029296" cy="526.3015068351671" r="12.983488812983037" fill="#E8B774" opacity=".7"/><circle cx="147.520289806069" cy="491.6433836991462" r="9.678042762592435" fill="#E8B774" opacity=".7"/><circle cx="134.3870445824864" cy="454.8555544827519" r="10.389089681167157" fill="#E8B774" opacity=".7"/><circle cx="126.38275105545148" cy="416.62261327114174" r="14.665457713879645" fill="#D49A4E" opacity=".7"/><circle cx="123.65636316220946" cy="377.6560466067185" r="8.738022077322006" fill="#E8B774" opacity=".7"/><circle cx="126.25861694958093" cy="338.68099325481825" r="7.780738530490547" fill="#E8B774" opacity=".7"/><circle cx="134.14108641394307" cy="300.42274991170643" r="13.190822183802725" fill="#D49A4E" opacity=".7"/><circle cx="147.15708467306644" cy="263.59327397359596" r="9.02557156482339" fill="#D49A4E" opacity=".7"/><circle cx="165.06439369967342" cy="228.87793454009812" r="9.813190656524151" fill="#E8B774" opacity=".7"/><circle cx="187.52977181840984" cy="196.9227582060586" r="10.35720805605501" fill="#D49A4E" opacity=".7"/><circle cx="214.13515508507135" cy="168.32240698808562" r="6.698368287976831" fill="#D49A4E" opacity=".7"/><circle cx="244.38543714503766" cy="143.6091121076001" r="12.279308766067029" fill="#E8B774" opacity=".7"/><circle cx="277.717682793549" cy="123.24276956445627" r="10.39497065292299" fill="#D49A4E" opacity=".7"/><circle cx="313.5116037803311" cy="107.60238181512773" r="7.2607425775341685" fill="#D49A4E" opacity=".7"/><circle cx="351.101101911658" cy="96.97900481944771" r="6.468606701284647" fill="#E8B774" opacity=".7"/><circle cx="389.7866646413174" cy="91.57033170611032" r="13.924087061394006" fill="#D49A4E" opacity=".7"/><circle cx="428.848382477778" cy="91.47701385087794" r="13.971883831243963" fill="#E8B774" opacity=".7"/><circle cx="467.5593459633042" cy="96.7007878294902" r="11.868033056292683" fill="#D49A4E" opacity=".7"/><circle cx="505.19917291722754" cy="107.14444310128368" r="10.106688296344132" fill="#E8B774" opacity=".7"/><circle cx="541.0674142114563" cy="122.61363102490631" r="13.338969345945866" fill="#E8B774" opacity=".7"/><circle cx="574.4965886067299" cy="142.8204815416922" r="7.694682740584016" fill="#D49A4E" opacity=".7"/><circle cx="604.8646040810353" cy="167.38896022291547" r="8.561084494046867" fill="#D49A4E" opacity=".7"/><circle cx="631.6063344985132" cy="195.86186599026365" r="9.365733600664884" fill="#E8B774" opacity=".7"/><circle cx="654.2241361856811" cy="227.709339287172" r="14.966360609192401" fill="#D49A4E" opacity=".7"/><circle cx="672.2971087093221" cy="262.33872237028675" r="14.689155798867345" fill="#E8B774" opacity=".7"/><circle cx="685.4889275198641" cy="299.1055882283821" r="8.142514599055051" fill="#E8B774" opacity=".7"/><circle cx="693.5541027006005" cy="337.3257328887756" r="6.261129722647369" fill="#D49A4E" opacity=".7"/>
  <circle cx="410" cy="377.2" r="253.87199999999999" fill="#C23A26"/>
  <circle cx="410" cy="377.2" r="243.71711999999997" fill="url(#cheese)"/>
  <circle cx="409.4936265072258" cy="202.45480276342033" r="16.963502400498836" fill="#F7DE8E" opacity=".5"/><circle cx="423.53580530135633" cy="357.33441435953347" r="10.858951802719384" fill="#F7DE8E" opacity=".5"/><circle cx="245.01123474056152" cy="319.2389797184903" r="16.078067090911787" fill="#F7DE8E" opacity=".5"/><circle cx="407.8766221780056" cy="191.90702582405873" r="16.998647795179856" fill="#F7DE8E" opacity=".5"/><circle cx="417.6244511071612" cy="379.46615008246243" r="16.318521150453012" fill="#F7DE8E" opacity=".5"/><circle cx="302.0819501104857" cy="528.847679815354" r="20.235374579178167" fill="#F7DE8E" opacity=".5"/><circle cx="391.68079332512133" cy="373.38186284434244" r="10.938024690560995" fill="#F7DE8E" opacity=".5"/><circle cx="434.6492286665551" cy="383.009788955785" r="7.73136360942386" fill="#F7DE8E" opacity=".5"/><circle cx="303.8378715752036" cy="210.5373293552904" r="7.594640599004923" fill="#F7DE8E" opacity=".5"/><circle cx="535.6604771297235" cy="570.1593054070289" r="18.677827489608894" fill="#F7DE8E" opacity=".5"/><circle cx="380.29958298378114" cy="400.90501319380564" r="19.85362461333163" fill="#F7DE8E" opacity=".5"/><circle cx="418.84217400074766" cy="149.9279545307015" r="13.481232497021555" fill="#F7DE8E" opacity=".5"/><circle cx="398.18403369455467" cy="530.3181679270556" r="9.45551435929723" fill="#F7DE8E" opacity=".5"/><circle cx="300.52044825162227" cy="313.67452054694655" r="21.819422582807018" fill="#F7DE8E" opacity=".5"/><circle cx="549.1397194107788" cy="337.11909598004183" r="17.97878244283609" fill="#F7DE8E" opacity=".5"/><circle cx="374.0648289636815" cy="448.63330785425205" r="11.178836817713453" fill="#F7DE8E" opacity=".5"/><circle cx="513.5497011954633" cy="338.2446990413048" r="9.7477802829165" fill="#F7DE8E" opacity=".5"/><circle cx="561.3799373547536" cy="275.6299498845459" r="9.392336287675423" fill="#F7DE8E" opacity=".5"/><circle cx="415.9541202068615" cy="458.58514391951275" r="7.790435486510395" fill="#F7DE8E" opacity=".5"/><circle cx="343.74970288110467" cy="406.5571694450632" r="13.31964683161117" fill="#F7DE8E" opacity=".5"/><circle cx="471.9024308685374" cy="340.66596933332266" r="10.795769060784949" fill="#F7DE8E" opacity=".5"/><circle cx="404.95151928335446" cy="289.0215863760744" r="20.509801211021838" fill="#F7DE8E" opacity=".5"/><circle cx="529.1736922218546" cy="209.52082680255248" r="21.423948087114837" fill="#F7DE8E" opacity=".5"/><circle cx="583.6467173681006" cy="467.80200119058986" r="16.26633167149499" fill="#F7DE8E" opacity=".5"/><circle cx="500.09583631866496" cy="415.99241196671267" r="13.36283513353206" fill="#F7DE8E" opacity=".5"/><circle cx="406.7078013390589" cy="327.5203314388142" r="15.528757689921184" fill="#F7DE8E" opacity=".5"/>
  <rect x="459.9734544724295" y="370.60090351344485" width="74.51008785836397" height="44.70605271501838" rx="14.902017571672795" fill="#E8C089" transform="rotate(-9.817571727434483 497.2284984016115 392.953929870954)"/><rect x="223.4501887895634" y="400.826935801103" width="74.38645453143864" height="44.631872718863185" rx="14.87729090628773" fill="#E8C089" transform="rotate(-16.213711784182692 260.6434160552827 423.1428721605346)"/><rect x="439.443280620239" y="151.50673895499642" width="87.69046976482495" height="52.61428185889497" rx="17.538093952964992" fill="#E8C089" transform="rotate(1.1023953870953846 483.2885155026515 177.8138798844439)"/><rect x="389.8853948213393" y="447.9837931168373" width="74.85838598661125" height="44.91503159196675" rx="14.97167719732225" fill="#E8C089" transform="rotate(-2.244103272534403 427.3145878146449 470.4413089128207)"/><rect x="244.8859140731212" y="297.0282687385177" width="77.06168928539381" height="46.23701357123628" rx="15.412337857078763" fill="#E8C089" transform="rotate(-16.436465760046076 283.4167587158181 320.1467755241358)"/><rect x="563.3767933440674" y="289.67432425895976" width="73.49930596629157" height="44.099583579774944" rx="14.699861193258315" fill="#E8C089" transform="rotate(11.850562376060452 600.1264463272132 311.72411604884724)"/><rect x="325.8273339970948" y="422.99762236912255" width="64.36153644349426" height="38.616921866096554" rx="12.872307288698853" fill="#E8C089" transform="rotate(-19.685814478987254 358.00810221884194 442.3060833021708)"/><rect x="347.7436621774292" y="215.75640915981586" width="67.27904705693945" height="40.36742823416367" rx="13.45580941138789" fill="#E8C089" transform="rotate(-2.676691017203325 381.38318570589894 235.9401232768977)"/><circle cx="550.66311680953" cy="511.7688502062613" r="36.87494262493215" fill="#FBE9A8" opacity=".9"/><circle cx="323.4217755686921" cy="408.2432803864125" r="32.885013130679724" fill="#FBE9A8" opacity=".9"/><circle cx="479.2309511329078" cy="252.2718727849974" r="35.797001489493994" fill="#FBE9A8" opacity=".9"/><circle cx="472.632216122489" cy="576.3984205783129" r="33.66706556140445" fill="#FBE9A8" opacity=".9"/>
  </svg>