<svg xmlns="http://www.w3.org/2000/svg" viewBox="0 0 820 754.4" width="820" height="754.4">
  <defs>
    <radialGradient id="plateBg" cx="50%" cy="42%" r="75%"><stop offset="0%" stop-color="#FBF1DF"/><stop offset="70%" stop-color="#F3E2C4"/><stop offset="100%" stop-color="#E7Cfa1"/></radialGradient>
    <radialGradient id="crust" cx="50%" cy="46%" r="55%"><stop offset="60%" stop-color="#F0C079"/><stop offset="88%" stop-color="#D89B4C"/><stop offset="100%" stop-color="#B97C34"/></radialGradient>
    <radialGradient id="cheese" cx="50%" cy="46%" r="55%"><stop offset="0%" stop-color="#F8DC83"/><stop offset="100%" stop-color="#F4CF6E"/></radialGradient>
    <radialGradient id="pepShine" cx="38%" cy="34%" r="60%"><stop offset="0%" stop-color="#E76B5A"/><stop offset="100%" stop-color="#C0392B" stop-opacity="0"/></radialGradient>
  </defs>
  <rect x="0" y="0" width="820" height="754.4" rx="40" fill="url(#plateBg)"/><ellipse cx="410" cy="406.71999999999997" rx="330.624" ry="318.81600000000003" fill="#000" opacity=".10"/>
  <circle cx="410" cy="377.2" r="295.2" fill="url(#crust)"/>
  <circle cx="696.344" cy="377.2" r="12.023184390641749" fill="#D49A4E" opacity=".7"/><circle cx="693.6796757806042" cy="416.17085943382955" r="8.119770522505044" fill="#D49A4E" opacity=".7"/><circle cx="685.7362842105209" cy="454.4165002170834" r="9.491390253189952" fill="#E8B774" opacity=".7"/><circle cx="672.6616458869642" cy="491.22519947779546" r="10.28645807312429" fill="#E8B774" opacity=".7"/><circle cx="654.6990700851085" cy="525.9119747548366" r="13.23231172451377" fill="#D49A4E" opacity=".7"/><circle cx="632.1828269538072" cy="557.8313310110252" r="6.9598697889558965" fill="#D49A4E" opacity=".7"/><circle cx="605.5319269972408" cy="586.3892728147065" r="7.703552208390087" fill="#D49A4E" opacity=".7"/><circle cx="575.2423236017065" cy="611.0543581520534" r="7.421167763616889" fill="#E8B774" opacity=".7"/><circle cx="541.8776837127151" cy="631.3675881668808" r="8.111756511177868" fill="#E8B774" opacity=".7"/><circle cx="506.05889841321306" cy="646.9509487872842" r="13.59335633070767" fill="#E8B774" opacity=".7"/><circle cx="468.4525286032565" cy="657.5144452857994" r="13.525247137505561" fill="#D49A4E" opacity=".7"/><circle cx="429.7584007984225" cy="662.8614988651584" r="12.434177677664907" fill="#D49A4E" opacity=".7"/><circle cx="390.6965838799087" cy="662.8926048432031" r="5.9492967584878205" fill="#D49A4E" opacity=".7"/><circle cx="351.9939891492936" cy="657.6071843608643" r="12.096559465002269" fill="#D49A4E" opacity=".7"/><circle cx="314.37084305095345" cy="647.103595154297" r="7.591598502840847" fill="#D49A4E" opacity=".7"/><circle cx="278.52728429468976" cy="631.5773011907129" r="13.93687607504055" fill="#D49A4E" opacity=".7"/><circle cx="245.1303347961258" cy="611.3172352296226" r="8.807587351888419" fill="#D49A4E" opacity=".7"/><circle cx="214.80148689596354" cy="586.7004219995113" r="8.790351785939187" fill="#D49A4E" opacity=".7"/><circle cx="188.10513785069696" cy="558.1849620486238" r="7.162209025058895" fill="#D49A4E" opacity=".7"/><circle cx="165.53808682029296" cy="526.3015068351671" r="9.613796303976327" fill="#D49A4E" opacity=".7"/><circle cx="147.520289806069" cy="491.6433836991462" r="5.931623392827809" fill="#D49A4E" opacity=".7"/><circle cx="134.3870445824864" cy="454.8555544827519" r="6.433167871903628" fill="#E8B774" opacity=".7"/><circle cx="126.38275105545148" cy="416.62261327114174" r="11.999430488716811" fill="#D49A4E" opacity=".7"/><circle cx="123.65636316220946" cy="377.6560466067185" r="7.070434802189469" fill="#E8B774" opacity=".7"/><circle cx="126.25861694958093" cy="338.68099325481825" r="8.472951103482394" fill="#E8B774" opacity=".7"/><circle cx="134.14108641394307" cy="300.42274991170643" r="7.8710532422885295" fill="#D49A4E" opacity=".7"/><circle cx="147.15708467306644" cy="263.59327397359596" r="12.494953006893397" fill="#D49A4E" opacity=".7"/><circle cx="165.06439369967342" cy="228.87793454009812" r="14.734789069589228" fill="#D49A4E" opacity=".7"/><circle cx="187.52977181840984" cy="196.9227582060586" r="7.815268290448934" fill="#D49A4E" opacity=".7"/><circle cx="214.13515508507135" cy="168.32240698808562" r="10.120535673625769" fill="#E8B774" opacity=".7"/><circle cx="244.38543714503766" cy="143.6091121076001" r="11.06076281489432" fill="#E8B774" opacity=".7"/><circle cx="277.717682793549" cy="123.24276956445627" r="14.561474565245211" fill="#D49A4E" opacity=".7"/><circle cx="313.5116037803311" cy="107.60238181512773" r="9.355249281484634" fill="#E8B774" opacity=".7"/><circle cx="351.101101911658" cy="96.97900481944771" r="6.987649257514626" fill="#D49A4E" opacity=".7"/><circle cx="389.7866646413174" cy="91.57033170611032" r="9.31285846093297" fill="#E8B774" opacity=".7"/><circle cx="428.848382477778" cy="91.47701385087794" r="10.621364464234562" fill="#E8B774" opacity=".7"/><circle cx="467.5593459633042" cy="96.7007878294902" r="9.833584398530423" fill="#D49A4E" opacity=".7"/><circle cx="505.19917291722754" cy="107.14444310128368" r="5.988055532924831" fill="#E8B774" opacity=".7"/><circle cx="541.0674142114563" cy="122.61363102490631" r="11.411984483242035" fill="#D49A4E" opacity=".7"/><circle cx="574.4965886067299" cy="142.8204815416922" r="9.782948053400963" fill="#D49A4E" opacity=".7"/><circle cx="604.8646040810353" cy="167.38896022291547" r="7.28900419601798" fill="#E8B774" opacity=".7"/><circle cx="631.6063344985132" cy="195.86186599026365" r="7.6469623773694035" fill="#D49A4E" opacity=".7"/><circle cx="654.2241361856811" cy="227.709339287172" r="7.325643569525331" fill="#E8B774" opacity=".7"/><circle cx="672.2971087093221" cy="262.33872237028675" r="9.518412540011107" fill="#E8B774" opacity=".7"/><circle cx="685.4889275198641" cy="299.1055882283821" r="14.702867463301867" fill="#D49A4E" opacity=".7"/><circle cx="693.5541027006005" cy="337.3257328887756" r="12.861099528126418" fill="#D49A4E" opacity=".7"/>
  <circle cx="410" cy="377.2" r="253.87199999999999" fill="#C23A26"/>
  <circle cx="410" cy="377.2" r="243.71711999999997" fill="url(#cheese)"/>
  <circle cx="357.4612244009401" cy="357.14796058305757" r="20.815368336215613" fill="#F7DE8E" opacity=".5"/><circle cx="200.77618070145414" cy="477.9229760512644" r="15.267612344669176" fill="#F7DE8E" opacity=".5"/><circle cx="305.5828894943377" cy="492.1787114358872" r="8.657707046465948" fill="#F7DE8E" opacity=".5"/><circle cx="401.08530080304104" cy="374.8702982632287" r="16.20238289519213" fill="#F7DE8E" opacity=".5"/><circle cx="410.973270357827" cy="490.8798876319065" r="15.704970331164075" fill="#F7DE8E" opacity=".5"/><circle cx="431.95822884154785" cy="263.5375638854224" r="14.237477876432239" fill="#F7DE8E" opacity=".5"/><circle cx="410.37068518332717" cy="379.2637533649262" r="14.106916073709725" fill="#F7DE8E" opacity=".5"/><circle cx="394.8841493362034" cy="517.255047786848" r="13.698799866512417" fill="#F7DE8E" opacity=".5"/><circle cx="524.3293428604267" cy="289.9926473044345" r="18.274905941588802" fill="#F7DE8E" opacity=".5"/><circle cx="266.06039156900636" cy="193.98853417535636" r="13.651754130357874" fill="#F7DE8E" opacity=".5"/><circle cx="415.35534757791584" cy="358.86498312588765" r="12.245461576022207" fill="#F7DE8E" opacity=".5"/><circle cx="287.48056757768757" cy="379.08335970865494" r="17.87429320162162" fill="#F7DE8E" opacity=".5"/><circle cx="366.2889198081576" cy="229.1132111095778" r="17.824696605317293" fill="#F7DE8E" opacity=".5"/><circle cx="300.45725879966557" cy="406.1077796947603" r="11.470282570514826" fill="#F7DE8E" opacity=".5"/><circle cx="309.6271335582748" cy="431.807659184556" r="18.59316277700476" fill="#F7DE8E" opacity=".5"/><circle cx="388.6546692007978" cy="303.845290626332" r="16.612314579030496" fill="#F7DE8E" opacity=".5"/><circle cx="215.57130740290756" cy="407.02635480769425" r="17.95162506977096" fill="#F7DE8E" opacity=".5"/><circle cx="492.1178432442723" cy="183.14286537847119" r="11.974406665898858" fill="#F7DE8E" opacity=".5"/><circle cx="408.48855987603446" cy="311.2638480028602" r="16.622019969793033" fill="#F7DE8E" opacity=".5"/><circle cx="613.7446004950651" cy="444.660656048183" r="9.05703238846734" fill="#F7DE8E" opacity=".5"/><circle cx="545.3026562513611" cy="507.1979833715292" r="12.281444736812261" fill="#F7DE8E" opacity=".5"/><circle cx="550.1239052587731" cy="363.7713842644619" r="8.534342003054915" fill="#F7DE8E" opacity=".5"/><circle cx="470.39858068139483" cy="422.3208924137715" r="9.193615117678418" fill="#F7DE8E" opacity=".5"/><circle cx="456.65276997841676" cy="494.3066783908689" r="18.83440733936615" fill="#F7DE8E" opacity=".5"/><circle cx="532.5659778296308" cy="398.4779496696137" r="14.077687116293236" fill="#F7DE8E" opacity=".5"/><circle cx="450.8528391381508" cy="507.08778059461554" r="7.657612310852854" fill="#F7DE8E" opacity=".5"/>
  <g><ellipse cx="496.1551049270219" cy="409.9696974432197" rx="39.43972176002339" ry="36.28454401922152" fill="#7E241C" opacity=".25"/><circle cx="496.1551049270219" cy="402.87054752641546" r="39.43972176002339" fill="#C0392B"/><circle cx="496.1551049270219" cy="402.87054752641546" r="39.43972176002339" fill="url(#pepShine)" opacity=".5"/><circle cx="494.0116276840958" cy="400.6581965254135" r="6.310355481603742" fill="#8E2B22"/><circle cx="496.05097145901397" cy="416.2217224601536" r="6.310355481603742" fill="#8E2B22"/><circle cx="503.99989961551427" cy="403.83178221975015" r="6.310355481603742" fill="#8E2B22"/><circle cx="492.0799232087834" cy="402.49872870771674" r="6.310355481603742" fill="#8E2B22"/><circle cx="497.62987084165917" cy="403.67262869788476" r="6.310355481603742" fill="#8E2B22"/></g><g><ellipse cx="284.0021122494526" cy="473.2989364074927" rx="33.8996080048196" ry="31.18763936443403" fill="#7E241C" opacity=".25"/><circle cx="284.0021122494526" cy="467.19700696662517" r="33.8996080048196" fill="#C0392B"/><circle cx="284.0021122494526" cy="467.19700696662517" r="33.8996080048196" fill="url(#pepShine)" opacity=".5"/><circle cx="283.78508143885347" cy="455.9441148366654" r="5.423937280771136" fill="#8E2B22"/><circle cx="270.53253317587416" cy="472.8004202923833" r="5.423937280771136" fill="#8E2B22"/><circle cx="297.092450037278" cy="474.5836020400627" r="5.423937280771136" fill="#8E2B22"/><circle cx="286.11570089692316" cy="467.22972168653047" r="5.423937280771136" fill="#8E2B22"/><circle cx="296.49345606126303" cy="458.7870601861759" r="5.423937280771136" fill="#8E2B22"/></g><g><ellipse cx="435.36135123168145" cy="171.55529621808336" rx="32.58210173632018" ry="29.97553359741457" fill="#7E241C" opacity=".25"/><circle cx="435.36135123168145" cy="165.69051790554573" r="32.58210173632018" fill="#C0392B"/><circle cx="435.36135123168145" cy="165.69051790554573" r="32.58210173632018" fill="url(#pepShine)" opacity=".5"/><circle cx="444.2216437167047" cy="169.07564143874686" r="5.21313627781123" fill="#8E2B22"/><circle cx="439.22893038494846" cy="163.31549910126623" r="5.21313627781123" fill="#8E2B22"/><circle cx="435.74582360440024" cy="152.82816157760865" r="5.21313627781123" fill="#8E2B22"/><circle cx="444.2485913259149" cy="157.23742422153083" r="5.21313627781123" fill="#8E2B22"/><circle cx="434.0103903064557" cy="161.60622572756222" r="5.21313627781123" fill="#8E2B22"/></g><g><ellipse cx="457.2771838490479" cy="467.85827054456917" rx="44.841851293584334" ry="41.25450319009759" fill="#7E241C" opacity=".25"/><circle cx="457.2771838490479" cy="459.786737311724" r="44.841851293584334" fill="#C0392B"/><circle cx="457.2771838490479" cy="459.786737311724" r="44.841851293584334" fill="url(#pepShine)" opacity=".5"/><circle cx="472.6665447376442" cy="455.2227874644608" r="7.174696206973493" fill="#8E2B22"/><circle cx="447.3865510915665" cy="446.30223532634506" r="7.174696206973493" fill="#8E2B22"/><circle cx="444.7220353727732" cy="447.45669656330927" r="7.174696206973493" fill="#8E2B22"/><circle cx="453.60288813092086" cy="467.2085065490859" r="7.174696206973493" fill="#8E2B22"/><circle cx="444.8005509553098" cy="449.19651737579625" r="7.174696206973493" fill="#8E2B22"/></g><g><ellipse cx="287.27493443498884" cy="313.4564821396173" rx="39.78524597687647" ry="36.60242629872635" fill="#7E241C" opacity=".25"/><circle cx="287.27493443498884" cy="306.29513786377953" r="39.78524597687647" fill="#C0392B"/><circle cx="287.27493443498884" cy="306.29513786377953" r="39.78524597687647" fill="url(#pepShine)" opacity=".5"/><circle cx="288.4111321942588" cy="305.4543988741965" r="6.365639356300235" fill="#8E2B22"/><circle cx="270.88365293342304" cy="300.8454205898495" r="6.365639356300235" fill="#8E2B22"/><circle cx="280.79981918166794" cy="305.4746933604626" r="6.365639356300235" fill="#8E2B22"/><circle cx="277.6942802892804" cy="293.7448080470758" r="6.365639356300235" fill="#8E2B22"/><circle cx="287.7941297367317" cy="308.1415954607124" r="6.365639356300235" fill="#8E2B22"/></g><g><ellipse cx="583.5965948685244" cy="286.1017964675096" rx="43.380735894721006" ry="39.91027702314333" fill="#7E241C" opacity=".25"/><circle cx="583.5965948685244" cy="278.2932640064598" r="43.380735894721006" fill="#C0392B"/><circle cx="583.5965948685244" cy="278.2932640064598" r="43.380735894721006" fill="url(#pepShine)" opacity=".5"/><circle cx="593.1196923008441" cy="278.38424562732956" r="6.940917743155361" fill="#8E2B22"/><circle cx="578.1979305327957" cy="274.07882344435296" r="6.940917743155361" fill="#8E2B22"/><circle cx="591.1066730088532" cy="289.8615814061279" r="6.940917743155361" fill="#8E2B22"/><circle cx="601.7191042337475" cy="279.98024778305165" r="6.940917743155361" fill="#8E2B22"/><circle cx="573.8759531159563" cy="265.784893607199" r="6.940917743155361" fill="#8E2B22"/></g><g><ellipse cx="365.38521946209386" cy="464.9478659982118" rx="32.20767283433116" ry="29.63105900758467" fill="#7E241C" opacity=".25"/><circle cx="365.38521946209386" cy="459.15048488803217" r="32.20767283433116" fill="#C0392B"/><circle cx="365.38521946209386" cy="459.15048488803217" r="32.20767283433116" fill="url(#pepShine)" opacity=".5"/><circle cx="359.0581771949095" cy="468.8284085565817" r="5.153227653492986" fill="#8E2B22"/><circle cx="360.52931493242863" cy="472.41721912396014" r="5.153227653492986" fill="#8E2B22"/><circle cx="360.91480576928075" cy="452.3840688315563" r="5.153227653492986" fill="#8E2B22"/><circle cx="371.5507207905138" cy="462.0114506695265" r="5.153227653492986" fill="#8E2B22"/><circle cx="365.60211687048826" cy="457.970111564233" r="5.153227653492986" fill="#8E2B22"/></g><g><ellipse cx="381.05489862562064" cy="249.990986853749" rx="41.05749911198392" ry="37.77289918302521" fill="#7E241C" opacity=".25"/><circle cx="381.05489862562064" cy="242.6006370135919" r="41.05749911198392" fill="#C0392B"/><circle cx="381.05489862562064" cy="242.6006370135919" r="41.05749911198392" fill="url(#pepShine)" opacity=".5"/><circle cx="382.1272661371907" cy="241.24229109230777" r="6.569199857917428" fill="#8E2B22"/><circle cx="378.5485963258533" cy="258.3666849191078" r="6.569199857917428" fill="#8E2B22"/><circle cx="383.40711937453386" cy="223.40969234551488" r="6.569199857917428" fill="#8E2B22"/><circle cx="378.2799941208145" cy="246.64518153289728" r="6.569199857917428" fill="#8E2B22"/><circle cx="391.18591988779644" cy="229.4104853331727" r="6.569199857917428" fill="#8E2B22"/></g><g><ellipse cx="597.5112555860878" cy="464.5207867584307" rx="39.31612923217937" ry="36.17083889360502" fill="#7E241C" opacity=".25"/><circle cx="597.5112555860878" cy="457.4438834966384" r="39.31612923217937" fill="#C0392B"/><circle cx="597.5112555860878" cy="457.4438834966384" r="39.31612923217937" fill="url(#pepShine)" opacity=".5"/><circle cx="593.4294854758407" cy="456.6547670825109" r="6.290580677148699" fill="#8E2B22"/><circle cx="590.7357192909878" cy="460.44391032999783" r="6.290580677148699" fill="#8E2B22"/><circle cx="598.6597542571182" cy="469.16614002980697" r="6.290580677148699" fill="#8E2B22"/><circle cx="596.5005827491879" cy="461.80131838907823" r="6.290580677148699" fill="#8E2B22"/><circle cx="599.9703726267697" cy="464.3938523165237" r="6.290580677148699" fill="#8E2B22"/></g><g><ellipse cx="315.77890478621043" cy="396.8712255980019" rx="33.32491217963398" ry="30.65891920526326" fill="#7E241C" opacity=".25"/><circle cx="315.77890478621043" cy="390.8727414056678" r="33.32491217963398" fill="#C0392B"/><circle cx="315.77890478621043" cy="390.8727414056678" r="33.32491217963398" fill="url(#pepShine)" opacity=".5"/><circle cx="311.9894260018153" cy="394.0004236080506" r="5.331985948741436" fill="#8E2B22"/><circle cx="329.89717457681525" cy="384.53470606784504" r="5.331985948741436" fill="#8E2B22"/><circle cx="308.4208755685031" cy="403.6201900163859" r="5.331985948741436" fill="#8E2B22"/><circle cx="317.8635789565419" cy="390.41571844781936" r="5.331985948741436" fill="#8E2B22"/><circle cx="315.08270990463245" cy="393.06816086527084" r="5.331985948741436" fill="#8E2B22"/></g><g><circle cx="480.51579855636805" cy="239.52092265911628" r="39.31441370847635" fill="#3A2E1F"/><circle cx="480.51579855636805" cy="239.52092265911628" r="17.691486168814357" fill="#6B4F2A"/></g><g><circle cx="392.27357457365275" cy="584.4096241466456" r="35.88284045753069" fill="#3A2E1F"/><circle cx="392.27357457365275" cy="584.4096241466456" r="16.14727820588881" fill="#6B4F2A"/></g><g><circle cx="350.17766106815566" cy="297.2447316928457" r="42.636179194366555" fill="#3A2E1F"/><circle cx="350.17766106815566" cy="297.2447316928457" r="19.18628063746495" fill="#6B4F2A"/></g><g><circle cx="559.434371645823" cy="368.1276605616618" r="44.750206669885664" fill="#3A2E1F"/><circle cx="559.434371645823" cy="368.1276605616618" r="20.13759300144855" fill="#6B4F2A"/></g>
  </svg>