<svg xmlns="http://www.w3.org/2000/svg" viewBox="0 0 820 754.4" width="820" height="754.4">
  <defs>
    <radialGradient id="plateBg" cx="50%" cy="42%" r="75%"><stop offset="0%" stop-color="#FBF1DF"/><stop offset="70%" stop-color="#F3E2C4"/><stop offset="100%" stop-color="#E7Cfa1"/></radialGradient>
    <radialGradient id="crust" cx="50%" cy="46%" r="55%"><stop offset="60%" stop-color="#F0C079"/><stop offset="88%" stop-color="#D89B4C"/><stop offset="100%" stop-color="#B97C34"/></radialGradient>
    <radialGradient id="cheese" cx="50%" cy="46%" r="55%"><stop offset="0%" stop-color="#F8DC83"/><stop offset="100%" stop-color="#F7E4A6"/></radialGradient>
    <radialGradient id="pepShine" cx="38%" cy="34%" r="60%"><stop offset="0%" stop-color="#E76B5A"/><stop offset="100%" stop-color="#C0392B" stop-opacity="0"/></radialGradient>
  </defs>
  <rect x="0" y="0" width="820" height="754.4" rx="40" fill="url(#plateBg)"/><ellipse cx="410" cy="406.71999999999997" rx="330.624" ry="318.81600000000003" fill="#000" opacity=".10"/>
  <circle cx="410" cy="377.2" r="295.2" fill="url(#crust)"/>
  <circle cx="696.344" cy="377.2" r="7.333300187956541" fill="#D49A4E" opacity=".7"/><circle cx="693.6796757806042" cy="416.17085943382955" r="8.10801847405359" fill="#E8B774" opacity=".7"/><circle cx="685.7362842105209" cy="454.4165002170834" r="11.689566659867765" fill="#E8B774" opacity=".7"/><circle cx="672.6616458869642" cy="491.22519947779546" r="6.3560325280353425" fill="#D49A4E" opacity=".7"/><circle cx="654.6990700851085" cy="525.9119747548366" r="11.333982731658965" fill="#D49A4E" opacity=".7"/><circle cx="632.1828269538072" cy="557.8313310110252" r="5.929001804418862" fill="#D49A4E" opacity=".7"/><circle cx="605.5319269972408" cy="586.3892728147065" r="15.415480772886426" fill="#E8B774" opacity=".7"/><circle cx="575.2423236017065" cy="611.0543581520534" r="9.395843052338808" fill="#E8B774" opacity=".7"/><circle cx="541.8776837127151" cy="631.3675881668808" r="15.537354916647077" fill="#D49A4E" opacity=".7"/><circle cx="506.05889841321306" cy="646.9509487872842" r="12.264750236604364" fill="#E8B774" opacity=".7"/><circle cx="468.4525286032565" cy="657.5144452857994" r="7.579799531321973" fill="#D49A4E" opacity=".7"/><circle cx="429.7584007984225" cy="662.8614988651584" r="12.978678235184402" fill="#E8B774" opacity=".7"/><circle cx="390.6965838799087" cy="662.8926048432031" r="7.710156316827982" fill="#D49A4E" opacity=".7"/><circle cx="351.9939891492936" cy="657.6071843608643" r="6.399286713782698" fill="#D49A4E" opacity=".7"/><circle cx="314.37084305095345" cy="647.103595154297" r="8.620626104693859" fill="#D49A4E" opacity=".7"/><circle cx="278.52728429468976" cy="631.5773011907129" r="11.776219674736263" fill="#D49A4E" opacity=".7"/><circle cx="245.1303347961258" cy="611.3172352296226" r="8.38596738190949" fill="#D49A4E" opacity=".7"/><circle cx="214.80148689596354" cy="586.7004219995113" r="7.009248991772532" fill="#D49A4E" opacity=".7"/><circle cx="188.10513785069696" cy="558.1849620486238" r="11.617036668095738" fill="#E8B774" opacity=".7"/><circle cx="165.53808682029296" cy="526.3015068351671" r="12.51311728117615" fill="#E8B774" opacity=".7"/><circle cx="147.520289806069" cy="491.6433836991462" r="13.416505578361452" fill="#D49A4E" opacity=".7"/><circle cx="134.3870445824864" cy="454.8555544827519" r="11.462348096776754" fill="#E8B774" opacity=".7"/><circle cx="126.38275105545148" cy="416.62261327114174" r="11.436393065169455" fill="#D49A4E" opacity=".7"/><circle cx="123.65636316220946" cy="377.6560466067185" r="10.87793285041675" fill="#E8B774" opacity=".7"/><circle cx="126.25861694958093" cy="338.68099325481825" r="10.543468373749405" fill="#D49A4E" opacity=".7"/><circle cx="134.14108641394307" cy="300.42274991170643" r="8.400873679552227" fill="#D49A4E" opacity=".7"/><circle cx="147.15708467306644" cy="263.59327397359596" r="9.654005237404256" fill="#E8B774" opacity=".7"/><circle cx="165.06439369967342" cy="228.87793454009812" r="6.4910617339387535" fill="#D49A4E" opacity=".7"/><circle cx="187.52977181840984" cy="196.9227582060586" r="7.93554612891376" fill="#E8B774" opacity=".7"/><circle cx="214.13515508507135" cy="168.32240698808562" r="15.068641889948399" fill="#E8B774" opacity=".7"/><circle cx="244.38543714503766" cy="143.6091121076001" r="9.89766757605225" fill="#D49A4E" opacity=".7"/><circle cx="277.717682793549" cy="123.24276956445627" r="14.365853740531952" fill="#E8B774" opacity=".7"/><circle cx="313.5116037803311" cy="107.60238181512773" r="9.342709839172661" fill="#D49A4E" opacity=".7"/><circle cx="351.101101911658" cy="96.97900481944771" r="10.484286964830012" fill="#E8B774" opacity=".7"/><circle cx="389.7866646413174" cy="91.57033170611032" r="7.406238704357296" fill="#D49A4E" opacity=".7"/><circle cx="428.848382477778" cy="91.47701385087794" r="8.348419811870903" fill="#D49A4E" opacity=".7"/><circle cx="467.5593459633042" cy="96.7007878294902" r="6.344095192920416" fill="#D49A4E" opacity=".7"/><circle cx="505.19917291722754" cy="107.14444310128368" r="12.868448474105449" fill="#D49A4E" opacity=".7"/><circle cx="541.0674142114563" cy="122.61363102490631" r="8.279738281421363" fill="#D49A4E" opacity=".7"/><circle cx="574.4965886067299" cy="142.8204815416922" r="6.8255366623923175" fill="#D49A4E" opacity=".7"/><circle cx="604.8646040810353" cy="167.38896022291547" r="12.899077990349383" fill="#E8B774" opacity=".7"/><circle cx="631.6063344985132" cy="195.86186599026365" r="14.881697523236275" fill="#E8B774" opacity=".7"/><circle cx="654.2241361856811" cy="227.709339287172" r="11.551436077706516" fill="#D49A4E" opacity=".7"/><circle cx="672.2971087093221" cy="262.33872237028675" r="9.898640414658935" fill="#E8B774" opacity=".7"/><circle cx="685.4889275198641" cy="299.1055882283821" r="6.12562274044007" fill="#E8B774" opacity=".7"/><circle cx="693.5541027006005" cy="337.3257328887756" r="8.59594376019761" fill="#D49A4E" opacity=".7"/>
  <circle cx="410" cy="377.2" r="253.87199999999999" fill="#F1E2BE"/>
  <circle cx="410" cy="377.2" r="243.71711999999997" fill="url(#cheese)"/>
  <circle cx="560.0736876501094" cy="528.435127667876" r="8.01966466787271" fill="#F7DE8E" opacity=".5"/><circle cx="373.71214024510255" cy="407.71815347358006" r="12.423545407745985" fill="#F7DE8E" opacity=".5"/><circle cx="407.84757506544895" cy="377.63919145941503" r="14.000112649630752" fill="#F7DE8E" opacity=".5"/><circle cx="344.5063213049563" cy="360.25377371503953" r="7.513575583985074" fill="#F7DE8E" opacity=".5"/><circle cx="422.93925034658713" cy="375.5197776768635" r="11.928412478640674" fill="#F7DE8E" opacity=".5"/><circle cx="318.71844600007375" cy="396.092547411517" r="13.604232616843653" fill="#F7DE8E" opacity=".5"/><circle cx="342.4253852587126" cy="415.79751312796117" r="19.295523515492675" fill="#F7DE8E" opacity=".5"/><circle cx="420.6174336524143" cy="417.26132793819414" r="16.036222722139208" fill="#F7DE8E" opacity=".5"/><circle cx="374.4218139607471" cy="246.85104865862786" r="12.732757321894168" fill="#F7DE8E" opacity=".5"/><circle cx="296.52961916357094" cy="345.21699715597134" r="7.475210175421088" fill="#F7DE8E" opacity=".5"/><circle cx="399.78909888297545" cy="392.20592240107834" r="22.105888136224817" fill="#F7DE8E" opacity=".5"/><circle cx="462.9171357200454" cy="471.8682166698602" r="11.892724918741731" fill="#F7DE8E" opacity=".5"/><circle cx="227.04712285750173" cy="505.8259106161683" r="15.216305018691344" fill="#F7DE8E" opacity=".5"/><circle cx="278.47143076542204" cy="337.2001426581931" r="20.83566123979166" fill="#F7DE8E" opacity=".5"/><circle cx="455.0286029577157" cy="332.6258229169074" r="11.525130003774537" fill="#F7DE8E" opacity=".5"/><circle cx="392.4139833084234" cy="397.18954263109686" r="19.259537900984284" fill="#F7DE8E" opacity=".5"/><circle cx="428.0529073265707" cy="560.5415416064421" r="8.20735242188908" fill="#F7DE8E" opacity=".5"/><circle cx="389.1046589236164" cy="178.18097039624854" r="21.203218513894825" fill="#F7DE8E" opacity=".5"/><circle cx="373.37489888673895" cy="555.6407354750434" r="14.03277974411845" fill="#F7DE8E" opacity=".5"/><circle cx="410.70182555349817" cy="370.9470599674173" r="19.353049969291312" fill="#F7DE8E" opacity=".5"/><circle cx="420.44244617634104" cy="428.7161256246864" r="7.678558628624304" fill="#F7DE8E" opacity=".5"/><circle cx="536.728800294958" cy="197.03210161785833" r="22.11151369445957" fill="#F7DE8E" opacity=".5"/><circle cx="475.288804281054" cy="449.52533432570766" r="17.958327775988725" fill="#F7DE8E" opacity=".5"/><circle cx="368.3944154815029" cy="214.24942109253826" r="8.884463419290258" fill="#F7DE8E" opacity=".5"/><circle cx="443.7199753310341" cy="417.32860646048147" r="9.111983860759063" fill="#F7DE8E" opacity=".5"/><circle cx="352.95753758643906" cy="308.5848419397122" r="15.628154200930146" fill="#F7DE8E" opacity=".5"/>
  <circle cx="499.31125862975233" cy="388.75845349853546" r="35.4388982718531" fill="#FBE9A8" opacity=".9"/><circle cx="271.0861180274476" cy="412.7331106158489" r="42.31948514384217" fill="#FBE9A8" opacity=".9"/><circle cx="491.2432674060278" cy="193.59949460382495" r="42.482218702677635" fill="#FBE9A8" opacity=".9"/><circle cx="427.87365161245555" cy="470.8197769855351" r="31.753890042202546" fill="#FBE9A8" opacity=".9"/><circle cx="277.4690469870028" cy="321.9365228351791" r="34.92181939937174" fill="#FBE9A8" opacity=".9"/><circle cx="603.1888267701139" cy="291.41929501827974" r="32.1876096661482" fill="#FBE9A8" opacity=".9"/><circle cx="367.2461304972045" cy="460.0194121041785" r="42.24089796507731" fill="#FBE9A8" opacity=".9"/><circle cx="350.25511157101505" cy="239.00558681759" r="41.22182553266175" fill="#FBE9A8" opacity=".9"/><circle cx="596.1945833255893" cy="449.7477878001661" r="40.99269845553674" fill="#FBE9A8" opacity=".9"/><circle cx="330.0802964518735" cy="409.36671308596283" r="38.33249418005347" fill="#FBE9A8" opacity=".9"/><circle cx="486.8935189353982" cy="260.1791972298737" r="36.023032417399804" fill="#FBE9A8" opacity=".9"/><circle cx="465.0671605122565" cy="575.9760871281643" r="37.657215484790505" fill="#FBE9A8" opacity=".9"/>
  </svg>