<svg xmlns="http://www.w3.org/2000/svg" viewBox="0 0 820 754.4" width="820" height="754.4">
  <defs>
    <radialGradient id="plateBg" cx="50%" cy="42%" r="75%"><stop offset="0%" stop-color="#FBF1DF"/><stop offset="70%" stop-color="#F3E2C4"/><stop offset="100%" stop-color="#E7Cfa1"/></radialGradient>
    <radialGradient id="crust" cx="50%" cy="46%" r="55%"><stop offset="60%" stop-color="#F0C079"/><stop offset="88%" stop-color="#D89B4C"/><stop offset="100%" stop-color="#B97C34"/></radialGradient>
    <radialGradient id="cheese" cx="50%" cy="46%" r="55%"><stop offset="0%" stop-color="#F8DC83"/><stop offset="100%" stop-color="#F4CF6E"/></radialGradient>
    <radialGradient id="pepShine" cx="38%" cy="34%" r="60%"><stop offset="0%" stop-color="#E76B5A"/><stop offset="100%" stop-color="#C0392B" stop-opacity="0"/></radialGradient>
  </defs>
  <rect x="0" y="0" width="820" height="754.4" rx="40" fill="url(#plateBg)"/><ellipse cx="410" cy="406.71999999999997" rx="330.624" ry="318.81600000000003" fill="#000" opacity=".10"/>
  <circle cx="410" cy="377.2" r="295.2" fill="url(#crust)"/>
  <circle cx="696.344" cy="377.2" r="14.132013485167176" fill="#D49A4E" opacity=".7"/><circle cx="693.6796757806042" cy="416.17085943382955" r="6.722001453671604" fill="#E8B774" opacity=".7"/><circle cx="685.7362842105209" cy="454.4165002170834" r="12.165474511083216" fill="#D49A4E" opacity=".7"/><circle cx="672.6616458869642" cy="491.22519947779546" r="11.076978708520532" fill="#D49A4E" opacity=".7"/><circle cx="654.6990700851085" cy="525.9119747548366" r="11.856271532043815" fill="#E8B774" opacity=".7"/><circle cx="632.1828269538072" cy="557.8313310110252" r="8.622159000501036" fill="#D49A4E" opacity=".7"/><circle cx="605.5319269972408" cy="586.3892728147065" r="15.483459204208106" fill="#E8B774" opacity=".7"/><circle cx="575.2423236017065" cy="611.0543581520534" r="14.095436662003399" fill="#D49A4E" opacity=".7"/><circle cx="541.8776837127151" cy="631.3675881668808" r="9.997229041770101" fill="#E8B774" opacity=".7"/><circle cx="506.05889841321306" cy="646.9509487872842" r="10.985997084785254" fill="#E8B774" opacity=".7"/><circle cx="468.4525286032565" cy="657.5144452857994" r="10.801976917997003" fill="#D49A4E" opacity=".7"/><circle cx="429.7584007984225" cy="662.8614988651584" r="15.126019880041481" fill="#D49A4E" opacity=".7"/><circle cx="390.6965838799087" cy="662.8926048432031" r="9.34866778345406" fill="#E8B774" opacity=".7"/><circle cx="351.9939891492936" cy="657.6071843608643" r="9.967738000430167" fill="#E8B774" opacity=".7"/><circle cx="314.37084305095345" cy="647.103595154297" r="10.19230761993304" fill="#E8B774" opacity=".7"/><circle cx="278.52728429468976" cy="631.5773011907129" r="8.549446812696754" fill="#D49A4E" opacity=".7"/><circle cx="245.1303347961258" cy="611.3172352296226" r="10.221788390479983" fill="#D49A4E" opacity=".7"/><circle cx="214.80148689596354" cy="586.7004219995113" r="9.419669337809086" fill="#D49A4E" opacity=".7"/><circle cx="188.10513785069696" cy="558.1849620486238" r="14.052832301516087" fill="#D49A4E" opacity=".7"/><circle cx="165.53808682029296" cy="526.3015068351671" r="11.513965784903617" fill="#D49A4E" opacity=".7"/><circle cx="147.520289806069" cy="491.6433836991462" r="6.298836335331202" fill="#E8B774" opacity=".7"/><circle cx="134.3870445824864" cy="454.8555544827519" r="8.763767101798207" fill="#E8B774" opacity=".7"/><circle cx="126.38275105545148" cy="416.62261327114174" r="14.561114308532328" fill="#E8B774" opacity=".7"/><circle cx="123.65636316220946" cy="377.6560466067185" r="10.763140708241613" fill="#D49A4E" opacity=".7"/><circle cx="126.25861694958093" cy="338.68099325481825" r="13.294586264189334" fill="#D49A4E" opacity=".7"/><circle cx="134.14108641394307" cy="300.42274991170643" r="13.173608907513321" fill="#D49A4E" opacity=".7"/><circle cx="147.15708467306644" cy="263.59327397359596" r="12.338737629387529" fill="#E8B774" opacity=".7"/><circle cx="165.06439369967342" cy="228.87793454009812" r="9.264967625007033" fill="#D49A4E" opacity=".7"/><circle cx="187.52977181840984" cy="196.9227582060586" r="14.268109423924239" fill="#D49A4E" opacity=".7"/><circle cx="214.13515508507135" cy="168.32240698808562" r="7.934019421242177" fill="#D49A4E" opacity=".7"/><circle cx="244.38543714503766" cy="143.6091121076001" r="14.30074053054303" fill="#D49A4E" opacity=".7"/><circle cx="277.717682793549" cy="123.24276956445627" r="6.213833932891488" fill="#D49A4E" opacity=".7"/><circle cx="313.5116037803311" cy="107.60238181512773" r="15.406621420081706" fill="#E8B774" opacity=".7"/><circle cx="351.101101911658" cy="96.97900481944771" r="7.876037715632468" fill="#E8B774" opacity=".7"/><circle cx="389.7866646413174" cy="91.57033170611032" r="12.033169184546919" fill="#D49A4E" opacity=".7"/><circle cx="428.848382477778" cy="91.47701385087794" r="12.161790698613972" fill="#E8B774" opacity=".7"/><circle cx="467.5593459633042" cy="96.7007878294902" r="14.527659641481936" fill="#D49A4E" opacity=".7"/><circle cx="505.19917291722754" cy="107.14444310128368" r="14.526470967303963" fill="#E8B774" opacity=".7"/><circle cx="541.0674142114563" cy="122.61363102490631" r="10.923711971897633" fill="#D49A4E" opacity=".7"/><circle cx="574.4965886067299" cy="142.8204815416922" r="7.393590666107833" fill="#E8B774" opacity=".7"/><circle cx="604.8646040810353" cy="167.38896022291547" r="11.418782859273255" fill="#D49A4E" opacity=".7"/><circle cx="631.6063344985132" cy="195.86186599026365" r="7.777094076029956" fill="#E8B774" opacity=".7"/><circle cx="654.2241361856811" cy="227.709339287172" r="7.804739889107644" fill="#D49A4E" opacity=".7"/><circle cx="672.2971087093221" cy="262.33872237028675" r="12.382558525554836" fill="#E8B774" opacity=".7"/><circle cx="685.4889275198641" cy="299.1055882283821" r="13.614966422818602" fill="#D49A4E" opacity=".7"/><circle cx="693.5541027006005" cy="337.3257328887756" r="13.595558335572482" fill="#D49A4E" opacity=".7"/>
  <circle cx="410" cy="377.2" r="253.87199999999999" fill="#C23A26"/>
  <circle cx="410" cy="377.2" r="243.71711999999997" fill="url(#cheese)"/>
  <circle cx="533.4295359672635" cy="463.98562360220694" r="21.280522721009326" fill="#F7DE8E" opacity=".5"/><circle cx="559.8773938536197" cy="405.13309072743715" r="19.34992792887613" fill="#F7DE8E" opacity=".5"/><circle cx="393.5121528539642" cy="374.48121077595994" r="17.75042651714757" fill="#F7DE8E" opacity=".5"/><circle cx="476.17953558252447" cy="496.166396630724" r="19.17002701219171" fill="#F7DE8E" opacity=".5"/><circle cx="430.0258412591716" cy="403.42279720646707" r="14.086064395923165" fill="#F7DE8E" opacity=".5"/><circle cx="409.9016500474475" cy="456.2771554115168" r="9.098343217838554" fill="#F7DE8E" opacity=".5"/><circle cx="386.1663417643372" cy="481.9552067128591" r="19.198257230641318" fill="#F7DE8E" opacity=".5"/><circle cx="524.9940989022805" cy="217.57245687549965" r="11.730600504074244" fill="#F7DE8E" opacity=".5"/><circle cx="292.5498102590376" cy="484.32952809761423" r="16.378673172220587" fill="#F7DE8E" opacity=".5"/><circle cx="416.58761071050884" cy="354.26123105345795" r="15.817866265699266" fill="#F7DE8E" opacity=".5"/><circle cx="491.0084683958676" cy="208.32332729668624" r="19.103337989235293" fill="#F7DE8E" opacity=".5"/><circle cx="267.2832036716143" cy="399.38239740731905" r="9.70096261541359" fill="#F7DE8E" opacity=".5"/><circle cx="429.991613852063" cy="376.56918588349225" r="13.490462612165135" fill="#F7DE8E" opacity=".5"/><circle cx="309.8442558234092" cy="372.0557775038683" r="8.460030665611846" fill="#F7DE8E" opacity=".5"/><circle cx="416.90548305322267" cy="261.01523303923204" r="10.50963308916427" fill="#F7DE8E" opacity=".5"/><circle cx="405.54605302412085" cy="265.065697635599" r="14.751872972147538" fill="#F7DE8E" opacity=".5"/><circle cx="460.1464230809903" cy="263.77092755558897" r="8.319231248935683" fill="#F7DE8E" opacity=".5"/><circle cx="280.2046987777585" cy="253.48937298801303" r="13.80202155944891" fill="#F7DE8E" opacity=".5"/><circle cx="239.05220757315345" cy="382.91939563550744" r="14.453634766833854" fill="#F7DE8E" opacity=".5"/><circle cx="462.3681646221529" cy="284.3801292324568" r="17.969932533754033" fill="#F7DE8E" opacity=".5"/><circle cx="526.8280411545555" cy="240.27107711242226" r="17.93462781577371" fill="#F7DE8E" opacity=".5"/><circle cx="446.5463607527864" cy="540.0975811484061" r="8.356137633277102" fill="#F7DE8E" opacity=".5"/><circle cx="381.2896169739661" cy="377.8245944295268" r="18.356653079995883" fill="#F7DE8E" opacity=".5"/><circle cx="432.09364837217583" cy="311.3069175340724" r="16.443202613750472" fill="#F7DE8E" opacity=".5"/><circle cx="469.88874522155146" cy="591.6397667584218" r="11.788728778688235" fill="#F7DE8E" opacity=".5"/><circle cx="441.014814350626" cy="392.967282760431" r="20.851568197449666" fill="#F7DE8E" opacity=".5"/>
  <rect x="450.9784254057247" y="362.03081246867794" width="81.23812833990901" height="48.7428770039454" rx="16.247625667981804" fill="#E8C089" transform="rotate(17.999740546329804 491.5974895756792 386.40225097065064)"/><rect x="247.50624956408123" y="432.561481028551" width="86.00796021653339" height="51.60477612992003" rx="17.20159204330668" fill="#E8C089" transform="rotate(8.87409876585889 290.5102296723479 458.363869093511)"/><rect x="477.36429666703583" y="174.08803856408076" width="67.09643360618502" height="40.25786016371101" rx="13.419286721237004" fill="#E8C089" transform="rotate(5.129482116064537 510.9125134701283 194.21696864593628)"/><rect x="424.7379400558816" y="425.00384688969825" width="65.15208679843693" height="39.09125207906215" rx="13.030417359687386" fill="#E8C089" transform="rotate(1.8634563843294245 457.3139834551001 444.54947292922935)"/><g><circle cx="278.4319401882411" cy="291.5772954071349" r="39.54326675612479" fill="#3A2E1F"/><circle cx="278.4319401882411" cy="291.5772954071349" r="17.794470040256154" fill="#6B4F2A"/></g><g><circle cx="592.9436297365424" cy="293.1384555309138" r="34.575985409170386" fill="#3A2E1F"/><circle cx="592.9436297365424" cy="293.1384555309138" r="15.559193434126675" fill="#6B4F2A"/></g><g><circle cx="374.6987926700174" cy="458.23205001333395" r="45.9141554166656" fill="#3A2E1F"/><circle cx="374.6987926700174" cy="458.23205001333395" r="20.661369937499522" fill="#6B4F2A"/></g><g><circle cx="400.15719538631106" cy="233.70571094262536" r="33.787675780188295" fill="#3A2E1F"/><circle cx="400.15719538631106" cy="233.70571094262536" r="15.204454101084734" fill="#6B4F2A"/></g><g><circle cx="563.7183140271791" cy="514.4565077478072" r="45.07610072423704" fill="#3A2E1F"/><circle cx="563.7183140271791" cy="514.4565077478072" r="20.284245325906667" fill="#6B4F2A"/></g><g><circle cx="316.14027963427884" cy="397.0995634926027" r="38.04219060564414" fill="#E2503B"/><circle cx="316.14027963427884" cy="397.0995634926027" r="26.629533423950896" fill="#EB6B57"/><g fill="#F7C9A0"><ellipse cx="331.35715587653647" cy="397.0995634926027" rx="4.565062872677296" ry="2.282531436338648" transform="rotate(0 331.35715587653647 397.0995634926027)"/><ellipse cx="320.85177166234723" cy="411.56867422690954" rx="4.565062872677296" ry="2.282531436338648" transform="rotate(71.59200000000001 320.85177166234723 411.56867422690954)"/><ellipse cx="303.84097422287374" cy="406.05949702858203" rx="4.565062872677296" ry="2.282531436338648" transform="rotate(143.18400000000003 303.84097422287374 406.05949702858203)"/><ellipse cx="303.812496525957" cy="388.17885241072366" rx="4.565062872677296" ry="2.282531436338648" transform="rotate(214.77599999999998 303.812496525957 388.17885241072366)"/><ellipse cx="320.805659276173" cy="382.6155186373427" rx="4.565062872677296" ry="2.282531436338648" transform="rotate(286.36800000000005 320.805659276173 382.6155186373427)"/></g></g><g><circle cx="506.4155664563514" cy="260.751155927054" r="39.196355016538874" fill="#E2503B"/><circle cx="506.4155664563514" cy="260.751155927054" r="27.43744851157721" fill="#EB6B57"/><g fill="#F7C9A0"><ellipse cx="522.094108462967" cy="260.751155927054" rx="4.703562601984665" ry="2.3517813009923323" transform="rotate(0 522.094108462967 260.751155927054)"/><ellipse cx="511.27000073707245" cy="275.6592459209925" rx="4.703562601984665" ry="2.3517813009923323" transform="rotate(71.59200000000001 511.27000073707245 275.6592459209925)"/><ellipse cx="493.7431116453305" cy="269.98292544951505" rx="4.703562601984665" ry="2.3517813009923323" transform="rotate(143.18400000000003 493.7431116453305 269.98292544951505)"/><ellipse cx="493.71376996177776" cy="251.5597988311925" rx="4.703562601984665" ry="2.3517813009923323" transform="rotate(214.77599999999998 493.71376996177776 251.5597988311925)"/><ellipse cx="511.2224893443169" cy="245.82767872492843" rx="4.703562601984665" ry="2.3517813009923323" transform="rotate(286.36800000000005 511.2224893443169 245.82767872492843)"/></g></g><g><circle cx="379.14788820281467" cy="576.8186755172077" r="39.90675645254552" fill="#E2503B"/><circle cx="379.14788820281467" cy="576.8186755172077" r="27.934729516781864" fill="#EB6B57"/><g fill="#F7C9A0"><ellipse cx="395.1105907838329" cy="576.8186755172077" rx="4.788810774305462" ry="2.394405387152731" transform="rotate(0 395.1105907838329 576.8186755172077)"/><ellipse cx="384.09030507994214" cy="591.9969622816199" rx="4.788810774305462" ry="2.394405387152731" transform="rotate(71.59200000000001 384.09030507994214 591.9969622816199)"/><ellipse cx="366.2457556553899" cy="586.2177632079747" rx="4.788810774305462" ry="2.394405387152731" transform="rotate(143.18400000000003 366.2457556553899 586.2177632079747)"/><ellipse cx="366.2158821781507" cy="567.4607326947653" rx="4.788810774305462" ry="2.394405387152731" transform="rotate(214.77599999999998 366.2158821781507 567.4607326947653)"/><ellipse cx="384.0419325825858" cy="561.6247226642179" rx="4.788810774305462" ry="2.394405387152731" transform="rotate(286.36800000000005 384.0419325825858 561.6247226642179)"/></g></g><circle cx="341.432834552048" cy="325.6162312610983" r="37.91511679789983" fill="#FBE9A8" opacity=".9"/><circle cx="563.3163160315346" cy="391.11377228210455" r="43.37631840443239" fill="#FBE9A8" opacity=".9"/><circle cx="290.72439905907726" cy="531.8297104862671" r="39.27911959234625" fill="#FBE9A8" opacity=".9"/>
  </svg>