<svg xmlns="http://www.w3.org/2000/svg" viewBox="0 0 820 754.4" width="820" height="754.4">
  <defs>
    <radialGradient id="plateBg" cx="50%" cy="42%" r="75%"><stop offset="0%" stop-color="#FBF1DF"/><stop offset="70%" stop-color="#F3E2C4"/><stop offset="100%" stop-color="#E7Cfa1"/></radialGradient>
    <radialGradient id="crust" cx="50%" cy="46%" r="55%"><stop offset="60%" stop-color="#F0C079"/><stop offset="88%" stop-color="#D89B4C"/><stop offset="100%" stop-color="#B97C34"/></radialGradient>
    <radialGradient id="cheese" cx="50%" cy="46%" r="55%"><stop offset="0%" stop-color="#F8DC83"/><stop offset="100%" stop-color="#F4CF6E"/></radialGradient>
    <radialGradient id="pepShine" cx="38%" cy="34%" r="60%"><stop offset="0%" stop-color="#E76B5A"/><stop offset="100%" stop-color="#C0392B" stop-opacity="0"/></radialGradient>
  </defs>
  <rect x="0" y="0" width="820" height="754.4" rx="40" fill="url(#plateBg)"/><ellipse cx="410" cy="406.71999999999997" rx="330.624" ry="318.81600000000003" fill="#000" opacity=".10"/>
  <circle cx="410" cy="377.2" r="295.2" fill="url(#crust)"/>
  <circle cx="696.344" cy="377.2" r="14.14926417894289" fill="#E8B774" opacity=".7"/><circle cx="693.6796757806042" cy="416.17085943382955" r="9.81352172063291" fill="#D49A4E" opacity=".7"/><circle cx="685.7362842105209" cy="454.4165002170834" r="9.562839921578764" fill="#D49A4E" opacity=".7"/><circle cx="672.6616458869642" cy="491.22519947779546" r="11.020237814594061" fill="#D49A4E" opacity=".7"/><circle cx="654.6990700851085" cy="525.9119747548366" r="8.061670456487684" fill="#D49A4E" opacity=".7"/><circle cx="632.1828269538072" cy="557.8313310110252" r="7.031317867353558" fill="#E8B774" opacity=".7"/><circle cx="605.5319269972408" cy="586.3892728147065" r="9.826132013775409" fill="#D49A4E" opacity=".7"/><circle cx="575.2423236017065" cy="611.0543581520534" r="13.287508173432203" fill="#E8B774" opacity=".7"/><circle cx="541.8776837127151" cy="631.3675881668808" r="10.562050258979202" fill="#E8B774" opacity=".7"/><circle cx="506.05889841321306" cy="646.9509487872842" r="6.052472576513886" fill="#D49A4E" opacity=".7"/><circle cx="468.4525286032565" cy="657.5144452857994" r="6.898648114386946" fill="#E8B774" opacity=".7"/><circle cx="429.7584007984225" cy="662.8614988651584" r="6.811562940381467" fill="#D49A4E" opacity=".7"/><circle cx="390.6965838799087" cy="662.8926048432031" r="14.24108134531975" fill="#D49A4E" opacity=".7"/><circle cx="351.9939891492936" cy="657.6071843608643" r="15.727445369526745" fill="#E8B774" opacity=".7"/><circle cx="314.37084305095345" cy="647.103595154297" r="8.113971382599324" fill="#E8B774" opacity=".7"/><circle cx="278.52728429468976" cy="631.5773011907129" r="13.02622969505936" fill="#D49A4E" opacity=".7"/><circle cx="245.1303347961258" cy="611.3172352296226" r="14.914950941853226" fill="#D49A4E" opacity=".7"/><circle cx="214.80148689596354" cy="586.7004219995113" r="9.003540218990295" fill="#E8B774" opacity=".7"/><circle cx="188.10513785069696" cy="558.1849620486238" r="10.559264695286751" fill="#D49A4E" opacity=".7"/><circle cx="165.53808682029296" cy="526.3015068351671" r="8.68220927772671" fill="#D49A4E" opacity=".7"/><circle cx="147.520289806069" cy="491.6433836991462" r="7.495436264086514" fill="#E8B774" opacity=".7"/><circle cx="134.3870445824864" cy="454.8555544827519" r="14.285543152257802" fill="#D49A4E" opacity=".7"/><circle cx="126.38275105545148" cy="416.62261327114174" r="7.694511200241744" fill="#D49A4E" opacity=".7"/><circle cx="123.65636316220946" cy="377.6560466067185" r="12.852137879781425" fill="#E8B774" opacity=".7"/><circle cx="126.25861694958093" cy="338.68099325481825" r="13.556173716332765" fill="#D49A4E" opacity=".7"/><circle cx="134.14108641394307" cy="300.42274991170643" r="15.382404081556947" fill="#D49A4E" opacity=".7"/><circle cx="147.15708467306644" cy="263.59327397359596" r="11.77902477195114" fill="#D49A4E" opacity=".7"/><circle cx="165.06439369967342" cy="228.87793454009812" r="8.770191474795341" fill="#E8B774" opacity=".7"/><circle cx="187.52977181840984" cy="196.9227582060586" r="7.8089838366732" fill="#E8B774" opacity=".7"/><circle cx="214.13515508507135" cy="168.32240698808562" r="6.126698534410447" fill="#E8B774" opacity=".7"/><circle cx="244.38543714503766" cy="143.6091121076001" r="7.1707463542521" fill="#E8B774" opacity=".7"/><circle cx="277.717682793549" cy="123.24276956445627" r="14.796228082660587" fill="#E8B774" opacity=".7"/><circle cx="313.5116037803311" cy="107.60238181512773" r="12.24794181009382" fill="#D49A4E" opacity=".7"/><circle cx="351.101101911658" cy="96.97900481944771" r="8.199634634848683" fill="#D49A4E" opacity=".7"/><circle cx="389.7866646413174" cy="91.57033170611032" r="7.685375257708132" fill="#E8B774" opacity=".7"/><circle cx="428.848382477778" cy="91.47701385087794" r="7.526784220352768" fill="#E8B774" opacity=".7"/><circle cx="467.5593459633042" cy="96.7007878294902" r="10.942409420158715" fill="#E8B774" opacity=".7"/><circle cx="505.19917291722754" cy="107.14444310128368" r="6.5997689845561975" fill="#D49A4E" opacity=".7"/><circle cx="541.0674142114563" cy="122.61363102490631" r="12.153978588670492" fill="#E8B774" opacity=".7"/><circle cx="574.4965886067299" cy="142.8204815416922" r="6.697787137046456" fill="#D49A4E" opacity=".7"/><circle cx="604.8646040810353" cy="167.38896022291547" r="9.583459275081754" fill="#E8B774" opacity=".7"/><circle cx="631.6063344985132" cy="195.86186599026365" r="13.756655980233104" fill="#E8B774" opacity=".7"/><circle cx="654.2241361856811" cy="227.709339287172" r="6.049220678038894" fill="#D49A4E" opacity=".7"/><circle cx="672.2971087093221" cy="262.33872237028675" r="11.855445201728493" fill="#D49A4E" opacity=".7"/><circle cx="685.4889275198641" cy="299.1055882283821" r="15.240370632424952" fill="#E8B774" opacity=".7"/><circle cx="693.5541027006005" cy="337.3257328887756" r="13.984024497359991" fill="#E8B774" opacity=".7"/>
  <circle cx="410" cy="377.2" r="253.87199999999999" fill="#C23A26"/>
  <circle cx="410" cy="377.2" r="243.71711999999997" fill="url(#cheese)"/>
  <circle cx="448.6049573540678" cy="364.91224334267855" r="8.842275615865363" fill="#F7DE8E" opacity=".5"/><circle cx="301.467783480548" cy="263.5490990548335" r="8.057683136472477" fill="#F7DE8E" opacity=".5"/><circle cx="330.3700491821493" cy="335.00857028347485" r="10.9917394647561" fill="#F7DE8E" opacity=".5"/><circle cx="357.93677150615116" cy="401.33997534593834" r="15.591772173447533" fill="#F7DE8E" opacity=".5"/><circle cx="367.4114955206168" cy="398.34872405721455" r="13.018793938541783" fill="#F7DE8E" opacity=".5"/><circle cx="244.23729251008356" cy="292.06076264454737" r="19.924165238644925" fill="#F7DE8E" opacity=".5"/><circle cx="438.1721965756869" cy="350.5463864162097" r="19.45135173015296" fill="#F7DE8E" opacity=".5"/><circle cx="550.7482069601383" cy="351.1996661619546" r="11.653302180385216" fill="#F7DE8E" opacity=".5"/><circle cx="454.71699039719545" cy="445.0429676312461" r="13.32514388579875" fill="#F7DE8E" opacity=".5"/><circle cx="440.7080239871724" cy="500.3702492089141" r="20.79319064704701" fill="#F7DE8E" opacity=".5"/><circle cx="278.9158359151494" cy="517.5783002924256" r="9.854915948705747" fill="#F7DE8E" opacity=".5"/><circle cx="341.7079835395689" cy="242.24496091665222" r="10.310557188475503" fill="#F7DE8E" opacity=".5"/><circle cx="609.4257459093444" cy="476.2760459171045" r="17.687415762310845" fill="#F7DE8E" opacity=".5"/><circle cx="217.97051650927617" cy="392.2886185032489" r="19.716339735779908" fill="#F7DE8E" opacity=".5"/><circle cx="322.0119069253377" cy="344.5179626775255" r="9.228326248889788" fill="#F7DE8E" opacity=".5"/><circle cx="625.5142853454076" cy="323.99631497489435" r="9.371005072910338" fill="#F7DE8E" opacity=".5"/><circle cx="403.5301398243552" cy="486.6056676805416" r="17.911217648629098" fill="#F7DE8E" opacity=".5"/><circle cx="518.2044997434714" cy="228.94353661706657" r="12.384493758771567" fill="#F7DE8E" opacity=".5"/><circle cx="594.6440549171159" cy="467.76563565524003" r="16.969668412534517" fill="#F7DE8E" opacity=".5"/><circle cx="502.30410258978037" cy="456.6149337579831" r="14.325999573078004" fill="#F7DE8E" opacity=".5"/><circle cx="558.423108292389" cy="541.7864488585818" r="21.243764126803722" fill="#F7DE8E" opacity=".5"/><circle cx="298.77045671461843" cy="420.00833248803474" r="18.614426758512852" fill="#F7DE8E" opacity=".5"/><circle cx="407.78462597360857" cy="380.7140124677403" r="19.347824727986005" fill="#F7DE8E" opacity=".5"/><circle cx="457.71569614083063" cy="431.41266803164285" r="20.664334797151383" fill="#F7DE8E" opacity=".5"/><circle cx="347.40075104348807" cy="376.1971948071767" r="11.294940813705324" fill="#F7DE8E" opacity=".5"/><circle cx="428.9163788776261" cy="297.2957101536864" r="11.383919826401396" fill="#F7DE8E" opacity=".5"/>
  <g transform="translate(494.411683224478 393.37946195212635) rotate(226.4229337591678)"><path d="M0 -34.988095517205075 C 27.99047641376406 -20.992857310323043, 27.99047641376406 20.992857310323043, 0 34.988095517205075 C -27.99047641376406 20.992857310323043, -27.99047641376406 -20.992857310323043, 0 -34.988095517205075 Z" fill="#3C7A2E"/><path d="M0 -34.988095517205075 L0 34.988095517205075" stroke="#2C5E22" stroke-width="4.198571462064609"/></g><g transform="translate(278.5314531030735 448.2891107515941) rotate(45.76726374216378)"><path d="M0 -34.56767058938742 C 27.654136471509936 -20.74060235363245, 27.654136471509936 20.74060235363245, 0 34.56767058938742 C -27.654136471509936 20.74060235363245, -27.654136471509936 -20.74060235363245, 0 -34.56767058938742 Z" fill="#3C7A2E"/><path d="M0 -34.56767058938742 L0 34.56767058938742" stroke="#2C5E22" stroke-width="4.14812047072649"/></g><g transform="translate(494.5753976819843 200.98988432852843) rotate(352.39658050239086)"><path d="M0 -42.10838363832794 C 33.68670691066236 -25.265030182996764, 33.68670691066236 25.265030182996764, 0 42.10838363832794 C -33.68670691066236 25.265030182996764, -33.68670691066236 -25.265030182996764, 0 -42.10838363832794 Z" fill="#3C7A2E"/><path d="M0 -42.10838363832794 L0 42.10838363832794" stroke="#2C5E22" stroke-width="5.053006036599353"/></g><g transform="translate(424.4475377615613 462.55467787432866) rotate(278.086405294016)"><path d="M0 -43.62886842247099 C 34.903094737976794 -26.17732105348259, 34.903094737976794 26.17732105348259, 0 43.62886842247099 C -34.903094737976794 26.17732105348259, -34.903094737976794 -26.17732105348259, 0 -43.62886842247099 Z" fill="#3C7A2E"/><path d="M0 -43.62886842247099 L0 43.62886842247099" stroke="#2C5E22" stroke-width="5.235464210696518"/></g><g transform="translate(275.0191248003491 331.9523983947184) rotate(156.380150411278)"><path d="M0 -41.62982016052119 C 33.30385612841695 -24.977892096312715, 33.30385612841695 24.977892096312715, 0 41.62982016052119 C -33.30385612841695 24.977892096312715, -33.30385612841695 -24.977892096312715, 0 -41.62982016052119 Z" fill="#3C7A2E"/><path d="M0 -41.62982016052119 L0 41.62982016052119" stroke="#2C5E22" stroke-width="4.995578419262543"/></g><g><path d="M561.0727575633643 356.5271813507603 a45.23254352317192 45.23254352317192 0 0 1 90.46508704634384 0 Z" fill="#E7D4B0"/><rect x="593.6401889000481" y="356.5271813507603" width="25.33022437297628" height="31.66278046622034" rx="9.046508704634384" fill="#D9C39A"/></g><g><path d="M327.37603755231976 467.74761673259417 a39.18789429673925 39.18789429673925 0 0 1 78.3757885934785 0 Z" fill="#E7D4B0"/><rect x="355.591321445972" y="467.74761673259417" width="21.94522080617398" height="27.431526007717476" rx="7.83757885934785" fill="#D9C39A"/></g><g><path d="M353.2035149406234 240.0188326422366 a45.052396196806804 45.052396196806804 0 0 1 90.10479239361361 0 Z" fill="#E7D4B0"/><rect x="385.6412402023243" y="240.0188326422366" width="25.22934187021181" height="31.53667733776476" rx="9.010479239361361" fill="#D9C39A"/></g><g><path d="M534.7871154646332 500.4045558884181 a44.532890634695065 44.532890634695065 0 0 1 89.06578126939013 0 Z" fill="#E7D4B0"/><rect x="566.8507967216136" y="500.4045558884181" width="24.93841875542924" height="31.173023444286542" rx="8.906578126939014" fill="#D9C39A"/></g><g><path d="M276.4804352941898 406.44452131912584 a45.18646335954777 45.18646335954777 0 0 1 90.37292671909555 0 Z" fill="#E7D4B0"/><rect x="309.0146889130642" y="406.44452131912584" width="25.304419481346756" height="31.630524351683437" rx="9.037292671909555" fill="#D9C39A"/></g><g><circle cx="510.49255922765" cy="281.42773662684476" r="38.9826414110139" fill="#E2503B"/><circle cx="510.49255922765" cy="281.42773662684476" r="27.28784898770973" fill="#EB6B57"/><g fill="#F7C9A0"><ellipse cx="526.0856157920556" cy="281.42773662684476" rx="4.677916969321668" ry="2.338958484660834" transform="rotate(0 526.0856157920556 281.42773662684476)"/><ellipse cx="515.3205252652785" cy="296.2545419793223" rx="4.677916969321668" ry="2.338958484660834" transform="rotate(71.59200000000001 515.3205252652785 296.2545419793223)"/><ellipse cx="497.88919951507313" cy="290.60917099061083" rx="4.677916969321668" ry="2.338958484660834" transform="rotate(143.18400000000003 497.88919951507313 290.60917099061083)"/><ellipse cx="497.8600178136662" cy="272.2864943455826" rx="4.677916969321668" ry="2.338958484660834" transform="rotate(214.77599999999998 497.8600178136662 272.2864943455826)"/><ellipse cx="515.2732729229128" cy="266.5856279631583" rx="4.677916969321668" ry="2.338958484660834" transform="rotate(286.36800000000005 515.2732729229128 266.5856279631583)"/></g></g><g><circle cx="461.064467348206" cy="565.8015470260344" r="34.103107866877686" fill="#E2503B"/><circle cx="461.064467348206" cy="565.8015470260344" r="23.87217550681438" fill="#EB6B57"/><g fill="#F7C9A0"><ellipse cx="474.7057104949571" cy="565.8015470260344" rx="4.092372944025322" ry="2.046186472012661" transform="rotate(0 474.7057104949571 565.8015470260344)"/><ellipse cx="465.28810742489793" cy="578.7724521251918" rx="4.092372944025322" ry="2.046186472012661" transform="rotate(71.59200000000001 465.28810742489793 578.7724521251918)"/><ellipse cx="450.0386948452264" cy="573.833723275428" rx="4.092372944025322" ry="2.046186472012661" transform="rotate(143.18400000000003 450.0386948452264 573.833723275428)"/><ellipse cx="450.01316587451544" cy="557.8045319374912" rx="4.092372944025322" ry="2.046186472012661" transform="rotate(214.77599999999998 450.01316587451544 557.8045319374912)"/><ellipse cx="465.246769750735" cy="552.8172541610925" rx="4.092372944025322" ry="2.046186472012661" transform="rotate(286.36800000000005 465.246769750735 552.8172541610925)"/></g></g><g><circle cx="343.2182268015905" cy="314.8353736808223" r="41.18340250982903" fill="#E2503B"/><circle cx="343.2182268015905" cy="314.8353736808223" r="28.82838175688032" fill="#EB6B57"/><g fill="#F7C9A0"><ellipse cx="359.6915878055221" cy="314.8353736808223" rx="4.9420083011794835" ry="2.4710041505897418" transform="rotate(0 359.6915878055221 314.8353736808223)"/><ellipse cx="348.3187551761317" cy="330.499224837749" rx="4.9420083011794835" ry="2.4710041505897418" transform="rotate(71.59200000000001 348.3187551761317 330.499224837749)"/><ellipse cx="329.9033456844641" cy="324.53514499785064" rx="4.9420083011794835" ry="2.4710041505897418" transform="rotate(143.18400000000003 329.9033456844641 324.53514499785064)"/><ellipse cx="329.87251653304025" cy="305.17806348627187" rx="4.9420083011794835" ry="2.4710041505897418" transform="rotate(214.77599999999998 329.87251653304025 305.17806348627187)"/><ellipse cx="348.2688352075318" cy="299.15535526579197" rx="4.9420083011794835" ry="2.4710041505897418" transform="rotate(286.36800000000005 348.2688352075318 299.15535526579197)"/></g></g><g><circle cx="552.0223505933733" cy="389.2764289289097" r="45.86310427743942" fill="#E2503B"/><circle cx="552.0223505933733" cy="389.2764289289097" r="32.104172994207595" fill="#EB6B57"/><g fill="#F7C9A0"><ellipse cx="570.367592304349" cy="389.2764289289097" rx="5.50357251329273" ry="2.751786256646365" transform="rotate(0 570.367592304349 389.2764289289097)"/><ellipse cx="557.7024559381366" cy="406.7201755650689" rx="5.50357251329273" ry="2.751786256646365" transform="rotate(71.59200000000001 557.7024559381366 406.7201755650689)"/><ellipse cx="537.1944892730093" cy="400.0783927363929" rx="5.50357251329273" ry="2.751786256646365" transform="rotate(143.18400000000003 537.1944892730093 400.0783927363929)"/><ellipse cx="537.1601569813488" cy="378.52175113397675" rx="5.50357251329273" ry="2.751786256646365" transform="rotate(214.77599999999998 537.1601569813488 378.52175113397675)"/><ellipse cx="557.646863525031" cy="371.81467793664837" rx="5.50357251329273" ry="2.751786256646365" transform="rotate(286.36800000000005 557.646863525031 371.81467793664837)"/></g></g><g><circle cx="284.89794135102983" cy="527.0906939275649" r="37.26456100565381" fill="#3A2E1F"/><circle cx="284.89794135102983" cy="527.0906939275649" r="16.769052452544216" fill="#6B4F2A"/></g><g><circle cx="406.10439127009056" cy="284.5615021750234" r="41.23796522584744" fill="#3A2E1F"/><circle cx="406.10439127009056" cy="284.5615021750234" r="18.55708435163135" fill="#6B4F2A"/></g><g><circle cx="463.540028615704" cy="506.0864132270604" r="38.12399274651893" fill="#3A2E1F"/><circle cx="463.540028615704" cy="506.0864132270604" r="17.155796735933517" fill="#6B4F2A"/></g><g><circle cx="213.46882711091757" cy="349.6869201782548" r="31.548372013997287" fill="#3A2E1F"/><circle cx="213.46882711091757" cy="349.6869201782548" r="14.196767406298779" fill="#6B4F2A"/></g>
  </svg>