<svg xmlns="http://www.w3.org/2000/svg" viewBox="0 0 820 754.4" width="820" height="754.4">
  <defs>
    <radialGradient id="plateBg" cx="50%" cy="42%" r="75%"><stop offset="0%" stop-color="#FBF1DF"/><stop offset="70%" stop-color="#F3E2C4"/><stop offset="100%" stop-color="#E7Cfa1"/></radialGradient>
    <radialGradient id="crust" cx="50%" cy="46%" r="55%"><stop offset="60%" stop-color="#F0C079"/><stop offset="88%" stop-color="#D89B4C"/><stop offset="100%" stop-color="#B97C34"/></radialGradient>
    <radialGradient id="cheese" cx="50%" cy="46%" r="55%"><stop offset="0%" stop-color="#F8DC83"/><stop offset="100%" stop-color="#F6E6C2"/></radialGradient>
    <radialGradient id="pepShine" cx="38%" cy="34%" r="60%"><stop offset="0%" stop-color="#E76B5A"/><stop offset="100%" stop-color="#C0392B" stop-opacity="0"/></radialGradient>
  </defs>
  <rect x="0" y="0" width="820" height="754.4" rx="40" fill="url(#plateBg)"/><ellipse cx="410" cy="406.71999999999997" rx="330.624" ry="318.81600000000003" fill="#000" opacity=".10"/>
  <circle cx="410" cy="377.2" r="295.2" fill="url(#crust)"/>
  <circle cx="696.344" cy="377.2" r="13.68318670233339" fill="#D49A4E" opacity=".7"/><circle cx="693.6796757806042" cy="416.17085943382955" r="8.63321891938895" fill="#E8B774" opacity=".7"/><circle cx="685.7362842105209" cy="454.4165002170834" r="13.852279523570092" fill="#D49A4E" opacity=".7"/><circle cx="672.6616458869642" cy="491.22519947779546" r="11.064349676851183" fill="#E8B774" opacity=".7"/><circle cx="654.6990700851085" cy="525.9119747548366" r="12.721962767947465" fill="#E8B774" opacity=".7"/><circle cx="632.1828269538072" cy="557.8313310110252" r="11.947369078505785" fill="#D49A4E" opacity=".7"/><circle cx="605.5319269972408" cy="586.3892728147065" r="9.040477149948478" fill="#D49A4E" opacity=".7"/><circle cx="575.2423236017065" cy="611.0543581520534" r="7.912719148300588" fill="#D49A4E" opacity=".7"/><circle cx="541.8776837127151" cy="631.3675881668808" r="6.0591246779412025" fill="#E8B774" opacity=".7"/><circle cx="506.05889841321306" cy="646.9509487872842" r="7.3786235639043145" fill="#D49A4E" opacity=".7"/><circle cx="468.4525286032565" cy="657.5144452857994" r="6.32819111855328" fill="#D49A4E" opacity=".7"/><circle cx="429.7584007984225" cy="662.8614988651584" r="7.876083758935332" fill="#E8B774" opacity=".7"/><circle cx="390.6965838799087" cy="662.8926048432031" r="10.97100764251873" fill="#E8B774" opacity=".7"/><circle cx="351.9939891492936" cy="657.6071843608643" r="11.763895596038552" fill="#D49A4E" opacity=".7"/><circle cx="314.37084305095345" cy="647.103595154297" r="15.715762027479709" fill="#E8B774" opacity=".7"/><circle cx="278.52728429468976" cy="631.5773011907129" r="10.73386620353535" fill="#D49A4E" opacity=".7"/><circle cx="245.1303347961258" cy="611.3172352296226" r="15.365665756702423" fill="#D49A4E" opacity=".7"/><circle cx="214.80148689596354" cy="586.7004219995113" r="7.488803370852023" fill="#D49A4E" opacity=".7"/><circle cx="188.10513785069696" cy="558.1849620486238" r="11.400086826883257" fill="#D49A4E" opacity=".7"/><circle cx="165.53808682029296" cy="526.3015068351671" r="12.969174798499793" fill="#E8B774" opacity=".7"/><circle cx="147.520289806069" cy="491.6433836991462" r="10.193951029289515" fill="#D49A4E" opacity=".7"/><circle cx="134.3870445824864" cy="454.8555544827519" r="9.007037010468542" fill="#D49A4E" opacity=".7"/><circle cx="126.38275105545148" cy="416.62261327114174" r="6.594425988826901" fill="#E8B774" opacity=".7"/><circle cx="123.65636316220946" cy="377.6560466067185" r="14.20153515869379" fill="#D49A4E" opacity=".7"/><circle cx="126.25861694958093" cy="338.68099325481825" r="15.223283538199961" fill="#D49A4E" opacity=".7"/><circle cx="134.14108641394307" cy="300.42274991170643" r="10.57890725124255" fill="#D49A4E" opacity=".7"/><circle cx="147.15708467306644" cy="263.59327397359596" r="8.45586250174418" fill="#E8B774" opacity=".7"/><circle cx="165.06439369967342" cy="228.87793454009812" r="8.300705888807773" fill="#E8B774" opacity=".7"/><circle cx="187.52977181840984" cy="196.9227582060586" r="10.107530265390874" fill="#E8B774" opacity=".7"/><circle cx="214.13515508507135" cy="168.32240698808562" r="9.844120974350721" fill="#D49A4E" opacity=".7"/><circle cx="244.38543714503766" cy="143.6091121076001" r="5.987953851386904" fill="#D49A4E" opacity=".7"/><circle cx="277.717682793549" cy="123.24276956445627" r="7.586449126336723" fill="#E8B774" opacity=".7"/><circle cx="313.5116037803311" cy="107.60238181512773" r="14.602373158480972" fill="#D49A4E" opacity=".7"/><circle cx="351.101101911658" cy="96.97900481944771" r="9.54085597764328" fill="#D49A4E" opacity=".7"/><circle cx="389.7866646413174" cy="91.57033170611032" r="15.550873023714871" fill="#E8B774" opacity=".7"/><circle cx="428.848382477778" cy="91.47701385087794" r="8.602262524791062" fill="#D49A4E" opacity=".7"/><circle cx="467.5593459633042" cy="96.7007878294902" r="15.303408558011055" fill="#E8B774" opacity=".7"/><circle cx="505.19917291722754" cy="107.14444310128368" r="10.03370118669793" fill="#E8B774" opacity=".7"/><circle cx="541.0674142114563" cy="122.61363102490631" r="7.854594943743199" fill="#E8B774" opacity=".7"/><circle cx="574.4965886067299" cy="142.8204815416922" r="6.7671689028069375" fill="#E8B774" opacity=".7"/><circle cx="604.8646040810353" cy="167.38896022291547" r="13.44824782494083" fill="#D49A4E" opacity=".7"/><circle cx="631.6063344985132" cy="195.86186599026365" r="9.561329127565026" fill="#E8B774" opacity=".7"/><circle cx="654.2241361856811" cy="227.709339287172" r="13.139769856665284" fill="#D49A4E" opacity=".7"/><circle cx="672.2971087093221" cy="262.33872237028675" r="14.154151433721186" fill="#E8B774" opacity=".7"/><circle cx="685.4889275198641" cy="299.1055882283821" r="11.058088575784117" fill="#E8B774" opacity=".7"/><circle cx="693.5541027006005" cy="337.3257328887756" r="7.306184723988175" fill="#E8B774" opacity=".7"/>
  <circle cx="410" cy="377.2" r="253.87199999999999" fill="#7A4A2B"/>
  <circle cx="410" cy="377.2" r="243.71711999999997" fill="url(#cheese)"/>
  <circle cx="330.1821384774354" cy="546.6682589368789" r="19.742626750208434" fill="#F7DE8E" opacity=".5"/><circle cx="232.02723940533957" cy="487.74410399692505" r="7.533605516999959" fill="#F7DE8E" opacity=".5"/><circle cx="453.6537017259435" cy="406.44151238755984" r="21.638490269333122" fill="#F7DE8E" opacity=".5"/><circle cx="473.6676572609497" cy="263.91388270390416" r="9.73247999852523" fill="#F7DE8E" opacity=".5"/><circle cx="393.6829789293705" cy="391.19623871476796" r="12.275550506729632" fill="#F7DE8E" opacity=".5"/><circle cx="294.8491165314833" cy="506.65617498876253" r="9.8924763520807" fill="#F7DE8E" opacity=".5"/><circle cx="366.12956960335094" cy="259.9476590939254" r="9.102234767004846" fill="#F7DE8E" opacity=".5"/><circle cx="527.1186570867998" cy="271.90796919697755" r="15.441812840653581" fill="#F7DE8E" opacity=".5"/><circle cx="286.4116640996406" cy="509.0264687527448" r="10.98545803860761" fill="#F7DE8E" opacity=".5"/><circle cx="417.2784677267437" cy="353.88943859020196" r="22.006864071479065" fill="#F7DE8E" opacity=".5"/><circle cx="357.5328712459525" cy="438.73613793041216" r="14.084321080595252" fill="#F7DE8E" opacity=".5"/><circle cx="419.6427748843777" cy="406.62788396022745" r="9.73459895613603" fill="#F7DE8E" opacity=".5"/><circle cx="328.4132014757586" cy="358.140722535488" r="11.530140836834907" fill="#F7DE8E" opacity=".5"/><circle cx="508.9955494120814" cy="354.03244802342164" r="10.977599981585517" fill="#F7DE8E" opacity=".5"/><circle cx="454.42003754266693" cy="388.2521611751904" r="11.182197779500855" fill="#F7DE8E" opacity=".5"/><circle cx="367.2016488881379" cy="275.58110452472863" r="18.22731928769499" fill="#F7DE8E" opacity=".5"/><circle cx="242.471315331239" cy="486.8233718288921" r="10.767126981932668" fill="#F7DE8E" opacity=".5"/><circle cx="233.54471339675615" cy="383.6730780936435" r="10.549071246888488" fill="#F7DE8E" opacity=".5"/><circle cx="333.02502357348413" cy="274.42069184503106" r="16.498595435740423" fill="#F7DE8E" opacity=".5"/><circle cx="504.9453307150533" cy="327.6991791983725" r="14.87334242535755" fill="#F7DE8E" opacity=".5"/><circle cx="410.216499586867" cy="373.7350130602727" r="9.42829439579509" fill="#F7DE8E" opacity=".5"/><circle cx="264.40874159279855" cy="540.5530990096005" r="19.00451108453795" fill="#F7DE8E" opacity=".5"/><circle cx="491.0234674938815" cy="302.01409201564644" r="17.354736228268592" fill="#F7DE8E" opacity=".5"/><circle cx="501.8169824818698" cy="348.88568726896295" r="11.657274417020378" fill="#F7DE8E" opacity=".5"/><circle cx="204.53743244880462" cy="290.7767597379618" r="19.719563880432393" fill="#F7DE8E" opacity=".5"/><circle cx="410.0424901308979" cy="376.7195811371005" r="17.708254934381692" fill="#F7DE8E" opacity=".5"/>
  <circle cx="504.81023150728436" cy="401.6652641825254" r="39.08326878480613" fill="#FBE9A8" opacity=".9"/><circle cx="283.4774901206555" cy="434.4445690613139" r="40.75049784684554" fill="#FBE9A8" opacity=".9"/><circle cx="464.1187090585358" cy="176.2662673262189" r="39.88479617175646" fill="#FBE9A8" opacity=".9"/><circle cx="431.10861541875664" cy="462.61867892948305" r="36.91252531109378" fill="#FBE9A8" opacity=".9"/><circle cx="274.3990326023572" cy="344.9165496921472" r="37.92933523306623" fill="#FBE9A8" opacity=".9"/><circle cx="592.1276666652884" cy="268.9496856289614" r="32.649034333778545" fill="#FBE9A8" opacity=".9"/><g transform="translate(363.9501444194665 458.61251238618684)"><path d="M0 -26.920288300738665 C 38.457554715340954 -38.457554715340954, 38.457554715340954 15.383021886136383, 0 38.457554715340954 C -38.457554715340954 15.383021886136383, -38.457554715340954 -38.457554715340954, 0 -26.920288300738665 Z" fill="#E1382F"/><path d="M-19.228777357670477 -26.920288300738665 L0 -15.383021886136383 L19.228777357670477 -26.920288300738665" fill="#3C7A2E"/></g><g transform="translate(395.131052274928 225.75625510125664)"><path d="M0 -24.47961755821667 C 34.97088222602382 -34.97088222602382, 34.97088222602382 13.988352890409528, 0 34.97088222602382 C -34.97088222602382 13.988352890409528, -34.97088222602382 -34.97088222602382, 0 -24.47961755821667 Z" fill="#E1382F"/><path d="M-17.48544111301191 -24.47961755821667 L0 -13.988352890409528 L17.48544111301191 -24.47961755821667" fill="#3C7A2E"/></g><g transform="translate(576.6892841246802 481.0068874511128)"><path d="M0 -28.19331932641659 C 40.276170466309416 -40.276170466309416, 40.276170466309416 16.110468186523768, 0 40.276170466309416 C -40.276170466309416 16.110468186523768, -40.276170466309416 -40.276170466309416, 0 -28.19331932641659 Z" fill="#E1382F"/><path d="M-20.138085233154708 -28.19331932641659 L0 -16.110468186523768 L20.138085233154708 -28.19331932641659" fill="#3C7A2E"/></g><g transform="translate(314.70887387577835 405.230616395202)"><path d="M0 -23.66111308587156 C 33.80159012267366 -33.80159012267366, 33.80159012267366 13.520636049069465, 0 33.80159012267366 C -33.80159012267366 13.520636049069465, -33.80159012267366 -33.80159012267366, 0 -23.66111308587156 Z" fill="#E1382F"/><path d="M-16.90079506133683 -23.66111308587156 L0 -13.520636049069465 L16.90079506133683 -23.66111308587156" fill="#3C7A2E"/></g><g transform="translate(509.5478824568897 255.3837770394238)"><path d="M0 -27.319647926408795 C 39.02806846629828 -39.02806846629828, 39.02806846629828 15.611227386519312, 0 39.02806846629828 C -39.02806846629828 15.611227386519312, -39.02806846629828 -39.02806846629828, 0 -27.319647926408795 Z" fill="#E1382F"/><path d="M-19.51403423314914 -27.319647926408795 L0 -15.611227386519312 L19.51403423314914 -27.319647926408795" fill="#3C7A2E"/></g>
  </svg>