<svg xmlns="http://www.w3.org/2000/svg" viewBox="0 0 820 754.4" width="820" height="754.4">
  <defs>
    <radialGradient id="plateBg" cx="50%" cy="42%" r="75%"><stop offset="0%" stop-color="#FBF1DF"/><stop offset="70%" stop-color="#F3E2C4"/><stop offset="100%" stop-color="#E7Cfa1"/></radialGradient>
    <radialGradient id="crust" cx="50%" cy="46%" r="55%"><stop offset="60%" stop-color="#F0C079"/><stop offset="88%" stop-color="#D89B4C"/><stop offset="100%" stop-color="#B97C34"/></radialGradient>
    <radialGradient id="cheese" cx="50%" cy="46%" r="55%"><stop offset="0%" stop-color="#F8DC83"/><stop offset="100%" stop-color="#F6E6C2"/></radialGradient>
    <radialGradient id="pepShine" cx="38%" cy="34%" r="60%"><stop offset="0%" stop-color="#E76B5A"/><stop offset="100%" stop-color="#C0392B" stop-opacity="0"/></radialGradient>
  </defs>
  <rect x="0" y="0" width="820" height="754.4" rx="40" fill="url(#plateBg)"/><ellipse cx="410" cy="406.71999999999997" rx="330.624" ry="318.81600000000003" fill="#000" opacity=".10"/>
  <circle cx="410" cy="377.2" r="295.2" fill="url(#crust)"/>
  <circle cx="696.344" cy="377.2" r="7.802017966300249" fill="#E8B774" opacity=".7"/><circle cx="693.6796757806042" cy="416.17085943382955" r="6.900327626165002" fill="#D49A4E" opacity=".7"/><circle cx="685.7362842105209" cy="454.4165002170834" r="8.354021291133016" fill="#E8B774" opacity=".7"/><circle cx="672.6616458869642" cy="491.22519947779546" r="6.449206788517534" fill="#D49A4E" opacity=".7"/><circle cx="654.6990700851085" cy="525.9119747548366" r="7.0268852790221565" fill="#E8B774" opacity=".7"/><circle cx="632.1828269538072" cy="557.8313310110252" r="6.581026755362749" fill="#E8B774" opacity=".7"/><circle cx="605.5319269972408" cy="586.3892728147065" r="13.41917493294552" fill="#D49A4E" opacity=".7"/><circle cx="575.2423236017065" cy="611.0543581520534" r="12.232971582893283" fill="#E8B774" opacity=".7"/><circle cx="541.8776837127151" cy="631.3675881668808" r="6.84426119319722" fill="#E8B774" opacity=".7"/><circle cx="506.05889841321306" cy="646.9509487872842" r="8.607714696094394" fill="#E8B774" opacity=".7"/><circle cx="468.4525286032565" cy="657.5144452857994" r="6.4184965011812745" fill="#D49A4E" opacity=".7"/><circle cx="429.7584007984225" cy="662.8614988651584" r="10.652762260079385" fill="#D49A4E" opacity=".7"/><circle cx="390.6965838799087" cy="662.8926048432031" r="7.663733961448073" fill="#E8B774" opacity=".7"/><circle cx="351.9939891492936" cy="657.6071843608643" r="6.243888484049588" fill="#D49A4E" opacity=".7"/><circle cx="314.37084305095345" cy="647.103595154297" r="9.764163277052342" fill="#E8B774" opacity=".7"/><circle cx="278.52728429468976" cy="631.5773011907129" r="13.572704412169756" fill="#E8B774" opacity=".7"/><circle cx="245.1303347961258" cy="611.3172352296226" r="11.846708759363741" fill="#E8B774" opacity=".7"/><circle cx="214.80148689596354" cy="586.7004219995113" r="6.2989448327533895" fill="#E8B774" opacity=".7"/><circle cx="188.10513785069696" cy="558.1849620486238" r="15.17497064210102" fill="#D49A4E" opacity=".7"/><circle cx="165.53808682029296" cy="526.3015068351671" r="6.377133790902793" fill="#E8B774" opacity=".7"/><circle cx="147.520289806069" cy="491.6433836991462" r="12.671626889906824" fill="#D49A4E" opacity=".7"/><circle cx="134.3870445824864" cy="454.8555544827519" r="13.485159309167416" fill="#D49A4E" opacity=".7"/><circle cx="126.38275105545148" cy="416.62261327114174" r="9.036456417437643" fill="#E8B774" opacity=".7"/><circle cx="123.65636316220946" cy="377.6560466067185" r="11.738243082012982" fill="#D49A4E" opacity=".7"/><circle cx="126.25861694958093" cy="338.68099325481825" r="9.901309107128531" fill="#D49A4E" opacity=".7"/><circle cx="134.14108641394307" cy="300.42274991170643" r="14.980884493343533" fill="#D49A4E" opacity=".7"/><circle cx="147.15708467306644" cy="263.59327397359596" r="12.885657912880182" fill="#D49A4E" opacity=".7"/><circle cx="165.06439369967342" cy="228.87793454009812" r="13.623923993088306" fill="#E8B774" opacity=".7"/><circle cx="187.52977181840984" cy="196.9227582060586" r="11.92098115920648" fill="#D49A4E" opacity=".7"/><circle cx="214.13515508507135" cy="168.32240698808562" r="8.504207598600535" fill="#D49A4E" opacity=".7"/><circle cx="244.38543714503766" cy="143.6091121076001" r="13.157978004623205" fill="#E8B774" opacity=".7"/><circle cx="277.717682793549" cy="123.24276956445627" r="8.369978036820887" fill="#E8B774" opacity=".7"/><circle cx="313.5116037803311" cy="107.60238181512773" r="8.368556651171296" fill="#E8B774" opacity=".7"/><circle cx="351.101101911658" cy="96.97900481944771" r="12.843532080162317" fill="#E8B774" opacity=".7"/><circle cx="389.7866646413174" cy="91.57033170611032" r="10.543937166832388" fill="#D49A4E" opacity=".7"/><circle cx="428.848382477778" cy="91.47701385087794" r="14.498627280514688" fill="#E8B774" opacity=".7"/><circle cx="467.5593459633042" cy="96.7007878294902" r="6.319045441333204" fill="#E8B774" opacity=".7"/><circle cx="505.19917291722754" cy="107.14444310128368" r="6.808469811916351" fill="#D49A4E" opacity=".7"/><circle cx="541.0674142114563" cy="122.61363102490631" r="12.58049931460619" fill="#E8B774" opacity=".7"/><circle cx="574.4965886067299" cy="142.8204815416922" r="6.42495349419862" fill="#D49A4E" opacity=".7"/><circle cx="604.8646040810353" cy="167.38896022291547" r="10.396997133303435" fill="#E8B774" opacity=".7"/><circle cx="631.6063344985132" cy="195.86186599026365" r="6.2706706295125185" fill="#E8B774" opacity=".7"/><circle cx="654.2241361856811" cy="227.709339287172" r="13.331401936557144" fill="#D49A4E" opacity=".7"/><circle cx="672.2971087093221" cy="262.33872237028675" r="14.256141278721392" fill="#E8B774" opacity=".7"/><circle cx="685.4889275198641" cy="299.1055882283821" r="15.162832267038524" fill="#D49A4E" opacity=".7"/><circle cx="693.5541027006005" cy="337.3257328887756" r="9.282819669932127" fill="#D49A4E" opacity=".7"/>
  <circle cx="410" cy="377.2" r="253.87199999999999" fill="#7A4A2B"/>
  <circle cx="410" cy="377.2" r="243.71711999999997" fill="url(#cheese)"/>
  <circle cx="607.3593188048349" cy="419.0987389856345" r="17.787729036100206" fill="#F7DE8E" opacity=".5"/><circle cx="377.53666284148915" cy="386.287103395041" r="19.073119111116974" fill="#F7DE8E" opacity=".5"/><circle cx="427.730230180421" cy="342.58383733882965" r="8.226070007365196" fill="#F7DE8E" opacity=".5"/><circle cx="631.3126787499107" cy="383.8718006029959" r="19.923931011641397" fill="#F7DE8E" opacity=".5"/><circle cx="451.66636757048434" cy="246.66668571626593" r="20.15711167956702" fill="#F7DE8E" opacity=".5"/><circle cx="458.1004587516015" cy="475.71283926142877" r="17.339915501475332" fill="#F7DE8E" opacity=".5"/><circle cx="334.9544324765378" cy="296.25335433780555" r="11.12308001032099" fill="#F7DE8E" opacity=".5"/><circle cx="618.5909006415018" cy="404.10858880724624" r="7.894193241298198" fill="#F7DE8E" opacity=".5"/><circle cx="574.6484508723154" cy="394.47393319286675" r="19.579122098358344" fill="#F7DE8E" opacity=".5"/><circle cx="540.6844777352898" cy="492.0335855905968" r="11.578590106749905" fill="#F7DE8E" opacity=".5"/><circle cx="625.3782792961234" cy="362.49713175914604" r="18.93344269327819" fill="#F7DE8E" opacity=".5"/><circle cx="516.8837384618865" cy="271.2247996065671" r="20.71600223894231" fill="#F7DE8E" opacity=".5"/><circle cx="310.8711955534931" cy="241.54020619356731" r="21.5971360737551" fill="#F7DE8E" opacity=".5"/><circle cx="447.5520396656725" cy="336.35173292865375" r="8.417189791649578" fill="#F7DE8E" opacity=".5"/><circle cx="340.7890785519509" cy="315.1115983749598" r="8.65647460629232" fill="#F7DE8E" opacity=".5"/><circle cx="416.03122136580794" cy="411.5952633033776" r="10.056525258589534" fill="#F7DE8E" opacity=".5"/><circle cx="625.8292617170126" cy="428.5318780354285" r="13.613911002958192" fill="#F7DE8E" opacity=".5"/><circle cx="420.0017851597262" cy="396.90180675951694" r="13.14457539964467" fill="#F7DE8E" opacity=".5"/><circle cx="220.68928412541175" cy="482.3244482626069" r="19.514363021096212" fill="#F7DE8E" opacity=".5"/><circle cx="433.66097186186954" cy="394.46295169330654" r="16.94995243518613" fill="#F7DE8E" opacity=".5"/><circle cx="461.09737342340594" cy="424.1390807586248" r="22.03010628263466" fill="#F7DE8E" opacity=".5"/><circle cx="208.28390282391914" cy="293.7386133986582" r="19.576932845497502" fill="#F7DE8E" opacity=".5"/><circle cx="452.11756353845385" cy="408.3889312709067" r="9.171255272570995" fill="#F7DE8E" opacity=".5"/><circle cx="319.71742690659283" cy="435.433720557808" r="8.55344600449316" fill="#F7DE8E" opacity=".5"/><circle cx="357.9098876441024" cy="385.56739393209324" r="19.843330986555664" fill="#F7DE8E" opacity=".5"/><circle cx="441.99973092307965" cy="385.5245665641546" r="15.469331171493975" fill="#F7DE8E" opacity=".5"/>
  <g><circle cx="486.0209993276905" cy="416.6946403071414" r="33.592499133478846" fill="#F3DE8A"/><circle cx="486.0209993276905" cy="416.6946403071414" r="16.796249566739423" fill="#E7CD6B"/></g><g><circle cx="281.3601731581563" cy="430.0000660195978" r="41.29300827956758" fill="#F3DE8A"/><circle cx="281.3601731581563" cy="430.0000660195978" r="20.64650413978379" fill="#E7CD6B"/></g><g><circle cx="500.80315127306517" cy="186.88302775194427" r="44.281889108810574" fill="#F3DE8A"/><circle cx="500.80315127306517" cy="186.88302775194427" r="22.140944554405287" fill="#E7CD6B"/></g><g><circle cx="452.42819531078925" cy="448.42634612723634" r="45.416865816917266" fill="#F3DE8A"/><circle cx="452.42819531078925" cy="448.42634612723634" r="22.708432908458633" fill="#E7CD6B"/></g><g><circle cx="260.0742442381192" cy="329.8113968369806" r="42.50065082861111" fill="#F3DE8A"/><circle cx="260.0742442381192" cy="329.8113968369806" r="21.250325414305554" fill="#E7CD6B"/></g><g><circle cx="612.0560183659525" cy="323.72902219419836" r="42.18738186302594" fill="#F3DE8A"/><circle cx="612.0560183659525" cy="323.72902219419836" r="21.09369093151297" fill="#E7CD6B"/></g><g><circle cx="367.58573009462" cy="453.3001661099185" r="31.969734918605536" fill="#F3DE8A"/><circle cx="367.58573009462" cy="453.3001661099185" r="15.984867459302768" fill="#E7CD6B"/></g><g><circle cx="374.20240881222765" cy="230.94987012030694" r="39.831351626180115" fill="#F3DE8A"/><circle cx="374.20240881222765" cy="230.94987012030694" r="19.915675813090058" fill="#E7CD6B"/></g><g><circle cx="563.5148661149576" cy="505.9735979142956" r="43.944815082075074" fill="#F3DE8A"/><circle cx="563.5148661149576" cy="505.9735979142956" r="21.972407541037537" fill="#E7CD6B"/></g><path d="M296.40161252180275 408.4438651353194 q 13.874794236794115 -1.884706394442754 17.343492795992642 0 q 13.874794236794115 11.294465202575712 17.343492795992642 0 q 13.874794236794115 -2.0399520274039453 17.343492795992642 0 q 13.874794236794115 10.750815281323844 17.343492795992642 0" stroke="#5A3A22" stroke-width="7.631136830236763" fill="none" stroke-linecap="round"/><path d="M453.79695238719114 260.10041232982894 q 12.984175592936575 -4.452632009619706 16.23021949117072 0 q 12.984175592936575 -1.766748557719301 16.23021949117072 0 q 12.984175592936575 5.767999119567694 16.23021949117072 0 q 12.984175592936575 0.19033167257048403 16.23021949117072 0" stroke="#5A3A22" stroke-width="7.141296576115116" fill="none" stroke-linecap="round"/><path d="M365.80257043467844 570.3858923985474 q 17.331559085324407 -11.218871212363272 21.664448856655508 0 q 17.331559085324407 11.442568049955279 21.664448856655508 0 q 17.331559085324407 -2.3439459791873687 21.664448856655508 0 q 17.331559085324407 4.812394140901553 21.664448856655508 0" stroke="#5A3A22" stroke-width="9.532357496928423" fill="none" stroke-linecap="round"/>
  </svg>