<svg xmlns="http://www.w3.org/2000/svg" viewBox="0 0 820 754.4" width="820" height="754.4">
  <defs>
    <radialGradient id="plateBg" cx="50%" cy="42%" r="75%"><stop offset="0%" stop-color="#FBF1DF"/><stop offset="70%" stop-color="#F3E2C4"/><stop offset="100%" stop-color="#E7Cfa1"/></radialGradient>
    <radialGradient id="crust" cx="50%" cy="46%" r="55%"><stop offset="60%" stop-color="#F0C079"/><stop offset="88%" stop-color="#D89B4C"/><stop offset="100%" stop-color="#B97C34"/></radialGradient>
    <radialGradient id="cheese" cx="50%" cy="46%" r="55%"><stop offset="0%" stop-color="#F8DC83"/><stop offset="100%" stop-color="#F4CF6E"/></radialGradient>
    <radialGradient id="pepShine" cx="38%" cy="34%" r="60%"><stop offset="0%" stop-color="#E76B5A"/><stop offset="100%" stop-color="#C0392B" stop-opacity="0"/></radialGradient>
  </defs>
  <rect x="0" y="0" width="820" height="754.4" rx="40" fill="url(#plateBg)"/><ellipse cx="410" cy="406.71999999999997" rx="330.624" ry="318.81600000000003" fill="#000" opacity=".10"/>
  <circle cx="410" cy="377.2" r="295.2" fill="url(#crust)"/>
  <circle cx="696.344" cy="377.2" r="10.938016558695585" fill="#E8B774" opacity=".7"/><circle cx="693.6796757806042" cy="416.17085943382955" r="11.887886670973153" fill="#E8B774" opacity=".7"/><circle cx="685.7362842105209" cy="454.4165002170834" r="14.27564268974215" fill="#E8B774" opacity=".7"/><circle cx="672.6616458869642" cy="491.22519947779546" r="6.691457428090274" fill="#E8B774" opacity=".7"/><circle cx="654.6990700851085" cy="525.9119747548366" r="11.884127984583378" fill="#D49A4E" opacity=".7"/><circle cx="632.1828269538072" cy="557.8313310110252" r="10.627617904018612" fill="#E8B774" opacity=".7"/><circle cx="605.5319269972408" cy="586.3892728147065" r="10.036561388332398" fill="#E8B774" opacity=".7"/><circle cx="575.2423236017065" cy="611.0543581520534" r="12.610241297330708" fill="#D49A4E" opacity=".7"/><circle cx="541.8776837127151" cy="631.3675881668808" r="7.660583400852978" fill="#D49A4E" opacity=".7"/><circle cx="506.05889841321306" cy="646.9509487872842" r="9.799829046741127" fill="#D49A4E" opacity=".7"/><circle cx="468.4525286032565" cy="657.5144452857994" r="11.635889367308469" fill="#D49A4E" opacity=".7"/><circle cx="429.7584007984225" cy="662.8614988651584" r="11.779286476705224" fill="#E8B774" opacity=".7"/><circle cx="390.6965838799087" cy="662.8926048432031" r="10.021224523834885" fill="#E8B774" opacity=".7"/><circle cx="351.9939891492936" cy="657.6071843608643" r="13.828986556414515" fill="#E8B774" opacity=".7"/><circle cx="314.37084305095345" cy="647.103595154297" r="9.02929087945819" fill="#E8B774" opacity=".7"/><circle cx="278.52728429468976" cy="631.5773011907129" r="8.380523217838258" fill="#D49A4E" opacity=".7"/><circle cx="245.1303347961258" cy="611.3172352296226" r="13.19455861260742" fill="#E8B774" opacity=".7"/><circle cx="214.80148689596354" cy="586.7004219995113" r="8.824874546729028" fill="#D49A4E" opacity=".7"/><circle cx="188.10513785069696" cy="558.1849620486238" r="13.220546271108091" fill="#D49A4E" opacity=".7"/><circle cx="165.53808682029296" cy="526.3015068351671" r="11.349908176973463" fill="#E8B774" opacity=".7"/><circle cx="147.520289806069" cy="491.6433836991462" r="14.223772614575923" fill="#D49A4E" opacity=".7"/><circle cx="134.3870445824864" cy="454.8555544827519" r="14.265117993034423" fill="#E8B774" opacity=".7"/><circle cx="126.38275105545148" cy="416.62261327114174" r="9.689531273446978" fill="#D49A4E" opacity=".7"/><circle cx="123.65636316220946" cy="377.6560466067185" r="6.658927911367267" fill="#E8B774" opacity=".7"/><circle cx="126.25861694958093" cy="338.68099325481825" r="10.797027834556998" fill="#E8B774" opacity=".7"/><circle cx="134.14108641394307" cy="300.42274991170643" r="8.565038937214762" fill="#E8B774" opacity=".7"/><circle cx="147.15708467306644" cy="263.59327397359596" r="13.128734438303859" fill="#D49A4E" opacity=".7"/><circle cx="165.06439369967342" cy="228.87793454009812" r="12.241929893173278" fill="#D49A4E" opacity=".7"/><circle cx="187.52977181840984" cy="196.9227582060586" r="10.278257540255785" fill="#E8B774" opacity=".7"/><circle cx="214.13515508507135" cy="168.32240698808562" r="15.590232672762127" fill="#D49A4E" opacity=".7"/><circle cx="244.38543714503766" cy="143.6091121076001" r="10.491145737614483" fill="#D49A4E" opacity=".7"/><circle cx="277.717682793549" cy="123.24276956445627" r="6.379060798320919" fill="#E8B774" opacity=".7"/><circle cx="313.5116037803311" cy="107.60238181512773" r="10.03119608232379" fill="#E8B774" opacity=".7"/><circle cx="351.101101911658" cy="96.97900481944771" r="8.859762306712568" fill="#E8B774" opacity=".7"/><circle cx="389.7866646413174" cy="91.57033170611032" r="9.326595095559954" fill="#E8B774" opacity=".7"/><circle cx="428.848382477778" cy="91.47701385087794" r="7.480104776691645" fill="#D49A4E" opacity=".7"/><circle cx="467.5593459633042" cy="96.7007878294902" r="12.105431549191476" fill="#E8B774" opacity=".7"/><circle cx="505.19917291722754" cy="107.14444310128368" r="7.138716759156435" fill="#D49A4E" opacity=".7"/><circle cx="541.0674142114563" cy="122.61363102490631" r="9.61977111499384" fill="#E8B774" opacity=".7"/><circle cx="574.4965886067299" cy="142.8204815416922" r="14.296669117636979" fill="#E8B774" opacity=".7"/><circle cx="604.8646040810353" cy="167.38896022291547" r="9.94702209276706" fill="#E8B774" opacity=".7"/><circle cx="631.6063344985132" cy="195.86186599026365" r="11.681633486073466" fill="#D49A4E" opacity=".7"/><circle cx="654.2241361856811" cy="227.709339287172" r="8.933314857535064" fill="#E8B774" opacity=".7"/><circle cx="672.2971087093221" cy="262.33872237028675" r="5.98856430947408" fill="#E8B774" opacity=".7"/><circle cx="685.4889275198641" cy="299.1055882283821" r="8.871704168949275" fill="#D49A4E" opacity=".7"/><circle cx="693.5541027006005" cy="337.3257328887756" r="7.119163380168378" fill="#D49A4E" opacity=".7"/>
  <circle cx="410" cy="377.2" r="253.87199999999999" fill="#C23A26"/>
  <circle cx="410" cy="377.2" r="243.71711999999997" fill="url(#cheese)"/>
  <circle cx="405.7837932791239" cy="250.0912613125481" r="14.967920149723065" fill="#F7DE8E" opacity=".5"/><circle cx="514.133849175825" cy="456.2181070966837" r="16.561305561969053" fill="#F7DE8E" opacity=".5"/><circle cx="577.4554541755647" cy="227.6119213644163" r="16.209286428289484" fill="#F7DE8E" opacity=".5"/><circle cx="303.41758115176015" cy="296.1897103616318" r="14.568572480259462" fill="#F7DE8E" opacity=".5"/><circle cx="536.2297670482802" cy="462.27414745274984" r="16.985967435892668" fill="#F7DE8E" opacity=".5"/><circle cx="575.8702543911062" cy="371.90105661054963" r="9.373707448448984" fill="#F7DE8E" opacity=".5"/><circle cx="508.17431447259537" cy="492.05807434869945" r="21.728005429795008" fill="#F7DE8E" opacity=".5"/><circle cx="290.4085614398627" cy="557.2705607405812" r="12.937500817067919" fill="#F7DE8E" opacity=".5"/><circle cx="419.87674564083096" cy="224.8098642391121" r="8.432844775803385" fill="#F7DE8E" opacity=".5"/><circle cx="374.72960134058957" cy="528.224252520532" r="14.647546439263968" fill="#F7DE8E" opacity=".5"/><circle cx="373.3879917395967" cy="339.4299148634298" r="17.97934843042865" fill="#F7DE8E" opacity=".5"/><circle cx="401.49525037698106" cy="396.93597885457933" r="15.5560250026267" fill="#F7DE8E" opacity=".5"/><circle cx="379.0392891252619" cy="406.00875914734513" r="19.433386484272777" fill="#F7DE8E" opacity=".5"/><circle cx="570.7352029157175" cy="307.2078962919767" r="7.4544220468774425" fill="#F7DE8E" opacity=".5"/><circle cx="228.82467072741588" cy="458.5955767179132" r="15.782475100541486" fill="#F7DE8E" opacity=".5"/><circle cx="364.5465888446713" cy="237.5797957971319" r="7.3918824506364755" fill="#F7DE8E" opacity=".5"/><circle cx="295.31284851292656" cy="380.2198779550553" r="9.787889336720108" fill="#F7DE8E" opacity=".5"/><circle cx="415.20922734159905" cy="363.2644253252403" r="8.631307789888233" fill="#F7DE8E" opacity=".5"/><circle cx="553.1040767828201" cy="374.54332324455856" r="17.770118788965043" fill="#F7DE8E" opacity=".5"/><circle cx="518.4775414006044" cy="192.08250488600498" r="21.879694723365827" fill="#F7DE8E" opacity=".5"/><circle cx="447.36647937890586" cy="389.49628837801674" r="16.17823262267746" fill="#F7DE8E" opacity=".5"/><circle cx="333.0852884872434" cy="437.0729472559822" r="15.246247399868441" fill="#F7DE8E" opacity=".5"/><circle cx="423.51444542308974" cy="381.6412471598041" r="14.207696904558686" fill="#F7DE8E" opacity=".5"/><circle cx="397.5829159358122" cy="473.8606581255912" r="18.096857836553824" fill="#F7DE8E" opacity=".5"/><circle cx="342.37156277114167" cy="417.996241470786" r="16.069717709440734" fill="#F7DE8E" opacity=".5"/><circle cx="251.61766765847932" cy="540.923664902234" r="11.761669939253478" fill="#F7DE8E" opacity=".5"/>
  <g><circle cx="499.61084603410904" cy="388.24153156729415" r="41.461157356286414" fill="#E2503B"/><circle cx="499.61084603410904" cy="388.24153156729415" r="29.022810149400488" fill="#EB6B57"/><g fill="#F7C9A0"><ellipse cx="516.1953089766237" cy="388.24153156729415" rx="4.97533888275437" ry="2.487669441377185" transform="rotate(0 516.1953089766237 388.24153156729415)"/><ellipse cx="504.7457741034104" cy="404.0110250536031" rx="4.97533888275437" ry="2.487669441377185" transform="rotate(71.59200000000001 504.7457741034104 404.0110250536031)"/><ellipse cx="486.20616483891956" cy="398.0067214347249" rx="4.97533888275437" ry="2.487669441377185" transform="rotate(143.18400000000003 486.20616483891956 398.0067214347249)"/><ellipse cx="486.1751277652334" cy="378.51908919456497" rx="4.97533888275437" ry="2.487669441377185" transform="rotate(214.77599999999998 486.1751277652334 378.51908919456497)"/><ellipse cx="504.6955174575967" cy="372.4557617854049" rx="4.97533888275437" ry="2.487669441377185" transform="rotate(286.36800000000005 504.6955174575967 372.4557617854049)"/></g></g><g><circle cx="281.4738200522445" cy="441.0975332192726" r="40.86305417851545" fill="#E2503B"/><circle cx="281.4738200522445" cy="441.0975332192726" r="28.60413792496081" fill="#EB6B57"/><g fill="#F7C9A0"><ellipse cx="297.8190417236507" cy="441.0975332192726" rx="4.903566501421854" ry="2.451783250710927" transform="rotate(0 297.8190417236507 441.0975332192726)"/><ellipse cx="286.5346735661859" cy="456.6395418796045" rx="4.903566501421854" ry="2.451783250710927" transform="rotate(71.59200000000001 286.5346735661859 456.6395418796045)"/><ellipse cx="268.26250978375043" cy="450.7218541032098" rx="4.903566501421854" ry="2.451783250710927" transform="rotate(143.18400000000003 268.26250978375043 450.7218541032098)"/><ellipse cx="268.23192043930254" cy="431.51534317063687" rx="4.903566501421854" ry="2.451783250710927" transform="rotate(214.77599999999998 268.23192043930254 431.51534317063687)"/><ellipse cx="286.48514190398294" cy="425.5394830591241" rx="4.903566501421854" ry="2.451783250710927" transform="rotate(286.36800000000005 286.48514190398294 425.5394830591241)"/></g></g><g><circle cx="439.02601951407826" cy="186.39546048285678" r="33.797197114583106" fill="#E2503B"/><circle cx="439.02601951407826" cy="186.39546048285678" r="23.658037980208174" fill="#EB6B57"/><g fill="#F7C9A0"><ellipse cx="452.5448983599115" cy="186.39546048285678" rx="4.055663653749972" ry="2.027831826874986" transform="rotate(0 452.5448983599115 186.39546048285678)"/><ellipse cx="443.21177281170225" cy="199.2500143288581" rx="4.055663653749972" ry="2.027831826874986" transform="rotate(71.59200000000001 443.21177281170225 199.2500143288581)"/><ellipse cx="428.0991500897911" cy="194.3555867276406" rx="4.055663653749972" ry="2.027831826874986" transform="rotate(143.18400000000003 428.0991500897911 194.3555867276406)"/><ellipse cx="428.07385011834515" cy="178.4701799972535" rx="4.055663653749972" ry="2.027831826874986" transform="rotate(214.77599999999998 428.07385011834515 178.4701799972535)"/><ellipse cx="443.17080594359754" cy="173.5276389616361" rx="4.055663653749972" ry="2.027831826874986" transform="rotate(286.36800000000005 443.17080594359754 173.5276389616361)"/></g></g><g><circle cx="464.41718907811486" cy="458.6236288845176" r="43.421820514630525" fill="#E2503B"/><circle cx="464.41718907811486" cy="458.6236288845176" r="30.395274360241366" fill="#EB6B57"/><g fill="#F7C9A0"><ellipse cx="481.7859172839671" cy="458.6236288845176" rx="5.210618461755663" ry="2.6053092308778316" transform="rotate(0 481.7859172839671 458.6236288845176)"/><ellipse cx="469.7949435644337" cy="475.1388484160177" rx="5.210618461755663" ry="2.6053092308778316" transform="rotate(71.59200000000001 469.7949435644337 475.1388484160177)"/><ellipse cx="450.3786118162308" cy="468.85060634371234" rx="5.210618461755663" ry="2.6053092308778316" transform="rotate(143.18400000000003 450.3786118162308 468.85060634371234)"/><ellipse cx="450.34610702551015" cy="448.4414204129908" rx="5.210618461755663" ry="2.6053092308778316" transform="rotate(214.77599999999998 450.34610702551015 448.4414204129908)"/><ellipse cx="469.7423103242316" cy="442.0913633651484" rx="5.210618461755663" ry="2.6053092308778316" transform="rotate(286.36800000000005 469.7423103242316 442.0913633651484)"/></g></g><circle cx="285.39387711563285" cy="311.17419107849855" r="43.55064472393133" fill="#FBE9A8" opacity=".9"/><circle cx="615.1202039230794" cy="343.00845788416603" r="32.838457392454146" fill="#FBE9A8" opacity=".9"/><circle cx="361.1542513675044" cy="444.35147109022137" r="34.54948789732531" fill="#FBE9A8" opacity=".9"/><circle cx="366.89669833366696" cy="244.64833721540174" r="32.798264444852244" fill="#FBE9A8" opacity=".9"/><circle cx="576.3468605968887" cy="506.82096004972254" r="42.0018052140344" fill="#FBE9A8" opacity=".9"/><g transform="translate(317.04757008973047 379.2418228565187) rotate(138.14315275289118)"><path d="M0 -41.79536627165973 C 33.436293017327785 -25.07721976299584, 33.436293017327785 25.07721976299584, 0 41.79536627165973 C -33.436293017327785 25.07721976299584, -33.436293017327785 -25.07721976299584, 0 -41.79536627165973 Z" fill="#3C7A2E"/><path d="M0 -41.79536627165973 L0 41.79536627165973" stroke="#2C5E22" stroke-width="5.015443952599168"/></g><g transform="translate(488.6420620445066 246.41816295228838) rotate(49.88754289224744)"><path d="M0 -34.38146244127304 C 27.50516995301843 -20.62887746476382, 27.50516995301843 20.62887746476382, 0 34.38146244127304 C -27.50516995301843 20.62887746476382, -27.50516995301843 -20.62887746476382, 0 -34.38146244127304 Z" fill="#3C7A2E"/><path d="M0 -34.38146244127304 L0 34.38146244127304" stroke="#2C5E22" stroke-width="4.125775492952764"/></g><g transform="translate(472.7947083049178 573.0214092178725) rotate(347.73428273387253)"><path d="M0 -39.684392445171255 C 31.747513956137006 -23.810635467102752, 31.747513956137006 23.810635467102752, 0 39.684392445171255 C -31.747513956137006 23.810635467102752, -31.747513956137006 -23.810635467102752, 0 -39.684392445171255 Z" fill="#3C7A2E"/><path d="M0 -39.684392445171255 L0 39.684392445171255" stroke="#2C5E22" stroke-width="4.762127093420551"/></g><g transform="translate(339.29908738493117 308.15478227175186) rotate(20.174776408821344)"><path d="M0 -44.29629655589349 C 35.437037244714794 -26.577777933536094, 35.437037244714794 26.577777933536094, 0 44.29629655589349 C -35.437037244714794 26.577777933536094, -35.437037244714794 -26.577777933536094, 0 -44.29629655589349 Z" fill="#3C7A2E"/><path d="M0 -44.29629655589349 L0 44.29629655589349" stroke="#2C5E22" stroke-width="5.315555586707219"/></g><g transform="translate(556.0358275048501 400.054733902645) rotate(353.7978277634829)"><path d="M0 -35.09613082816824 C 28.076904662534595 -21.057678496900945, 28.076904662534595 21.057678496900945, 0 35.09613082816824 C -28.076904662534595 21.057678496900945, -28.076904662534595 -21.057678496900945, 0 -35.09613082816824 Z" fill="#3C7A2E"/><path d="M0 -35.09613082816824 L0 35.09613082816824" stroke="#2C5E22" stroke-width="4.211535699380189"/></g><g transform="translate(241.4909134454388 476.83951820693596) rotate(333.7159468140453)"><path d="M0 -38.33712976603769 C 30.669703812830154 -23.002277859622613, 30.669703812830154 23.002277859622613, 0 38.33712976603769 C -30.669703812830154 23.002277859622613, -30.669703812830154 -23.002277859622613, 0 -38.33712976603769 Z" fill="#3C7A2E"/><path d="M0 -38.33712976603769 L0 38.33712976603769" stroke="#2C5E22" stroke-width="4.600455571924523"/></g>
  </svg>